<svg width="72" height="72.000000" viewBox="0 0 72 72" fill="none" xmlns="http://www.w3.org/2000/svg" xmlns:xlink="http://www.w3.org/1999/xlink">
	<desc>
			Created with Pixso.
	</desc>
	<defs>
		<clipPath id="clip21_411">
			<rect id="free-icon-agent-4935682" rx="0.000000" width="35.929688" height="35.929688" transform="translate(18.035156 18.035156)" fill="white" fill-opacity="0"/>
		</clipPath>
		<clipPath id="clip21_425">
			<rect id="free-icon-document-4248628" rx="0.000000" width="35.929688" height="35.929688" transform="translate(56.847656 18.035156)" fill="white" fill-opacity="0"/>
		</clipPath>
		<clipPath id="clip21_428">
			<rect id="free-icon-recycling-3283519" rx="0.000000" width="35.929688" height="35.929688" transform="translate(56.847656 18.035156)" fill="white" fill-opacity="0"/>
		</clipPath>
		<clipPath id="clip21_432">
			<rect id="free-icon-online-support-4935596" rx="0.000000" width="35.929688" height="35.929688" transform="translate(56.847656 18.035156)" fill="white" fill-opacity="0"/>
		</clipPath>
		<clipPath id="clip21_439">
			<rect id="free-icon-no-money-4935270" rx="0.000000" width="35.929688" height="35.929688" transform="translate(18.035156 18.035156)" fill="white" fill-opacity="0"/>
		</clipPath>
		<clipPath id="clip21_445">
			<rect id="free-icon-shield-6506912" rx="0.000000" width="35.929688" height="35.929688" transform="translate(18.035156 18.035156)" fill="white" fill-opacity="0"/>
		</clipPath>
		<clipPath id="clip21_448">
			<rect id="Frame 6" rx="0.000000" width="24.750000" height="8.625000" transform="translate(28.968506 19.312500)" fill="white" fill-opacity="0"/>
		</clipPath>
		<clipPath id="clip21_450">
			<rect id="free-icon-wheelbarrow-4591692" rx="0.000000" width="35.929688" height="35.929688" transform="translate(18.035156 18.035156)" fill="white" fill-opacity="0"/>
		</clipPath>
		<clipPath id="clip21_455">
			<rect id="free-icon-pin-7452980" rx="0.000000" width="35.929688" height="35.929688" transform="translate(18.035156 18.035156)" fill="white" fill-opacity="0"/>
		</clipPath>
		<clipPath id="clip21_469">
			<rect id="free-icon-time-is-money-6775873" rx="0.000000" width="35.929688" height="35.929688" transform="translate(18.035156 18.035156)" fill="white" fill-opacity="0"/>
		</clipPath>
		<clipPath id="clip21_477">
			<rect id="free-icon-document-6777288" rx="0.000000" width="35.929688" height="35.929688" transform="translate(18.035156 18.035156)" fill="white" fill-opacity="0"/>
		</clipPath>
		<clipPath id="clip21_482">
			<rect id="free-icon-shield-4779724" rx="0.000000" width="35.929688" height="35.929688" transform="translate(18.035156 18.035156)" fill="white" fill-opacity="0"/>
		</clipPath>
		<clipPath id="clip21_507">
			<rect id="free-icon-file-604695" rx="0.000000" width="35.893486" height="35.893486" transform="translate(18.053257 18.053257)" fill="white" fill-opacity="0"/>
		</clipPath>
		<clipPath id="clip21_527">
			<rect id="free-icon-file-604695" rx="0.000000" width="35.893486" height="35.893486" transform="translate(18.053257 18.053257)" fill="white" fill-opacity="0"/>
		</clipPath>
		<clipPath id="clip21_532">
			<rect id="free-icon-calendar-4610861" rx="0.000000" width="35.929688" height="35.929688" transform="translate(2.222656 18.035156)" fill="white" fill-opacity="0"/>
		</clipPath>
		<clipPath id="clip21_541">
			<rect id="free-icon-tractor-10583052" rx="0.000000" width="35.929688" height="35.929688" transform="translate(41.035156 18.035156)" fill="white" fill-opacity="0"/>
		</clipPath>
		<clipPath id="clip21_549">
			<rect id="free-icon-toy-truck-4591186" rx="0.000000" width="35.929688" height="35.929688" transform="translate(79.847656 18.035156)" fill="white" fill-opacity="0"/>
		</clipPath>
	</defs>
	<rect id="free-icon-file-604695" rx="0.000000" width="35.893486" height="35.893486" transform="translate(18.053257 18.053257)" fill="#FFFFFF" fill-opacity="0"/>
	<g clip-path="url(#clip21_507)">
		<path id="Vector" d="M47.81 25.9L40.23 18.18C40.11 18.06 39.95 18 39.78 18L28.42 18C25.98 18 24 20.02 24 22.5L24 49.49C24 51.97 25.98 54 28.42 54L36 54C36.35 54 36.63 53.71 36.63 53.35C36.63 52.99 36.35 52.7 36 52.7L28.42 52.7C26.68 52.7 25.27 51.26 25.27 49.49L25.27 22.5C25.27 20.73 26.68 19.29 28.42 19.29L39.52 19.29L46.72 26.62L46.72 41.78C46.72 42.14 47.01 42.43 47.36 42.43C47.71 42.43 48 42.14 48 41.78L48 26.35C48 26.18 47.93 26.02 47.81 25.9Z" fill="#141414" fill-opacity="0.900000" fill-rule="nonzero"/>
		<path id="Vector" d="M47.35 25.7L43.5 25.7C41.73 25.7 40.29 24.26 40.29 22.5L40.29 18.64C40.29 18.28 40 18 39.64 18C39.28 18 39 18.28 39 18.64L39 22.5C39 24.98 41.01 27 43.5 27L47.35 27C47.71 27 48 26.71 48 26.35C48 25.99 47.71 25.7 47.35 25.7Z" fill="#141414" fill-opacity="0.900000" fill-rule="nonzero"/>
		<path id="Vector" d="M36.35 22L28.64 22C28.28 22 28 22.22 28 22.5C28 22.77 28.28 23 28.64 23L36.35 23C36.71 23 37 22.77 37 22.5C37 22.22 36.71 22 36.35 22Z" fill="#141414" fill-opacity="0.900000" fill-rule="nonzero"/>
		<path id="Vector" d="M41.78 49.74L40.25 48.21C39.96 47.92 39.5 47.92 39.21 48.21C38.92 48.5 38.92 48.96 39.21 49.25L40.74 50.78C40.88 50.92 41.07 51 41.26 51C41.45 51 41.64 50.92 41.78 50.78C42.07 50.49 42.07 50.03 41.78 49.74Z" fill="#EC483B" fill-opacity="1.000000" fill-rule="nonzero"/>
		<path id="Vector" d="M46.79 45.2C46.52 44.93 46.08 44.93 45.81 45.2L41.2 49.79C40.93 50.07 40.93 50.51 41.2 50.79C41.33 50.93 41.51 51 41.69 51C41.87 51 42.05 50.93 42.18 50.79L46.79 46.2C47.06 45.92 47.06 45.48 46.79 45.2Z" fill="#EC483B" fill-opacity="1.000000" fill-rule="nonzero"/>
		<path id="Vector" d="M44.34 30L28.65 30C28.29 30 28 30.22 28 30.5C28 30.77 28.29 31 28.65 31L44.34 31C44.7 31 45 30.77 45 30.5C45 30.22 44.7 30 44.34 30Z" fill="#141414" fill-opacity="0.900000" fill-rule="nonzero"/>
		<path id="Vector" d="M44.34 33L28.65 33C28.29 33 28 33.22 28 33.5C28 33.77 28.29 34 28.65 34L44.34 34C44.7 34 45 33.77 45 33.5C45 33.22 44.7 33 44.34 33Z" fill="#141414" fill-opacity="0.900000" fill-rule="nonzero"/>
		<path id="Vector" d="M44.34 37L28.65 37C28.29 37 28 37.22 28 37.5C28 37.77 28.29 38 28.65 38L44.34 38C44.7 38 45 37.77 45 37.5C45 37.22 44.7 37 44.34 37Z" fill="#141414" fill-opacity="0.900000" fill-rule="nonzero"/>
	</g>
	<rect id="Container" rx="35.500000" width="71.000000" height="71.000000" transform="translate(0.500000 0.500000)" stroke="#141414" stroke-opacity="0.900000" stroke-width="1.000000"/>
</svg>
