<svg width="72" height="72.000000" viewBox="0 0 72 72" fill="none" xmlns="http://www.w3.org/2000/svg" xmlns:xlink="http://www.w3.org/1999/xlink">
	<desc>
			Created with Pixso.
	</desc>
	<defs>
		<clipPath id="clip21_1891">
			<rect id="free-icon-agent-4935682" rx="0.000000" width="35.929688" height="35.929688" transform="translate(18.035156 18.035156)" fill="white" fill-opacity="0"/>
		</clipPath>
		<clipPath id="clip21_1905">
			<rect id="free-icon-document-4248628" rx="0.000000" width="35.929688" height="35.929688" transform="translate(56.847656 18.035156)" fill="white" fill-opacity="0"/>
		</clipPath>
		<clipPath id="clip21_1908">
			<rect id="free-icon-recycling-3283519" rx="0.000000" width="35.929688" height="35.929688" transform="translate(56.847656 18.035156)" fill="white" fill-opacity="0"/>
		</clipPath>
		<clipPath id="clip21_1912">
			<rect id="free-icon-online-support-4935596" rx="0.000000" width="35.929688" height="35.929688" transform="translate(56.847656 18.035156)" fill="white" fill-opacity="0"/>
		</clipPath>
		<clipPath id="clip21_1919">
			<rect id="free-icon-no-money-4935270" rx="0.000000" width="35.929688" height="35.929688" transform="translate(18.035156 18.035156)" fill="white" fill-opacity="0"/>
		</clipPath>
		<clipPath id="clip21_1925">
			<rect id="free-icon-shield-6506912" rx="0.000000" width="35.929688" height="35.929688" transform="translate(18.035156 18.035156)" fill="white" fill-opacity="0"/>
		</clipPath>
		<clipPath id="clip21_1928">
			<rect id="Frame 6" rx="0.000000" width="24.750000" height="8.625000" transform="translate(28.968506 19.312500)" fill="white" fill-opacity="0"/>
		</clipPath>
		<clipPath id="clip21_1930">
			<rect id="free-icon-wheelbarrow-4591692" rx="0.000000" width="35.929688" height="35.929688" transform="translate(18.035156 18.035156)" fill="white" fill-opacity="0"/>
		</clipPath>
		<clipPath id="clip21_1935">
			<rect id="free-icon-pin-7452980" rx="0.000000" width="35.929688" height="35.929688" transform="translate(18.035156 18.035156)" fill="white" fill-opacity="0"/>
		</clipPath>
		<clipPath id="clip21_1949">
			<rect id="free-icon-time-is-money-6775873" rx="0.000000" width="35.929688" height="35.929688" transform="translate(18.035156 18.035156)" fill="white" fill-opacity="0"/>
		</clipPath>
		<clipPath id="clip21_1957">
			<rect id="free-icon-document-6777288" rx="0.000000" width="35.929688" height="35.929688" transform="translate(18.035156 18.035156)" fill="white" fill-opacity="0"/>
		</clipPath>
		<clipPath id="clip21_1962">
			<rect id="free-icon-shield-4779724" rx="0.000000" width="35.929688" height="35.929688" transform="translate(18.035156 18.035156)" fill="white" fill-opacity="0"/>
		</clipPath>
		<clipPath id="clip21_1987">
			<rect id="free-icon-file-604695" rx="0.000000" width="35.893486" height="35.893486" transform="translate(18.053257 18.053257)" fill="white" fill-opacity="0"/>
		</clipPath>
		<clipPath id="clip21_2007">
			<rect id="free-icon-file-604695" rx="0.000000" width="35.893486" height="35.893486" transform="translate(18.053257 18.053257)" fill="white" fill-opacity="0"/>
		</clipPath>
		<clipPath id="clip21_2012">
			<rect id="free-icon-calendar-4610861" rx="0.000000" width="35.929688" height="35.929688" transform="translate(2.222656 18.035156)" fill="white" fill-opacity="0"/>
		</clipPath>
		<clipPath id="clip21_2021">
			<rect id="free-icon-tractor-10583052" rx="0.000000" width="35.929688" height="35.929688" transform="translate(41.035156 18.035156)" fill="white" fill-opacity="0"/>
		</clipPath>
		<clipPath id="clip21_2029">
			<rect id="free-icon-toy-truck-4591186" rx="0.000000" width="35.929688" height="35.929688" transform="translate(79.847656 18.035156)" fill="white" fill-opacity="0"/>
		</clipPath>
	</defs>
	<rect id="free-icon-shield-4779724" rx="0.000000" width="35.929688" height="35.929688" transform="translate(18.035156 18.035156)" fill="#FFFFFF" fill-opacity="0"/>
	<g clip-path="url(#clip21_1962)">
		<path id="Vector" d="M30.57 22.05C30.27 21.91 29.91 22.03 29.77 22.33C28.5 24.87 26.28 26.81 23.5 27.78C23.28 27.86 23.12 28.05 23.1 28.28C22.13 37.59 27.85 45.25 36.2 49.92C36.38 50.02 36.61 50.02 36.79 49.92C45.13 45.26 50.85 37.59 49.89 28.28C49.87 28.05 49.71 27.86 49.49 27.78C46.71 26.81 44.49 24.87 43.22 22.33C43.12 22.12 42.91 22 42.68 22L34.82 22C34.49 22 34.22 22.26 34.22 22.58C34.22 22.91 34.49 23.17 34.82 23.17L42.31 23.17C43.68 25.72 45.93 27.69 48.72 28.76C49.39 36.65 44.95 43.89 36.5 48.72C28.04 43.89 23.6 36.65 24.27 28.76C27.18 27.64 29.51 25.55 30.85 22.84C31 22.55 30.87 22.2 30.57 22.05Z" fill="#141414" fill-opacity="0.900000" fill-rule="nonzero"/>
		<path id="Vector" d="M52.4 29.64C52.07 29.64 51.8 29.91 51.8 30.24C51.74 39.32 46.18 47.49 36.56 52.65C36.21 52.84 35.79 52.84 35.43 52.65C24.43 46.75 18.84 36.97 20.48 26.48C20.55 26 20.91 25.62 21.39 25.5C24.28 24.78 26.57 22.73 27.53 20.01C27.7 19.52 28.16 19.2 28.66 19.2L43.33 19.2C43.84 19.2 44.29 19.52 44.46 20.01C45.42 22.73 47.71 24.78 50.6 25.5C50.92 25.58 51.25 25.38 51.33 25.06C51.41 24.74 51.21 24.41 50.89 24.33C48.39 23.71 46.41 21.95 45.59 19.62C45.25 18.65 44.34 18 43.33 18L28.66 18C27.65 18 26.74 18.65 26.4 19.62C25.58 21.95 23.6 23.72 21.1 24.33C20.15 24.57 19.45 25.34 19.3 26.3C17.44 38.19 24.4 48.1 34.87 53.71C35.57 54.09 36.42 54.09 37.12 53.71C46.18 48.86 52.93 40.58 53 30.25C53 29.92 52.73 29.65 52.4 29.64Z" fill="#141414" fill-opacity="0.900000" fill-rule="nonzero"/>
		<path id="Vector" d="M32.22 34.2C32.45 33.97 32.45 33.59 32.22 33.36C31.99 33.12 31.61 33.12 31.37 33.36L30.52 34.2C29.82 34.9 29.82 36.03 30.52 36.73L34.29 40.47C35 41.17 36.13 41.17 36.84 40.47L43.47 33.89C44.17 33.19 44.17 32.06 43.47 31.36L42.62 30.52C41.91 29.82 40.78 29.82 40.07 30.52L35.57 34.99L35.03 34.46C34.79 34.23 34.41 34.23 34.18 34.46C33.94 34.69 33.94 35.07 34.18 35.3L35.14 36.26C35.38 36.49 35.76 36.49 35.99 36.26L40.92 31.36C41.16 31.13 41.54 31.13 41.77 31.36L42.62 32.21C42.85 32.44 42.85 32.82 42.62 33.05L35.99 39.63C35.76 39.86 35.38 39.86 35.14 39.63L31.37 35.89C31.14 35.65 31.14 35.28 31.37 35.04L32.22 34.2Z" fill="#EC483B" fill-opacity="1.000000" fill-rule="nonzero"/>
	</g>
	<rect id="Container" rx="35.500000" width="71.000000" height="71.000000" transform="translate(0.500000 0.500000)" stroke="#141414" stroke-opacity="0.900000" stroke-width="1.000000"/>
</svg>
