<svg width="72" height="72.000000" viewBox="0 0 72 72" fill="none" xmlns="http://www.w3.org/2000/svg" xmlns:xlink="http://www.w3.org/1999/xlink">
	<desc>
			Created with Pixso.
	</desc>
	<defs>
		<clipPath id="clip21_263">
			<rect id="free-icon-agent-4935682" rx="0.000000" width="35.929688" height="35.929688" transform="translate(18.035156 18.035156)" fill="white" fill-opacity="0"/>
		</clipPath>
		<clipPath id="clip21_277">
			<rect id="free-icon-document-4248628" rx="0.000000" width="35.929688" height="35.929688" transform="translate(56.847656 18.035156)" fill="white" fill-opacity="0"/>
		</clipPath>
		<clipPath id="clip21_280">
			<rect id="free-icon-recycling-3283519" rx="0.000000" width="35.929688" height="35.929688" transform="translate(56.847656 18.035156)" fill="white" fill-opacity="0"/>
		</clipPath>
		<clipPath id="clip21_284">
			<rect id="free-icon-online-support-4935596" rx="0.000000" width="35.929688" height="35.929688" transform="translate(56.847656 18.035156)" fill="white" fill-opacity="0"/>
		</clipPath>
		<clipPath id="clip21_291">
			<rect id="free-icon-no-money-4935270" rx="0.000000" width="35.929688" height="35.929688" transform="translate(18.035156 18.035156)" fill="white" fill-opacity="0"/>
		</clipPath>
		<clipPath id="clip21_297">
			<rect id="free-icon-shield-6506912" rx="0.000000" width="35.929688" height="35.929688" transform="translate(18.035156 18.035156)" fill="white" fill-opacity="0"/>
		</clipPath>
		<clipPath id="clip21_300">
			<rect id="Frame 6" rx="0.000000" width="24.750000" height="8.625000" transform="translate(28.968506 19.312500)" fill="white" fill-opacity="0"/>
		</clipPath>
		<clipPath id="clip21_302">
			<rect id="free-icon-wheelbarrow-4591692" rx="0.000000" width="35.929688" height="35.929688" transform="translate(18.035156 18.035156)" fill="white" fill-opacity="0"/>
		</clipPath>
		<clipPath id="clip21_307">
			<rect id="free-icon-pin-7452980" rx="0.000000" width="35.929688" height="35.929688" transform="translate(18.035156 18.035156)" fill="white" fill-opacity="0"/>
		</clipPath>
		<clipPath id="clip21_321">
			<rect id="free-icon-time-is-money-6775873" rx="0.000000" width="35.929688" height="35.929688" transform="translate(18.035156 18.035156)" fill="white" fill-opacity="0"/>
		</clipPath>
		<clipPath id="clip21_329">
			<rect id="free-icon-document-6777288" rx="0.000000" width="35.929688" height="35.929688" transform="translate(18.035156 18.035156)" fill="white" fill-opacity="0"/>
		</clipPath>
		<clipPath id="clip21_334">
			<rect id="free-icon-shield-4779724" rx="0.000000" width="35.929688" height="35.929688" transform="translate(18.035156 18.035156)" fill="white" fill-opacity="0"/>
		</clipPath>
		<clipPath id="clip21_359">
			<rect id="free-icon-file-604695" rx="0.000000" width="35.893486" height="35.893486" transform="translate(18.053257 18.053257)" fill="white" fill-opacity="0"/>
		</clipPath>
		<clipPath id="clip21_379">
			<rect id="free-icon-file-604695" rx="0.000000" width="35.893486" height="35.893486" transform="translate(18.053257 18.053257)" fill="white" fill-opacity="0"/>
		</clipPath>
		<clipPath id="clip21_384">
			<rect id="free-icon-calendar-4610861" rx="0.000000" width="35.929688" height="35.929688" transform="translate(2.222656 18.035156)" fill="white" fill-opacity="0"/>
		</clipPath>
		<clipPath id="clip21_393">
			<rect id="free-icon-tractor-10583052" rx="0.000000" width="35.929688" height="35.929688" transform="translate(41.035156 18.035156)" fill="white" fill-opacity="0"/>
		</clipPath>
		<clipPath id="clip21_401">
			<rect id="free-icon-toy-truck-4591186" rx="0.000000" width="35.929688" height="35.929688" transform="translate(79.847656 18.035156)" fill="white" fill-opacity="0"/>
		</clipPath>
	</defs>
	<rect id="free-icon-file-604695" rx="0.000000" width="35.893486" height="35.893486" transform="translate(18.053257 18.053257)" fill="#FFFFFF" fill-opacity="0"/>
	<g clip-path="url(#clip21_379)">
		<path id="Vector" d="M47.81 25.9L40.23 18.18C40.11 18.06 39.95 18 39.78 18L28.42 18C25.98 18 24 20.02 24 22.5L24 49.49C24 51.97 25.98 54 28.42 54L36 54C36.35 54 36.63 53.71 36.63 53.35C36.63 52.99 36.35 52.7 36 52.7L28.42 52.7C26.68 52.7 25.27 51.26 25.27 49.49L25.27 22.5C25.27 20.73 26.68 19.29 28.42 19.29L39.52 19.29L46.72 26.62L46.72 41.78C46.72 42.14 47.01 42.43 47.36 42.43C47.71 42.43 48 42.14 48 41.78L48 26.35C48 26.18 47.93 26.02 47.81 25.9Z" fill="#141414" fill-opacity="0.900000" fill-rule="nonzero"/>
		<path id="Vector" d="M47.35 25.7L43.5 25.7C41.73 25.7 40.29 24.26 40.29 22.5L40.29 18.64C40.29 18.28 40 18 39.64 18C39.28 18 39 18.28 39 18.64L39 22.5C39 24.98 41.01 27 43.5 27L47.35 27C47.71 27 48 26.71 48 26.35C48 25.99 47.71 25.7 47.35 25.7Z" fill="#141414" fill-opacity="0.900000" fill-rule="nonzero"/>
		<path id="Vector" d="M36.35 22L28.64 22C28.28 22 28 22.22 28 22.5C28 22.77 28.28 23 28.64 23L36.35 23C36.71 23 37 22.77 37 22.5C37 22.22 36.71 22 36.35 22Z" fill="#141414" fill-opacity="0.900000" fill-rule="nonzero"/>
		<path id="Vector" d="M44.34 30L28.65 30C28.29 30 28 30.22 28 30.5C28 30.77 28.29 31 28.65 31L44.34 31C44.7 31 45 30.77 45 30.5C45 30.22 44.7 30 44.34 30Z" fill="#141414" fill-opacity="0.900000" fill-rule="nonzero"/>
		<path id="Vector" d="M44.34 33L28.65 33C28.29 33 28 33.22 28 33.5C28 33.77 28.29 34 28.65 34L44.34 34C44.7 34 45 33.77 45 33.5C45 33.22 44.7 33 44.34 33Z" fill="#141414" fill-opacity="0.900000" fill-rule="nonzero"/>
		<path id="Vector" d="M44.34 37L28.65 37C28.29 37 28 37.22 28 37.5C28 37.77 28.29 38 28.65 38L44.34 38C44.7 38 45 37.77 45 37.5C45 37.22 44.7 37 44.34 37Z" fill="#141414" fill-opacity="0.900000" fill-rule="nonzero"/>
		<path id="Vector" d="M45.16 50.51C44.88 50.51 44.65 50.74 44.65 51.02C44.65 51.3 44.88 51.54 45.16 51.54L47.51 51.54C47.8 51.54 48.02 51.3 48.02 51.02C48.02 50.91 47.99 50.81 47.93 50.72L46.47 48.2L47.17 48.38C47.44 48.46 47.72 48.29 47.79 48.02C47.86 47.75 47.7 47.47 47.43 47.39L45.54 46.89C45.27 46.82 44.99 46.98 44.92 47.25L44.41 49.14C44.34 49.41 44.5 49.69 44.77 49.76C45.05 49.84 45.32 49.67 45.4 49.4L45.58 48.7L46.63 50.51L45.16 50.51ZM43.35 50.74L41.97 49.36C41.77 49.16 41.45 49.16 41.25 49.36C41.05 49.56 41.05 49.88 41.25 50.08L41.76 50.59L39.67 50.59L40.4 49.32C40.55 49.08 40.47 48.77 40.22 48.62C39.97 48.49 39.66 48.57 39.52 48.81L38.35 50.85C38.21 51.09 38.29 51.4 38.53 51.54C38.62 51.59 38.7 51.61 38.79 51.61L41.76 51.61L41.25 52.12C41.05 52.32 41.05 52.64 41.25 52.85C41.45 53.04 41.77 53.04 41.97 52.85L43.35 51.46C43.55 51.26 43.55 50.94 43.35 50.74ZM41.21 47.64L43.09 47.13C43.37 47.06 43.52 46.78 43.45 46.51C43.38 46.23 43.1 46.08 42.83 46.14L42.13 46.33L43.17 44.53L43.91 45.8C44.05 46.04 44.36 46.12 44.6 45.99C44.85 45.84 44.93 45.53 44.79 45.28L43.62 43.25C43.48 43 43.16 42.92 42.92 43.07C42.83 43.12 42.76 43.2 42.72 43.28L41.25 45.82L41.06 45.13C40.99 44.85 40.71 44.69 40.44 44.77C40.16 44.84 40 45.12 40.08 45.39L40.58 47.28L40.58 47.29L40.59 47.3L40.59 47.31L40.59 47.32L40.6 47.34L40.6 47.35L40.61 47.36L40.62 47.37L40.62 47.39L40.63 47.39L40.64 47.41L40.64 47.42L40.65 47.43L40.66 47.44L40.66 47.45L40.67 47.46L40.68 47.47L40.68 47.48L40.69 47.49L40.7 47.5L40.71 47.5L40.72 47.52L40.72 47.52L40.74 47.53L40.74 47.54L40.76 47.54L40.77 47.56L40.77 47.56L40.79 47.57L40.79 47.58L40.81 47.58L40.82 47.58L40.83 47.59L40.84 47.6L40.85 47.6L40.86 47.61L40.87 47.62L40.88 47.62L40.89 47.62L40.91 47.62L40.92 47.63L40.93 47.64L40.94 47.64L40.96 47.64L40.96 47.65L40.98 47.65L40.99 47.65L41 47.65L41.01 47.65L41.02 47.65L41.04 47.65L41.05 47.65L41.07 47.66L41.08 47.66L41.09 47.66L41.1 47.65L41.11 47.65L41.13 47.65L41.14 47.65L41.15 47.65L41.17 47.65L41.18 47.65L41.19 47.64L41.21 47.64Z" fill="#EC483B" fill-opacity="1.000000" fill-rule="nonzero"/>
	</g>
	<rect id="Container" rx="35.500000" width="71.000000" height="71.000000" transform="translate(0.500000 0.500000)" stroke="#141414" stroke-opacity="0.900000" stroke-width="1.000000"/>
</svg>
