<svg width="72" height="72.000000" viewBox="0 0 72 72" fill="none" xmlns="http://www.w3.org/2000/svg" xmlns:xlink="http://www.w3.org/1999/xlink">
	<desc>
			Created with Pixso.
	</desc>
	<defs>
		<clipPath id="clip21_2039">
			<rect id="free-icon-agent-4935682" rx="0.000000" width="35.929688" height="35.929688" transform="translate(18.035156 18.035156)" fill="white" fill-opacity="0"/>
		</clipPath>
		<clipPath id="clip21_2053">
			<rect id="free-icon-document-4248628" rx="0.000000" width="35.929688" height="35.929688" transform="translate(56.847656 18.035156)" fill="white" fill-opacity="0"/>
		</clipPath>
		<clipPath id="clip21_2056">
			<rect id="free-icon-recycling-3283519" rx="0.000000" width="35.929688" height="35.929688" transform="translate(56.847656 18.035156)" fill="white" fill-opacity="0"/>
		</clipPath>
		<clipPath id="clip21_2060">
			<rect id="free-icon-online-support-4935596" rx="0.000000" width="35.929688" height="35.929688" transform="translate(56.847656 18.035156)" fill="white" fill-opacity="0"/>
		</clipPath>
		<clipPath id="clip21_2067">
			<rect id="free-icon-no-money-4935270" rx="0.000000" width="35.929688" height="35.929688" transform="translate(18.035156 18.035156)" fill="white" fill-opacity="0"/>
		</clipPath>
		<clipPath id="clip21_2073">
			<rect id="free-icon-shield-6506912" rx="0.000000" width="35.929688" height="35.929688" transform="translate(18.035156 18.035156)" fill="white" fill-opacity="0"/>
		</clipPath>
		<clipPath id="clip21_2076">
			<rect id="Frame 6" rx="0.000000" width="24.750000" height="8.625000" transform="translate(28.968506 19.312500)" fill="white" fill-opacity="0"/>
		</clipPath>
		<clipPath id="clip21_2078">
			<rect id="free-icon-wheelbarrow-4591692" rx="0.000000" width="35.929688" height="35.929688" transform="translate(18.035156 18.035156)" fill="white" fill-opacity="0"/>
		</clipPath>
		<clipPath id="clip21_2083">
			<rect id="free-icon-pin-7452980" rx="0.000000" width="35.929688" height="35.929688" transform="translate(18.035156 18.035156)" fill="white" fill-opacity="0"/>
		</clipPath>
		<clipPath id="clip21_2097">
			<rect id="free-icon-time-is-money-6775873" rx="0.000000" width="35.929688" height="35.929688" transform="translate(18.035156 18.035156)" fill="white" fill-opacity="0"/>
		</clipPath>
		<clipPath id="clip21_2105">
			<rect id="free-icon-document-6777288" rx="0.000000" width="35.929688" height="35.929688" transform="translate(18.035156 18.035156)" fill="white" fill-opacity="0"/>
		</clipPath>
		<clipPath id="clip21_2110">
			<rect id="free-icon-shield-4779724" rx="0.000000" width="35.929688" height="35.929688" transform="translate(18.035156 18.035156)" fill="white" fill-opacity="0"/>
		</clipPath>
		<clipPath id="clip21_2135">
			<rect id="free-icon-file-604695" rx="0.000000" width="35.893486" height="35.893486" transform="translate(18.053257 18.053257)" fill="white" fill-opacity="0"/>
		</clipPath>
		<clipPath id="clip21_2155">
			<rect id="free-icon-file-604695" rx="0.000000" width="35.893486" height="35.893486" transform="translate(18.053257 18.053257)" fill="white" fill-opacity="0"/>
		</clipPath>
		<clipPath id="clip21_2160">
			<rect id="free-icon-calendar-4610861" rx="0.000000" width="35.929688" height="35.929688" transform="translate(2.222656 18.035156)" fill="white" fill-opacity="0"/>
		</clipPath>
		<clipPath id="clip21_2169">
			<rect id="free-icon-tractor-10583052" rx="0.000000" width="35.929688" height="35.929688" transform="translate(41.035156 18.035156)" fill="white" fill-opacity="0"/>
		</clipPath>
		<clipPath id="clip21_2177">
			<rect id="free-icon-toy-truck-4591186" rx="0.000000" width="35.929688" height="35.929688" transform="translate(79.847656 18.035156)" fill="white" fill-opacity="0"/>
		</clipPath>
	</defs>
	<rect id="free-icon-document-6777288" rx="0.000000" width="35.929688" height="35.929688" transform="translate(18.035156 18.035156)" fill="#FFFFFF" fill-opacity="0"/>
	<g clip-path="url(#clip21_2105)">
		<path id="Vector" d="M36.4 36L30.59 36C30.26 36 30 36.22 30 36.5C30 36.77 30.26 37 30.59 37L36.4 37C36.73 37 37 36.77 37 36.5C37 36.22 36.73 36 36.4 36Z" fill="#EC483B" fill-opacity="1.000000" fill-rule="nonzero"/>
		<path id="Vector" d="M33.4 30L27.59 30C27.26 30 27 30.22 27 30.5C27 30.77 27.26 31 27.59 31L33.4 31C33.73 31 34 30.77 34 30.5C34 30.22 33.73 30 33.4 30Z" fill="#EC483B" fill-opacity="1.000000" fill-rule="nonzero"/>
		<path id="Vector" d="M31.57 47C31.25 47 31 47.22 31 47.5C31 47.77 31.25 48 31.57 48L41.42 48C41.74 48 42 47.77 42 47.5C42 47.22 41.74 47 41.42 47L31.57 47Z" fill="#EC483B" fill-opacity="1.000000" fill-rule="nonzero"/>
		<path id="Vector" d="M45 42.5C45 42.22 44.72 42 44.39 42L33.6 42C33.27 42 33 42.22 33 42.5C33 42.77 33.27 43 33.6 43L44.39 43C44.72 43 45 42.77 45 42.5Z" fill="#EC483B" fill-opacity="1.000000" fill-rule="nonzero"/>
		<path id="Vector" d="M25.55 44.14C25.92 44.77 26.43 45.31 27.04 45.71L28.68 46.78C29.58 47.37 30.77 46.67 30.7 45.58C30.53 43.05 30.62 42.72 29.76 41.24C29.59 40.95 29.23 40.86 28.94 41.03L27.61 41.82C27.32 41.99 27.23 42.36 27.4 42.65C27.57 42.93 27.93 43.03 28.22 42.86L29.02 42.38C29.41 43.15 29.36 43.55 29.51 45.66C29.51 45.76 29.41 45.82 29.33 45.77L27.69 44.69C27.24 44.4 26.85 44 26.58 43.53L20.66 33.37L21.28 33.01C21.56 32.84 21.66 32.47 21.49 32.18C21.32 31.9 20.95 31.8 20.67 31.97L20.06 32.33L19.26 30.96C19.12 30.73 19.2 30.44 19.42 30.3L20.93 29.41C21.15 29.28 21.44 29.35 21.58 29.58L27.15 39.15C27.32 39.44 27.69 39.54 27.97 39.37C28.26 39.2 28.35 38.83 28.19 38.54L23.56 30.59L23.56 26.79L29.09 26.79C30.18 26.79 31.06 25.89 31.06 24.79L31.06 22.05C31.06 21.71 30.8 21.44 30.47 21.44C30.14 21.44 29.87 21.71 29.87 22.05L29.87 24.79C29.87 25.23 29.52 25.58 29.09 25.58L24.4 25.58L30.71 19.2L47.4 19.2C47.73 19.2 48 18.93 48 18.6C48 18.27 47.73 18 47.4 18L30.47 18C30.31 18 30.15 18.06 30.04 18.17L22.53 25.76C22.42 25.87 22.36 26.02 22.36 26.18L22.36 28.64C21.83 28.1 21 27.97 20.32 28.37L18.82 29.26C18.02 29.73 17.76 30.77 18.23 31.57C19.32 33.45 19.34 33.47 19.33 33.47C19.34 33.47 19.16 33.17 25.55 44.14Z" fill="#141414" fill-opacity="0.900000" fill-rule="nonzero"/>
		<path id="Vector" d="M50.96 21L38.54 21C36.87 21 35.51 22.34 35.51 23.99L35.51 32.45C35.51 34.1 36.87 35.45 38.54 35.45L48.18 35.45L48.18 52.02C48.18 52.45 47.83 52.8 47.4 52.8L24 52.8C23.56 52.8 23.21 52.45 23.21 52.02L23.21 42.6C23.21 42.27 22.94 42 22.6 42C22.27 42 22 42.27 22 42.6L22 52.02C22 53.11 22.89 54 24 54L47.4 54C48.5 54 49.4 53.11 49.4 52.02L49.4 35.45L50.96 35.45C52.63 35.45 54 34.1 54 32.45L54 23.99C54 22.34 52.63 21 50.96 21ZM52.78 32.45C52.78 33.44 51.96 34.25 50.96 34.25L38.54 34.25C37.54 34.25 36.72 33.44 36.72 32.45L36.72 27.64C37.73 28.33 39.74 28.98 41.49 29.62L38.27 31.3C37.97 31.46 37.86 31.82 38.01 32.11C38.17 32.41 38.54 32.52 38.83 32.36L43.02 30.17C43.23 30.25 43.44 30.33 43.67 30.42C44.37 30.68 45.14 30.68 45.84 30.42C46.06 30.33 46.27 30.25 46.48 30.17L50.67 32.36C50.96 32.52 51.33 32.41 51.49 32.11C51.65 31.82 51.53 31.46 51.24 31.3L48.01 29.62C49.34 29.14 50.37 28.77 51.18 28.44C51.49 28.32 51.64 27.97 51.51 27.66C51.38 27.35 51.03 27.21 50.72 27.33C49.55 27.81 47.78 28.4 45.4 29.3C44.98 29.46 44.52 29.46 44.1 29.3C37.96 26.98 36.72 26.94 36.72 25.3L36.72 23.99C36.72 23 37.54 22.19 38.54 22.19L50.96 22.19C51.96 22.19 52.78 23 52.78 23.99L52.78 32.45Z" fill="#141414" fill-opacity="0.900000" fill-rule="nonzero"/>
	</g>
	<rect id="Container" rx="35.500000" width="71.000000" height="71.000000" transform="translate(0.500000 0.500000)" stroke="#141414" stroke-opacity="0.900000" stroke-width="1.000000"/>
</svg>
