<svg width="96.000000" height="96.000000" viewBox="0 0 96 96" fill="none" xmlns="http://www.w3.org/2000/svg" xmlns:xlink="http://www.w3.org/1999/xlink">
	<desc>
			Created with Pixso.
	</desc>
	<defs/>
	<path id="Vector" d="M21.75 82.19C24.76 82.19 27.2 84.65 27.2 87.66C27.2 90.68 24.76 93.12 21.75 93.12C20.25 93.12 18.87 92.5 17.89 91.52C16.91 90.52 16.3 89.16 16.3 87.66C16.3 84.65 18.73 82.19 21.75 82.19ZM1.57 69.65L47.5 69.65C47.9 69.65 48.26 69.48 48.51 69.23L56.88 60.86C57.17 60.59 57.31 60.21 57.31 59.84L57.31 30.16C57.31 29.35 56.65 28.72 55.87 28.72L11.42 28.72C11.02 28.72 10.67 28.87 10.4 29.14L0.42 39.12C0.13 39.39 0 39.78 0 40.14L0 68.21C0 69.1 0.71 69.69 1.57 69.65ZM46.9 66.77L2.87 66.77L2.87 40.74L12.01 31.6L54.43 31.6L54.43 59.25L46.9 66.77ZM93.12 83.92L86.51 83.92C85.09 81.1 82.21 79.31 79.06 79.31C75.89 79.31 73.01 81.1 71.59 83.92L64.99 83.92C64.99 72.42 64.99 60.94 64.99 49.44L76.08 49.44C83.82 49.44 85.59 53.47 88.53 59.57C89.7 61.93 90.85 64.49 91.71 66.93C92.56 69.31 93.12 71.63 93.12 73.67L93.12 83.92ZM1.43 74.72C0.65 74.72 0 75.36 0 76.16L0 85.36C0 86.15 0.65 86.8 1.43 86.8L13.45 86.8C13.42 87.09 13.42 87.36 13.42 87.66C13.42 89.97 14.34 92.04 15.85 93.56C17.37 95.05 19.44 96 21.75 96C24.53 96 27.09 94.63 28.64 92.35C30.2 94.63 32.77 96 35.55 96C40.16 96 43.89 92.25 43.89 87.66C43.89 87.36 43.87 87.09 43.85 86.8C52.81 86.8 61.78 86.8 70.77 86.8C70.73 87.09 70.71 87.37 70.71 87.66C70.71 89.97 71.65 92.04 73.15 93.56C74.66 95.05 76.76 96 79.06 96C81.36 96 83.44 95.07 84.96 93.56C86.45 92.06 87.39 89.97 87.39 87.66C87.39 87.36 87.37 87.07 87.36 86.8L94.56 86.8C95.34 86.8 96 86.15 96 85.36L96 73.67C96 71.28 95.36 68.65 94.42 65.97C93.36 62.97 92.02 60.19 90.64 57.33C87.72 51.28 85.43 46.56 76.08 46.56L64.99 46.56L64.99 23.92L68.67 23.92C71.17 23.92 73.43 22.9 75.07 21.25C76.7 19.62 77.72 17.37 77.72 14.88L77.72 9.02C77.72 4.07 73.65 0 68.67 0L48 0C47.21 0 46.56 0.65 46.56 1.44L46.56 22.48C46.56 23.27 47.21 23.92 48 23.92L62.11 23.92L62.11 74.72L1.43 74.72ZM14.3 83.92L2.87 83.92L2.87 77.6L62.11 77.6L62.11 83.92L43 83.92C41.64 81.19 38.82 79.31 35.55 79.31C32.77 79.31 30.2 80.69 28.64 82.98C27.09 80.69 24.53 79.31 21.75 79.31C18.48 79.31 15.66 81.19 14.3 83.92ZM35.55 82.19C38.57 82.19 41.01 84.65 41.01 87.66C41.01 90.68 38.57 93.12 35.55 93.12C32.54 93.12 30.08 90.68 30.08 87.66C30.08 84.65 32.54 82.19 35.55 82.19ZM64.99 21.04L64.99 11.96C64.99 11.15 64.35 10.52 63.55 10.52C62.76 10.52 62.11 11.15 62.11 11.96L62.11 21.04L49.43 21.04L49.43 2.88L68.67 2.88C72.07 2.88 74.84 5.64 74.84 9.02L74.84 14.88C74.84 18.25 72.07 21.04 68.67 21.04L64.99 21.04ZM84.51 87.66C84.51 89.16 83.9 90.52 82.92 91.52C81.92 92.5 80.56 93.12 79.06 93.12C77.54 93.12 76.18 92.5 75.18 91.52C74.2 90.52 73.59 89.16 73.59 87.66C73.59 87.07 73.68 86.4 73.9 85.84C74.66 83.65 76.74 82.19 79.06 82.19C82.11 82.19 84.51 84.69 84.51 87.66Z" fill="#141414" fill-opacity="1.000000" fill-rule="nonzero"/>
	<path id="Vector" d="M84.99 69.65C86.01 69.65 86.7 68.64 86.34 67.69C85.09 63.89 83.48 60.72 81.65 57.21C80.56 55.06 78.62 54.16 76.28 54.16L71.15 54.16C70.34 54.16 69.71 54.79 69.71 55.6L69.71 68.21C69.71 69 70.34 69.65 71.15 69.65L84.99 69.65ZM82.98 66.77L72.57 66.77L72.57 57.02L76.28 57.02C77.52 57.02 78.5 57.36 79.1 58.52C80.5 61.24 81.9 63.89 82.98 66.77Z" fill="#141414" fill-opacity="1.000000" fill-rule="nonzero"/>
	<path id="Vector" d="M34.31 56.48C33.52 56.48 32.87 57.12 32.87 57.92C32.87 58.71 33.52 59.36 34.31 59.36L40.91 59.36C41.72 59.36 42.35 58.71 42.35 57.92C42.35 57.61 42.25 57.33 42.1 57.08L37.99 49.97L39.95 50.49C40.72 50.7 41.51 50.24 41.7 49.47C41.91 48.71 41.45 47.92 40.68 47.71L35.38 46.29C34.61 46.09 33.83 46.54 33.61 47.3L32.19 52.62C32 53.39 32.44 54.18 33.21 54.37C33.98 54.58 34.77 54.12 34.98 53.35L35.5 51.39L38.43 56.48L34.31 56.48ZM29.22 57.12L25.34 53.24C24.76 52.68 23.86 52.68 23.3 53.24C22.73 53.79 22.73 54.72 23.3 55.27L24.72 56.69L18.87 56.69L20.92 53.12C21.33 52.45 21.1 51.57 20.4 51.16C19.71 50.78 18.83 51.01 18.45 51.7L15.14 57.42C14.74 58.11 14.97 58.98 15.66 59.38C15.89 59.52 16.14 59.57 16.37 59.57L24.72 59.57L23.3 61.01C22.73 61.57 22.73 62.47 23.3 63.05C23.86 63.6 24.76 63.6 25.34 63.05L29.22 59.15C29.77 58.59 29.77 57.69 29.22 57.12ZM23.19 48.4L28.49 46.98C29.26 46.77 29.7 45.98 29.51 45.21C29.29 44.44 28.51 44 27.74 44.19L25.78 44.73L28.72 39.64L30.77 43.21C31.18 43.91 32.06 44.14 32.73 43.75C33.42 43.35 33.65 42.47 33.27 41.77L29.97 36.05C29.56 35.36 28.68 35.13 27.99 35.53C27.74 35.69 27.55 35.9 27.43 36.13L23.3 43.29L22.77 41.33C22.57 40.56 21.79 40.1 21.02 40.32C20.25 40.53 19.79 41.31 20 42.08L21.42 47.38L21.42 47.42L21.44 47.46L21.44 47.48L21.46 47.52L21.48 47.55L21.48 47.59L21.5 47.61L21.52 47.65L21.54 47.69L21.56 47.71L21.58 47.75L21.6 47.78L21.61 47.8L21.63 47.84L21.65 47.86L21.67 47.9L21.69 47.92L21.71 47.94L21.73 47.98L21.77 48L21.79 48.01L21.81 48.05L21.83 48.07L21.86 48.09L21.88 48.11L21.92 48.13L21.94 48.17L21.96 48.19L22 48.21L22.02 48.23L22.06 48.24L22.09 48.24L22.11 48.26L22.15 48.28L22.17 48.3L22.21 48.32L22.25 48.34L22.27 48.34L22.31 48.36L22.34 48.36L22.36 48.38L22.4 48.4L22.44 48.4L22.48 48.4L22.5 48.42L22.54 48.42L22.57 48.44L22.61 48.44L22.63 48.44L22.67 48.44L22.71 48.44L22.75 48.44L22.79 48.46L22.82 48.46L22.86 48.46L22.88 48.44L22.92 48.44L22.96 48.44L23 48.44L23.04 48.44L23.07 48.42L23.11 48.42L23.13 48.4L23.19 48.4Z" fill="#EC483B" fill-opacity="1.000000" fill-rule="nonzero"/>
</svg>
