<svg width="96.000000" height="95.998413" viewBox="0 0 96 95.9984" fill="none" xmlns="http://www.w3.org/2000/svg" xmlns:xlink="http://www.w3.org/1999/xlink">
	<desc>
			Created with Pixso.
	</desc>
	<defs/>
	<path id="Vector" d="M50.74 14.18L52.18 16.85L58.98 29.28L56.33 30.87C55.66 31.29 55.44 32.17 55.85 32.85C55.98 33.08 56.17 33.25 56.39 33.36L70.4 41.72C71.07 42.12 71.96 41.89 72.36 41.22C72.51 40.97 72.57 40.7 72.57 40.43L72.71 23.48C72.71 22.69 72.07 22.04 71.28 22.04C71.02 22.02 70.75 22.09 70.52 22.23L68 23.78L63.89 16.37C62.11 13.32 60.46 10.15 58.65 7.1C57.17 4.43 55.25 2.51 53.12 1.34C51.49 0.44 49.74 0 48 0C46.27 0 44.52 0.44 42.89 1.34C40.74 2.51 38.8 4.45 37.32 7.16L32.73 15.55L32.71 15.55L21.63 35.75C21.25 36.44 21.5 37.3 22.19 37.68L28.72 41.66C29.39 42.06 30.27 41.85 30.68 41.18L45.44 14.2C45.94 13.28 46.54 12.65 47.13 12.32C47.46 12.15 47.78 12.07 48.09 12.07C48.42 12.07 48.74 12.15 49.05 12.32C49.65 12.65 50.22 13.26 50.74 14.18ZM45.77 9.81C44.69 10.38 43.69 11.4 42.93 12.82L28.93 38.41L24.82 35.92L35.25 16.93L39.83 8.52C41.04 6.33 42.58 4.78 44.25 3.85C45.44 3.2 46.73 2.88 48 2.88C49.28 2.88 50.55 3.2 51.76 3.85C53.41 4.78 54.95 6.31 56.14 8.48C59.25 14.26 62.93 20.85 66.24 26.53C66.64 27.2 67.52 27.43 68.21 27.01L69.83 26.03L69.71 37.97L59.86 32.1L61.65 31C62.3 30.6 62.53 29.77 62.16 29.1L54.7 15.47L53.26 12.82C52.47 11.4 51.49 10.38 50.43 9.81C49.68 9.4 48.9 9.19 48.09 9.19C47.3 9.19 46.52 9.4 45.77 9.81Z" fill="#141414" fill-opacity="1.000000" fill-rule="nonzero"/>
	<path id="Vector" d="M44 80.48L43.87 80.48L14.53 80.5C13.67 80.5 12.96 80.33 12.42 80.02C12.01 79.81 11.71 79.52 11.5 79.16C11.28 78.81 11.17 78.37 11.17 77.89C11.17 77.18 11.4 76.37 11.88 75.51L14.53 70.69L14.57 70.61L20.02 60.63L22.56 62.16C23.25 62.59 24.13 62.38 24.53 61.68C24.69 61.44 24.76 61.15 24.74 60.86L24.59 43.92C24.59 43.12 23.94 42.48 23.15 42.48C22.88 42.5 22.63 42.56 22.42 42.7L8.39 51.07C7.69 51.47 7.48 52.35 7.89 53.04C8 53.26 8.17 53.41 8.37 53.52L11.02 55.14C8 60.71 4.8 66.41 1.95 72.05C0.61 74.53 0 77.03 0 79.37C0 81.56 0.53 83.63 1.57 85.4C2.61 87.18 4.1 88.66 6 89.72C7.87 90.73 10.13 91.31 12.67 91.31L21.86 91.31L44 91.35C44.79 91.35 45.44 90.7 45.44 89.91L45.44 81.92C45.44 81.13 44.79 80.48 44 80.48ZM42.56 88.47L21.86 88.45L12.67 88.45C10.63 88.45 8.85 87.99 7.37 87.18C5.95 86.41 4.83 85.3 4.05 83.96C3.28 82.63 2.87 81.06 2.87 79.37L2.86 79.37C2.86 77.49 3.37 75.47 4.47 73.44L4.53 73.34L9.48 63.97L14.16 55.37C14.57 54.7 14.36 53.81 13.68 53.39L11.9 52.32L21.75 46.44L21.84 58.38L20.17 57.36C19.48 56.98 18.62 57.23 18.24 57.94L12.05 69.23L12 69.31L9.36 74.11C8.63 75.43 8.31 76.72 8.31 77.89C8.31 78.89 8.56 79.81 9.02 80.6C9.48 81.4 10.15 82.08 11.04 82.56C11.98 83.07 13.17 83.36 14.53 83.36L42.56 83.36L42.56 88.47Z" fill="#141414" fill-opacity="1.000000" fill-rule="nonzero"/>
	<path id="Vector" d="M94 71.82L89.41 63.43L78.35 43.21C77.99 42.52 77.1 42.25 76.41 42.64L76.35 42.68L69.79 46.67C69.13 47.07 68.9 47.92 69.27 48.59L84.01 75.49C84.49 76.37 84.72 77.18 84.72 77.89C84.72 78.37 84.61 78.81 84.4 79.16C84.21 79.52 83.9 79.81 83.5 80.02C82.96 80.33 82.25 80.5 81.38 80.5L76.1 80.48L65.6 80.48L65.6 77.28C65.6 76.49 64.97 75.83 64.18 75.83C63.89 75.83 63.64 75.91 63.41 76.07L63.41 76.05L49.51 84.69C48.84 85.11 48.63 85.99 49.05 86.68C49.17 86.88 49.34 87.03 49.53 87.14L63.41 95.78C64.08 96.19 64.97 96 65.39 95.32C65.54 95.07 65.62 94.82 65.62 94.55L65.62 91.33C71.53 91.31 77.41 91.25 83.32 91.16C85.86 91.16 88.1 90.58 89.99 89.54C91.89 88.51 93.38 87.03 94.42 85.24C95.46 83.46 96 81.4 96 79.19C96 76.85 95.36 74.34 94 71.82ZM91.94 83.8C91.16 85.13 90.04 86.24 88.62 87.03C87.16 87.84 85.38 88.28 83.32 88.28L83.32 88.3L73.11 88.45L64.3 88.47L64.18 88.47C63.37 88.47 62.74 89.12 62.74 89.91L62.74 91.96L52.99 85.92L62.74 79.87L62.74 81.92C62.74 82.71 63.37 83.36 64.18 83.36L76.1 83.36L81.38 83.36C82.75 83.36 83.94 83.07 84.88 82.56C85.74 82.08 86.43 81.4 86.89 80.6C87.35 79.81 87.59 78.89 87.59 77.89C87.6 76.7 87.26 75.41 86.53 74.11L72.46 48.4L76.56 45.9L86.87 64.8L91.48 73.2C92.6 75.26 93.11 77.29 93.11 79.19C93.11 80.9 92.71 82.46 91.94 83.8Z" fill="#141414" fill-opacity="1.000000" fill-rule="nonzero"/>
	<path id="Vector" d="M65.56 64.3L65.56 48.3C65.56 47.95 65.43 47.62 65.21 47.37C65.2 47.36 65.2 47.35 65.19 47.35C65.17 47.32 65.14 47.29 65.12 47.27C65.11 47.26 65.1 47.25 65.09 47.24C65.06 47.22 65.04 47.2 65.01 47.17C65 47.17 65 47.17 64.99 47.16C64.89 47.09 64.79 47.02 64.67 46.97L48.63 39.03C48.24 38.84 47.78 38.82 47.36 39.03L31.32 46.97C30.8 47.19 30.43 47.71 30.43 48.3L30.43 64.3C30.43 64.65 30.56 64.98 30.78 65.23C30.79 65.24 30.79 65.25 30.8 65.25C30.82 65.28 30.85 65.3 30.87 65.33C30.88 65.34 30.89 65.35 30.9 65.36C30.93 65.38 30.95 65.4 30.98 65.42C30.99 65.43 30.99 65.43 31 65.44C31.1 65.51 31.2 65.58 31.32 65.63L47.36 73.59C47.75 73.76 48.21 73.78 48.63 73.59L64.67 65.63C64.79 65.58 64.89 65.51 64.99 65.44C65 65.43 65 65.43 65.01 65.42C65.04 65.4 65.06 65.38 65.09 65.36C65.1 65.35 65.11 65.34 65.12 65.33C65.14 65.3 65.17 65.28 65.19 65.25C65.2 65.25 65.2 65.24 65.21 65.23C65.43 64.98 65.56 64.65 65.56 64.3ZM46.55 69.98L33.31 63.41L33.31 50.62L46.55 57.19L46.55 69.98ZM48 54.7L35.11 48.3L48 41.91L55.43 45.6L60.88 48.3L48 54.7ZM49.43 57.19L62.68 50.62L62.68 63.41L49.43 69.98L49.43 57.19Z" fill="#EC483B" fill-opacity="1.000000" fill-rule="nonzero"/>
</svg>
