<svg width="95.998535" height="96.000000" viewBox="0 0 95.9985 96" fill="none" xmlns="http://www.w3.org/2000/svg" xmlns:xlink="http://www.w3.org/1999/xlink">
	<desc>
			Created with Pixso.
	</desc>
	<defs/>
	<path id="Vector" d="M14.07 57.11L2.88 57.11L2.88 93.11L14.07 93.11L14.07 57.11ZM95.99 58.77C96 59.56 95.36 60.2 94.56 60.21C93.77 60.21 93.13 59.57 93.12 58.78L93.13 2.88L71.37 2.88L71.37 17.93C71.37 18.73 70.73 19.37 69.93 19.37C69.52 19.37 69.15 19.2 68.89 18.92L61.68 11.72L54.45 18.95C53.89 19.51 52.98 19.51 52.42 18.95C52.14 18.67 52 18.3 52 17.93L52 2.88L30.53 2.88L30.53 53.56C30.53 54.36 29.88 55 29.09 55C28.29 55 27.65 54.36 27.65 53.56L27.65 1.44C27.65 0.64 28.29 0 29.09 0C34.52 0 94.56 -0.01 94.56 0C95.35 0 95.99 0.64 95.99 1.43L95.99 58.77ZM68.49 2.88L54.88 2.88L54.88 14.45L60.67 8.67C61.23 8.1 62.14 8.1 62.7 8.67L68.49 14.45L68.49 2.88ZM56.07 69.51L47.22 61.88L29.51 61.88L22.88 65.83C22.2 66.23 21.32 66.01 20.92 65.33C20.51 64.65 20.74 63.77 21.42 63.36L28.27 59.29C28.5 59.11 28.8 59 29.12 59L47.75 59.01C48.08 59.01 48.42 59.12 48.69 59.36L57.62 67.06L70.7 67.06C73.68 67.06 76.18 69.23 76.8 72.1L83.75 64.88C86.7 62.02 90.96 61.41 93.97 64.41C94.66 65.1 95.21 65.94 95.56 66.86C96.41 69.12 96.09 71.89 93.83 74.23L77.94 90.7C77.68 91.02 77.28 91.22 76.83 91.22L22.15 91.22C21.35 91.22 20.71 90.57 20.71 89.78C20.71 88.98 21.35 88.34 22.15 88.34L76.22 88.34L91.76 72.24C93.14 70.8 93.36 69.18 92.87 67.87C92.67 67.33 92.35 66.85 91.95 66.44C90.07 64.57 87.54 65.22 85.75 66.93C82.23 70.59 78.71 74.4 75.13 77.98C73.99 79.16 72.43 79.89 70.7 79.89L47.75 79.89C46.96 79.89 46.31 79.24 46.31 78.45C46.31 77.65 46.96 77.01 47.75 77.01L70.7 77.01C72.62 77.01 74.06 75.35 74.06 73.47C74.06 71.6 72.63 69.94 70.7 69.94L57.1 69.94C56.7 69.94 56.34 69.77 56.07 69.51ZM1.44 54.23L15.51 54.23C16.3 54.23 16.95 54.87 16.95 55.67L16.95 94.55C16.95 95.35 16.3 96 15.51 96L1.44 96C0.64 96 0 95.35 0 94.55L0 55.67C0 54.87 0.64 54.23 1.44 54.23Z" fill="#141414" fill-opacity="1.000000" fill-rule="nonzero"/>
	<path id="Vector" d="M56.95 42.48C57.75 42.48 58.4 43.13 58.4 43.93C58.4 44.73 57.75 45.39 56.95 45.39L51.23 45.39C50.43 45.39 49.78 44.73 49.78 43.93C49.78 43.62 49.87 43.34 50.03 43.12L53.33 37.39L52.13 37.72C51.36 37.92 50.56 37.46 50.35 36.69C50.15 35.91 50.61 35.12 51.38 34.91L55.96 33.69C56.08 33.66 56.24 33.63 56.36 33.63L56.4 33.63L56.43 33.65L56.47 33.65L56.5 33.65L56.54 33.66L56.57 33.66L56.61 33.67L56.64 33.67L56.68 33.68L56.71 33.69L56.74 33.69L56.74 33.7L56.78 33.7L56.81 33.71L56.84 33.72L56.88 33.75L56.91 33.76L56.94 33.77L56.97 33.78L57 33.8L57.03 33.81L57.06 33.84L57.09 33.85L57.12 33.87L57.15 33.89L57.18 33.9L57.21 33.93L57.24 33.95L57.26 33.97L57.29 33.99L57.32 34.02L57.34 34.04L57.37 34.06L57.39 34.09L57.42 34.12L57.44 34.14L57.46 34.17L57.48 34.2L57.5 34.23L57.52 34.25L57.54 34.28L57.56 34.32L57.58 34.34L57.6 34.37L57.62 34.41L57.63 34.44L57.65 34.48L57.67 34.51L57.68 34.54L57.69 34.58L57.71 34.61L57.72 34.64L57.73 34.68L57.74 34.71L57.74 34.73L58.97 39.29C59.17 40.07 58.71 40.86 57.94 41.08C57.17 41.28 56.37 40.82 56.16 40.04L55.84 38.84L53.74 42.48L56.95 42.48Z" fill="#EC483B" fill-opacity="1.000000" fill-rule="nonzero"/>
	<path id="Vector" d="M61.12 42.92L64.43 39.61C64.99 39.05 65.9 39.05 66.46 39.61C67.03 40.18 67.03 41.09 66.46 41.65L65.59 42.51L69.76 42.51L68.17 39.77C67.77 39.08 68.01 38.2 68.7 37.81C69.38 37.42 70.26 37.65 70.65 38.34L73.49 43.24C73.88 43.93 73.65 44.81 72.96 45.2C72.73 45.33 72.49 45.39 72.24 45.39L65.59 45.4L66.46 46.26C67.03 46.82 67.03 47.73 66.46 48.3C65.9 48.86 64.99 48.86 64.43 48.3L61.13 45C60.83 44.71 60.69 44.37 60.68 43.95C60.69 43.54 60.83 43.2 61.12 42.92Z" fill="#EC483B" fill-opacity="1.000000" fill-rule="nonzero"/>
	<path id="Vector" d="M66.51 35.91L61.93 34.68C61.15 34.48 60.69 33.68 60.9 32.9C61.11 32.13 61.9 31.67 62.68 31.88L63.88 32.2L61.78 28.56L60.18 31.33C59.77 32.03 58.89 32.26 58.2 31.86C57.5 31.47 57.27 30.58 57.67 29.89L60.52 24.93C60.93 24.25 61.81 24.01 62.5 24.41C62.74 24.54 62.92 24.73 63.04 24.95L66.39 30.75L66.71 29.55C66.92 28.77 67.71 28.31 68.49 28.53C69.26 28.73 69.72 29.53 69.51 30.3L68.29 34.88C68.08 35.65 67.28 36.11 66.51 35.91Z" fill="#EC483B" fill-opacity="1.000000" fill-rule="nonzero"/>
</svg>
