<svg width="96.000000" height="96.000000" viewBox="0 0 96 96" fill="none" xmlns="http://www.w3.org/2000/svg" xmlns:xlink="http://www.w3.org/1999/xlink">
	<desc>
			Created with Pixso.
	</desc>
	<defs/>
	<path id="Vector" d="M95.86 17.74C95.79 17.59 95.69 17.45 95.57 17.33L78.66 0.42C78.54 0.3 78.4 0.2 78.25 0.13C78.06 0.05 77.86 0 77.64 0L41.31 0C40.51 0 39.87 0.65 39.87 1.44L39.87 18.35C39.87 19.14 40.51 19.79 41.31 19.79C42.1 19.79 42.75 19.14 42.75 18.35L42.75 2.88L76.2 2.88L76.2 18.35C76.2 19.14 76.85 19.79 77.64 19.79L93.12 19.79L93.12 76.2L67.43 76.2C66.62 76.2 65.99 76.85 65.99 77.64C65.99 78.43 66.62 79.08 67.43 79.08L94.56 79.08C95.34 79.08 96 78.43 96 77.64L96 18.35C96 18.13 95.94 17.93 95.86 17.74ZM79.08 4.91L91.08 16.91L79.08 16.91L79.08 4.91Z" fill="#EC483B" fill-opacity="1.000000" fill-rule="nonzero"/>
	<path id="Vector" d="M67.43 16.91L14.16 16.91C13.38 16.91 12.72 17.56 12.72 18.35L12.72 80.39L1.43 80.39C0.65 80.39 0 81.02 0 81.83L0 88.18C0 90.33 0.88 92.29 2.28 93.71C3.7 95.11 5.66 96 7.81 96L61.05 96C63.2 96 65.16 95.11 66.56 93.71C67.98 92.29 68.87 90.33 68.87 88.18L68.87 18.35C68.87 17.56 68.21 16.91 67.43 16.91ZM2.87 88.18L2.87 83.27L14.16 83.27L53.24 83.27L53.24 88.18C53.24 90.05 53.9 91.76 55 93.12L7.81 93.12C6.45 93.12 5.22 92.56 4.32 91.68C3.43 90.77 2.87 89.54 2.87 88.18ZM65.99 88.18C65.99 89.54 65.43 90.77 64.53 91.68C63.64 92.56 62.41 93.12 61.05 93.12C59.71 93.12 58.46 92.56 57.58 91.68C56.67 90.77 56.12 89.54 56.12 88.18L56.12 81.83C56.12 81.02 55.48 80.39 54.68 80.39L15.6 80.39L15.6 19.79L65.99 19.79L65.99 88.18Z" fill="#141414" fill-opacity="1.000000" fill-rule="nonzero"/>
</svg>
