<svg width="96.000000" height="96.000000" viewBox="0 0 96 96" fill="none" xmlns="http://www.w3.org/2000/svg" xmlns:xlink="http://www.w3.org/1999/xlink">
	<desc>
			Created with Pixso.
	</desc>
	<defs>
		<clipPath id="clip3_464">
			<rect id="Frame" rx="0.000000" width="95.800003" height="13.800000" transform="translate(0.100000 65.099998)" fill="white" fill-opacity="0"/>
		</clipPath>
		<clipPath id="clip3_465">
			<rect id="free-icon-sand-4455265 1" rx="0.000000" width="95.812500" height="95.812500" transform="translate(0.093750 0.093750)" fill="white" fill-opacity="0"/>
		</clipPath>
	</defs>
	<rect id="free-icon-sand-4455265 1" rx="0.000000" width="95.812500" height="95.812500" transform="translate(0.093750 0.093750)" fill="#FFFFFF" fill-opacity="0"/>
	<g clip-path="url(#clip3_465)">
		<path id="Vector" d="M94.39 72.57C93.51 72.57 92.8 73.29 92.8 74.18C92.8 75.06 92.08 75.78 91.2 75.78L4.8 75.78C3.91 75.78 3.19 75.06 3.19 74.18L3.19 70.17C3.19 69.28 3.91 68.56 4.8 68.56C93.29 68.56 91.15 68.54 91.57 68.6C93.19 68.83 94.06 66.76 92.79 65.75C90.72 64.02 87.53 55.59 85.48 50.34C80.21 36.9 73.21 18.21 63.54 18.9C58.58 19.24 53.96 22.98 49.8 30.01C49.35 30.78 49.6 31.76 50.36 32.21C51.12 32.67 52.1 32.41 52.55 31.65C55.02 27.48 58.97 22.43 63.76 22.1C66.68 21.89 69.95 24.94 73.48 31.14C79.54 41.81 84.54 58.52 88.51 65.35L75.38 65.35C64.83 56.28 66 42.38 51.69 40.7C41.91 39.56 39.42 17.7 28.09 18C16.94 18.28 11.8 42.31 6.9 57.34C6.63 58.18 7.08 59.08 7.92 59.36C8.76 59.64 9.67 59.18 9.94 58.33C13.67 46.89 19.67 21.21 28.3 21.21C32.32 21.21 35.17 26.08 38.18 31.25C41.6 37.11 45.14 43.17 51.31 43.89C62.54 45.21 62.24 56.06 70.78 65.35L4.8 65.35C2.15 65.35 0 67.51 0 70.17L0 74.18C0 76.83 2.15 79 4.8 79L91.2 79C93.84 79 96 76.83 96 74.18C96 73.29 95.28 72.57 94.39 72.57Z" fill="#141414" fill-opacity="1.000000" fill-rule="nonzero"/>
		<path id="Vector" d="M21.02 48.77C20.34 48.2 19.33 48.29 18.77 48.97L17.77 50.17C16.89 51.22 17.66 52.8 18.99 52.8C19.45 52.8 19.91 52.6 20.22 52.22L21.22 51.02C21.79 50.34 21.7 49.33 21.02 48.77Z" fill="#141414" fill-opacity="1.000000" fill-rule="nonzero"/>
		<path id="Vector" d="M22.17 41.22C22.85 41.79 23.86 41.7 24.42 41.02L25.42 39.82C25.99 39.14 25.9 38.13 25.22 37.57C24.54 37 23.53 37.09 22.97 37.77L21.97 38.97C21.4 39.65 21.49 40.66 22.17 41.22Z" fill="#141414" fill-opacity="1.000000" fill-rule="nonzero"/>
		<path id="Vector" d="M28.59 50.2C29.05 50.2 29.51 50 29.82 49.62L30.82 48.42C31.39 47.74 31.3 46.73 30.62 46.17C29.94 45.6 28.93 45.69 28.37 46.37L27.37 47.57C26.49 48.62 27.26 50.2 28.59 50.2Z" fill="#141414" fill-opacity="1.000000" fill-rule="nonzero"/>
		<path id="Vector" d="M59.39 33.8C59.85 33.8 60.31 33.6 60.62 33.22L61.62 32.02C62.19 31.34 62.1 30.33 61.42 29.77C60.74 29.2 59.73 29.29 59.17 29.97L58.17 31.17C57.29 32.22 58.06 33.8 59.39 33.8Z" fill="#141414" fill-opacity="1.000000" fill-rule="nonzero"/>
		<path id="Vector" d="M64.79 40.4C65.25 40.4 65.71 40.2 66.02 39.82L67.02 38.62C67.59 37.94 67.5 36.93 66.82 36.37C66.14 35.8 65.13 35.89 64.57 36.57L63.57 37.77C62.69 38.82 63.46 40.4 64.79 40.4Z" fill="#141414" fill-opacity="1.000000" fill-rule="nonzero"/>
		<g clip-path="url(#clip3_464)">
			<path id="Vector" d="M94.39 72.57C93.51 72.57 92.8 73.29 92.8 74.18C92.8 75.06 92.08 75.78 91.2 75.78L4.8 75.78C3.91 75.78 3.19 75.06 3.19 74.18L3.19 70.17C3.19 69.28 3.91 68.56 4.8 68.56C93.29 68.56 91.15 68.54 91.57 68.6C93.19 68.83 94.06 66.76 92.79 65.75C90.72 64.02 87.53 55.59 85.48 50.34C80.21 36.9 73.21 18.21 63.54 18.9C58.58 19.24 53.96 22.98 49.8 30.01C49.35 30.78 49.6 31.76 50.36 32.21C51.12 32.67 52.1 32.41 52.55 31.65C55.02 27.48 58.97 22.43 63.76 22.1C66.68 21.89 69.95 24.94 73.48 31.14C79.54 41.81 84.54 58.52 88.51 65.35L75.38 65.35C64.83 56.28 66 42.38 51.69 40.7C41.91 39.56 39.42 17.7 28.09 18C16.94 18.28 11.8 42.31 6.9 57.34C6.63 58.18 7.08 59.08 7.92 59.36C8.76 59.64 9.67 59.18 9.94 58.33C13.67 46.89 19.67 21.21 28.3 21.21C32.32 21.21 35.17 26.08 38.18 31.25C41.6 37.11 45.14 43.17 51.31 43.89C62.54 45.21 62.24 56.06 70.78 65.35L4.8 65.35C2.15 65.35 0 67.51 0 70.17L0 74.18C0 76.83 2.15 79 4.8 79L91.2 79C93.84 79 96 76.83 96 74.18C96 73.29 95.28 72.57 94.39 72.57Z" fill="#EC483B" fill-opacity="1.000000" fill-rule="nonzero"/>
			<path id="Vector" d="M21.02 48.77C20.34 48.2 19.33 48.29 18.77 48.97L17.77 50.17C16.89 51.22 17.66 52.8 18.99 52.8C19.45 52.8 19.91 52.6 20.22 52.22L21.22 51.02C21.79 50.34 21.7 49.33 21.02 48.77Z" fill="#EC483B" fill-opacity="1.000000" fill-rule="nonzero"/>
			<path id="Vector" d="M22.17 41.22C22.85 41.79 23.86 41.7 24.42 41.02L25.42 39.82C25.99 39.14 25.9 38.13 25.22 37.57C24.54 37 23.53 37.09 22.97 37.77L21.97 38.97C21.4 39.65 21.49 40.66 22.17 41.22Z" fill="#EC483B" fill-opacity="1.000000" fill-rule="nonzero"/>
			<path id="Vector" d="M28.59 50.2C29.05 50.2 29.51 50 29.82 49.62L30.82 48.42C31.39 47.74 31.3 46.73 30.62 46.17C29.94 45.6 28.93 45.69 28.37 46.37L27.37 47.57C26.49 48.62 27.26 50.2 28.59 50.2Z" fill="#EC483B" fill-opacity="1.000000" fill-rule="nonzero"/>
			<path id="Vector" d="M59.39 33.8C59.85 33.8 60.31 33.6 60.62 33.22L61.62 32.02C62.19 31.34 62.1 30.33 61.42 29.77C60.74 29.2 59.73 29.29 59.17 29.97L58.17 31.17C57.29 32.22 58.06 33.8 59.39 33.8Z" fill="#EC483B" fill-opacity="1.000000" fill-rule="nonzero"/>
			<path id="Vector" d="M64.79 40.4C65.25 40.4 65.71 40.2 66.02 39.82L67.02 38.62C67.59 37.94 67.5 36.93 66.82 36.37C66.14 35.8 65.13 35.89 64.57 36.57L63.57 37.77C62.69 38.82 63.46 40.4 64.79 40.4Z" fill="#EC483B" fill-opacity="1.000000" fill-rule="nonzero"/>
		</g>
	</g>
</svg>
