<svg width="72" height="72.000000" viewBox="0 0 72 72" fill="none" xmlns="http://www.w3.org/2000/svg" xmlns:xlink="http://www.w3.org/1999/xlink">
	<desc>
			Created with Pixso.
	</desc>
	<defs>
		<clipPath id="clip21_2187">
			<rect id="free-icon-agent-4935682" rx="0.000000" width="35.929688" height="35.929688" transform="translate(18.035156 18.035156)" fill="white" fill-opacity="0"/>
		</clipPath>
		<clipPath id="clip21_2201">
			<rect id="free-icon-document-4248628" rx="0.000000" width="35.929688" height="35.929688" transform="translate(56.847656 18.035156)" fill="white" fill-opacity="0"/>
		</clipPath>
		<clipPath id="clip21_2204">
			<rect id="free-icon-recycling-3283519" rx="0.000000" width="35.929688" height="35.929688" transform="translate(56.847656 18.035156)" fill="white" fill-opacity="0"/>
		</clipPath>
		<clipPath id="clip21_2208">
			<rect id="free-icon-online-support-4935596" rx="0.000000" width="35.929688" height="35.929688" transform="translate(56.847656 18.035156)" fill="white" fill-opacity="0"/>
		</clipPath>
		<clipPath id="clip21_2215">
			<rect id="free-icon-no-money-4935270" rx="0.000000" width="35.929688" height="35.929688" transform="translate(18.035156 18.035156)" fill="white" fill-opacity="0"/>
		</clipPath>
		<clipPath id="clip21_2221">
			<rect id="free-icon-shield-6506912" rx="0.000000" width="35.929688" height="35.929688" transform="translate(18.035156 18.035156)" fill="white" fill-opacity="0"/>
		</clipPath>
		<clipPath id="clip21_2224">
			<rect id="Frame 6" rx="0.000000" width="24.750000" height="8.625000" transform="translate(28.968506 19.312500)" fill="white" fill-opacity="0"/>
		</clipPath>
		<clipPath id="clip21_2226">
			<rect id="free-icon-wheelbarrow-4591692" rx="0.000000" width="35.929688" height="35.929688" transform="translate(18.035156 18.035156)" fill="white" fill-opacity="0"/>
		</clipPath>
		<clipPath id="clip21_2231">
			<rect id="free-icon-pin-7452980" rx="0.000000" width="35.929688" height="35.929688" transform="translate(18.035156 18.035156)" fill="white" fill-opacity="0"/>
		</clipPath>
		<clipPath id="clip21_2245">
			<rect id="free-icon-time-is-money-6775873" rx="0.000000" width="35.929688" height="35.929688" transform="translate(18.035156 18.035156)" fill="white" fill-opacity="0"/>
		</clipPath>
		<clipPath id="clip21_2253">
			<rect id="free-icon-document-6777288" rx="0.000000" width="35.929688" height="35.929688" transform="translate(18.035156 18.035156)" fill="white" fill-opacity="0"/>
		</clipPath>
		<clipPath id="clip21_2258">
			<rect id="free-icon-shield-4779724" rx="0.000000" width="35.929688" height="35.929688" transform="translate(18.035156 18.035156)" fill="white" fill-opacity="0"/>
		</clipPath>
		<clipPath id="clip21_2283">
			<rect id="free-icon-file-604695" rx="0.000000" width="35.893486" height="35.893486" transform="translate(18.053257 18.053257)" fill="white" fill-opacity="0"/>
		</clipPath>
		<clipPath id="clip21_2303">
			<rect id="free-icon-file-604695" rx="0.000000" width="35.893486" height="35.893486" transform="translate(18.053257 18.053257)" fill="white" fill-opacity="0"/>
		</clipPath>
		<clipPath id="clip21_2308">
			<rect id="free-icon-calendar-4610861" rx="0.000000" width="35.929688" height="35.929688" transform="translate(2.222656 18.035156)" fill="white" fill-opacity="0"/>
		</clipPath>
		<clipPath id="clip21_2317">
			<rect id="free-icon-tractor-10583052" rx="0.000000" width="35.929688" height="35.929688" transform="translate(41.035156 18.035156)" fill="white" fill-opacity="0"/>
		</clipPath>
		<clipPath id="clip21_2325">
			<rect id="free-icon-toy-truck-4591186" rx="0.000000" width="35.929688" height="35.929688" transform="translate(79.847656 18.035156)" fill="white" fill-opacity="0"/>
		</clipPath>
	</defs>
	<rect id="free-icon-wheelbarrow-4591692" rx="0.000000" width="35.929688" height="35.929688" transform="translate(18.035156 18.035156)" fill="#FFFFFF" fill-opacity="0"/>
	<g clip-path="url(#clip21_2226)">
		<path id="Vector" d="M48.75 42.35C46.69 42.35 44.84 43.54 43.99 45.38L28.28 40.1C28.19 31.97 28.21 32.51 28.16 32.37C28.07 32.13 27.84 31.97 27.6 31.97C27.26 31.97 27 31.7 27 31.37L27 30.02C27 29.69 27.26 29.42 27.6 29.42L51.82 29.42C52.15 29.42 52.42 29.69 52.42 30.02L52.42 31.37C52.42 31.7 52.15 31.97 51.82 31.97L30.72 31.97C30.39 31.97 30.12 32.24 30.12 32.58C30.12 32.91 30.39 33.18 30.72 33.18L51 33.18L51 33.97C51 34.83 50.63 35.64 50 36.21L43.41 42.15C43.17 42.37 43.15 42.75 43.37 43C43.59 43.25 43.97 43.27 44.22 43.05L50.8 37.1C51.69 36.31 52.2 35.17 52.2 33.97L52.2 33.14C53.01 32.96 53.62 32.24 53.62 31.37L53.62 30.02C53.62 29.02 52.81 28.22 51.82 28.22L37.86 28.22C37.69 27.48 38.25 26.79 39.33 26.94C39.65 26.99 39.96 26.76 40.01 26.44C40.12 25.71 40.89 25.13 41.89 25.32C42.21 25.38 42.53 25.16 42.59 24.83C42.64 24.51 42.43 24.19 42.1 24.13C40.64 23.87 39.4 24.63 38.97 25.72C37.43 25.76 36.5 26.94 36.65 28.22L30.08 28.22C29.89 26.05 32.02 24.39 33.92 25.36C34.26 25.53 34.66 25.35 34.77 24.99C35.58 22.2 37.97 20.32 40.73 20.32C43.59 20.32 46.08 22.38 46.77 25.33C46.87 25.76 47.38 25.94 47.72 25.67C48.19 25.31 48.71 25.17 49.24 25.27C49.82 25.38 50.36 25.77 50.68 26.32C50.85 26.61 51.22 26.7 51.5 26.53C51.79 26.36 51.88 25.99 51.71 25.71C50.9 24.34 49.25 23.63 47.72 24.29C46.67 21.21 43.89 19.12 40.73 19.12C37.58 19.12 34.93 21.16 33.83 24.03C31.29 23.28 28.69 25.39 28.87 28.22L27.6 28.22C26.6 28.22 25.8 29.02 25.8 30.02L25.8 31.37C25.8 32.16 26.3 32.83 27 33.07L27.07 39.69L24.47 38.82C23.8 38.59 23.32 37.98 23.25 37.27L22.49 28.75C22.38 27.5 21.35 26.56 20.1 26.56L18.6 26.56C18.26 26.56 18 26.83 18 27.16C18 27.5 18.26 27.76 18.6 27.76L20.1 27.76C20.72 27.76 21.24 28.24 21.29 28.86L22.06 37.38C22.16 38.57 22.96 39.58 24.09 39.96L30.41 42.08L26.74 48.24C26.29 48.99 25.24 49.11 24.64 48.47C24.39 48.19 24.26 47.84 24.29 47.47L24.66 42.24C24.68 41.91 24.43 41.62 24.1 41.59C23.77 41.57 23.49 41.82 23.46 42.15L23.09 47.39C23.04 48.08 23.29 48.77 23.76 49.29C24.91 50.52 26.92 50.29 27.77 48.86L31.57 42.47L48.55 48.18C48.87 48.28 49.21 48.11 49.31 47.8C49.42 47.48 49.25 47.14 48.94 47.04L47.95 46.71C48.72 46.03 49.95 46.57 49.95 47.61C49.95 48.35 49.27 48.93 48.53 48.79C48.2 48.73 47.89 48.95 47.83 49.28C47.77 49.6 47.99 49.92 48.32 49.98C49.78 50.24 51.14 49.11 51.14 47.61C51.14 46.28 50.07 45.2 48.75 45.2C47.92 45.2 47.17 45.63 46.73 46.3L45.14 45.76C45.82 44.42 47.2 43.55 48.75 43.55C50.98 43.55 52.8 45.37 52.8 47.61C52.8 49.85 50.98 51.67 48.75 51.67C46.88 51.67 45.26 50.4 44.81 48.58C44.73 48.26 44.41 48.06 44.09 48.14C43.76 48.22 43.57 48.55 43.65 48.87C44.23 51.23 46.32 52.87 48.75 52.87C51.64 52.87 54 50.51 54 47.61C54 44.71 51.64 42.35 48.75 42.35Z" fill="#141414" fill-opacity="0.900000" fill-rule="nonzero"/>
		<g clip-path="url(#clip21_2224)">
			<path id="Vector" d="M48.74 42.35C46.69 42.35 44.84 43.54 43.99 45.38L28.28 40.1C28.19 31.97 28.21 32.51 28.16 32.37C28.07 32.13 27.84 31.97 27.59 31.97C27.26 31.97 26.99 31.7 26.99 31.37L26.99 30.02C26.99 29.69 27.26 29.42 27.59 29.42L51.82 29.42C52.15 29.42 52.42 29.69 52.42 30.02L52.42 31.37C52.42 31.7 52.15 31.97 51.82 31.97L30.72 31.97C30.39 31.97 30.12 32.24 30.12 32.58C30.12 32.91 30.39 33.18 30.72 33.18L50.99 33.18L50.99 33.97C50.99 34.83 50.63 35.64 50 36.21L43.41 42.15C43.17 42.37 43.15 42.75 43.37 43C43.59 43.25 43.97 43.27 44.22 43.05L50.8 37.1C51.69 36.31 52.19 35.17 52.19 33.97L52.19 33.14C53.01 32.96 53.62 32.24 53.62 31.37L53.62 30.02C53.62 29.02 52.81 28.22 51.82 28.22L37.86 28.22C37.69 27.48 38.25 26.79 39.33 26.94C39.65 26.99 39.96 26.76 40.01 26.44C40.12 25.71 40.89 25.13 41.89 25.32C42.21 25.38 42.53 25.16 42.59 24.83C42.64 24.51 42.43 24.19 42.1 24.13C40.64 23.87 39.4 24.63 38.97 25.72C37.43 25.76 36.5 26.94 36.65 28.22L30.08 28.22C29.89 26.05 32.02 24.39 33.92 25.36C34.26 25.53 34.66 25.35 34.77 24.99C35.58 22.2 37.97 20.32 40.73 20.32C43.59 20.32 46.08 22.38 46.77 25.33C46.87 25.76 47.38 25.94 47.72 25.67C48.19 25.31 48.71 25.17 49.24 25.27C49.82 25.38 50.36 25.77 50.68 26.32C50.85 26.61 51.22 26.7 51.5 26.53C51.79 26.36 51.88 25.99 51.71 25.71C50.9 24.34 49.25 23.63 47.72 24.29C46.67 21.21 43.89 19.12 40.73 19.12C37.58 19.12 34.93 21.16 33.83 24.03C31.29 23.28 28.69 25.39 28.87 28.22L27.59 28.22C26.6 28.22 25.79 29.02 25.79 30.02L25.79 31.37C25.79 32.16 26.3 32.83 27 33.07L27.07 39.69L24.47 38.82C23.8 38.59 23.32 37.98 23.25 37.27L22.49 28.75C22.38 27.5 21.35 26.56 20.1 26.56L18.59 26.56C18.26 26.56 17.99 26.83 17.99 27.16C17.99 27.5 18.26 27.76 18.59 27.76L20.1 27.76C20.72 27.76 21.24 28.24 21.29 28.86L22.06 37.38C22.16 38.57 22.96 39.58 24.09 39.96L30.41 42.08L26.74 48.24C26.29 48.99 25.24 49.11 24.64 48.47C24.39 48.19 24.26 47.84 24.29 47.47L24.66 42.24C24.68 41.91 24.43 41.62 24.1 41.59C23.77 41.57 23.48 41.82 23.46 42.15L23.09 47.39C23.04 48.08 23.29 48.77 23.76 49.29C24.91 50.52 26.92 50.29 27.77 48.86L31.57 42.47L48.55 48.18C48.87 48.28 49.21 48.11 49.31 47.8C49.42 47.48 49.25 47.14 48.94 47.04L47.95 46.71C48.72 46.03 49.94 46.57 49.94 47.61C49.94 48.35 49.27 48.93 48.53 48.79C48.2 48.73 47.89 48.95 47.83 49.28C47.77 49.6 47.99 49.92 48.32 49.98C49.78 50.24 51.14 49.11 51.14 47.61C51.14 46.28 50.07 45.2 48.74 45.2C47.92 45.2 47.17 45.63 46.73 46.3L45.14 45.76C45.82 44.42 47.2 43.55 48.74 43.55C50.98 43.55 52.79 45.37 52.79 47.61C52.79 49.85 50.98 51.67 48.74 51.67C46.88 51.67 45.26 50.4 44.81 48.58C44.73 48.26 44.41 48.06 44.09 48.14C43.76 48.22 43.57 48.55 43.65 48.87C44.23 51.23 46.32 52.87 48.74 52.87C51.64 52.87 53.99 50.51 53.99 47.61C53.99 44.71 51.64 42.35 48.74 42.35Z" fill="#EC483B" fill-opacity="1.000000" fill-rule="nonzero"/>
		</g>
	</g>
	<rect id="Container" rx="35.500000" width="71.000000" height="71.000000" transform="translate(0.500000 0.500000)" stroke="#141414" stroke-opacity="1.000000" stroke-width="1.000000"/>
</svg>
