<svg width="72" height="72.000000" viewBox="0 0 72 72" fill="none" xmlns="http://www.w3.org/2000/svg" xmlns:xlink="http://www.w3.org/1999/xlink">
	<desc>
			Created with Pixso.
	</desc>
	<defs>
		<clipPath id="clip21_2335">
			<rect id="free-icon-agent-4935682" rx="0.000000" width="35.929688" height="35.929688" transform="translate(18.035156 18.035156)" fill="white" fill-opacity="0"/>
		</clipPath>
		<clipPath id="clip21_2349">
			<rect id="free-icon-document-4248628" rx="0.000000" width="35.929688" height="35.929688" transform="translate(56.847656 18.035156)" fill="white" fill-opacity="0"/>
		</clipPath>
		<clipPath id="clip21_2352">
			<rect id="free-icon-recycling-3283519" rx="0.000000" width="35.929688" height="35.929688" transform="translate(56.847656 18.035156)" fill="white" fill-opacity="0"/>
		</clipPath>
		<clipPath id="clip21_2356">
			<rect id="free-icon-online-support-4935596" rx="0.000000" width="35.929688" height="35.929688" transform="translate(56.847656 18.035156)" fill="white" fill-opacity="0"/>
		</clipPath>
		<clipPath id="clip21_2363">
			<rect id="free-icon-no-money-4935270" rx="0.000000" width="35.929688" height="35.929688" transform="translate(18.035156 18.035156)" fill="white" fill-opacity="0"/>
		</clipPath>
		<clipPath id="clip21_2369">
			<rect id="free-icon-shield-6506912" rx="0.000000" width="35.929688" height="35.929688" transform="translate(18.035156 18.035156)" fill="white" fill-opacity="0"/>
		</clipPath>
		<clipPath id="clip21_2372">
			<rect id="Frame 6" rx="0.000000" width="24.750000" height="8.625000" transform="translate(28.968506 19.312500)" fill="white" fill-opacity="0"/>
		</clipPath>
		<clipPath id="clip21_2374">
			<rect id="free-icon-wheelbarrow-4591692" rx="0.000000" width="35.929688" height="35.929688" transform="translate(18.035156 18.035156)" fill="white" fill-opacity="0"/>
		</clipPath>
		<clipPath id="clip21_2379">
			<rect id="free-icon-pin-7452980" rx="0.000000" width="35.929688" height="35.929688" transform="translate(18.035156 18.035156)" fill="white" fill-opacity="0"/>
		</clipPath>
		<clipPath id="clip21_2393">
			<rect id="free-icon-time-is-money-6775873" rx="0.000000" width="35.929688" height="35.929688" transform="translate(18.035156 18.035156)" fill="white" fill-opacity="0"/>
		</clipPath>
		<clipPath id="clip21_2401">
			<rect id="free-icon-document-6777288" rx="0.000000" width="35.929688" height="35.929688" transform="translate(18.035156 18.035156)" fill="white" fill-opacity="0"/>
		</clipPath>
		<clipPath id="clip21_2406">
			<rect id="free-icon-shield-4779724" rx="0.000000" width="35.929688" height="35.929688" transform="translate(18.035156 18.035156)" fill="white" fill-opacity="0"/>
		</clipPath>
		<clipPath id="clip21_2431">
			<rect id="free-icon-file-604695" rx="0.000000" width="35.893486" height="35.893486" transform="translate(18.053257 18.053257)" fill="white" fill-opacity="0"/>
		</clipPath>
		<clipPath id="clip21_2451">
			<rect id="free-icon-file-604695" rx="0.000000" width="35.893486" height="35.893486" transform="translate(18.053257 18.053257)" fill="white" fill-opacity="0"/>
		</clipPath>
		<clipPath id="clip21_2456">
			<rect id="free-icon-calendar-4610861" rx="0.000000" width="35.929688" height="35.929688" transform="translate(2.222656 18.035156)" fill="white" fill-opacity="0"/>
		</clipPath>
		<clipPath id="clip21_2465">
			<rect id="free-icon-tractor-10583052" rx="0.000000" width="35.929688" height="35.929688" transform="translate(41.035156 18.035156)" fill="white" fill-opacity="0"/>
		</clipPath>
		<clipPath id="clip21_2473">
			<rect id="free-icon-toy-truck-4591186" rx="0.000000" width="35.929688" height="35.929688" transform="translate(79.847656 18.035156)" fill="white" fill-opacity="0"/>
		</clipPath>
	</defs>
	<rect id="free-icon-pin-7452980" rx="0.000000" width="35.929688" height="35.929688" transform="translate(18.035156 18.035156)" fill="#FFFFFF" fill-opacity="0"/>
	<g clip-path="url(#clip21_2379)">
		<path id="Vector" d="M46.43 47.12L39.4 44.44C42.37 39.53 48.33 38.8 48.33 30.33C48.33 23.53 42.79 18 36 18C29.2 18 23.66 23.53 23.66 30.33C23.66 36.73 27.18 38.75 30.07 41.43C30.31 41.65 30.69 41.64 30.92 41.39C31.14 41.15 31.13 40.77 30.88 40.55C27.86 37.75 24.87 36.14 24.87 30.33C24.87 24.19 29.86 19.2 36 19.2C42.13 19.2 47.12 24.19 47.12 30.33C47.12 39.88 38.9 38.51 36.85 47.66C36.64 48.59 35.35 48.59 35.14 47.66C34.79 46.11 34.11 44.43 33.11 43.02C32.92 42.75 32.54 42.68 32.27 42.87C32 43.07 31.94 43.44 32.13 43.71C32.3 43.95 32.46 44.19 32.6 44.43L25.56 47.12C24.14 47.66 24.14 49.66 25.56 50.2L35.03 53.82C35.65 54.05 36.34 54.05 36.96 53.82L43.01 51.51C43.52 51.31 43.52 50.58 43.01 50.39L40.47 49.42C40.16 49.3 39.81 49.46 39.69 49.77C39.57 50.08 39.73 50.42 40.04 50.54L41.11 50.95L36.53 52.7C36.18 52.83 35.81 52.83 35.46 52.7L30.88 50.95L32.28 50.42C32.59 50.3 32.75 49.95 32.63 49.64C32.51 49.33 32.16 49.17 31.85 49.29L29.2 50.31L25.99 49.08C25.6 48.93 25.6 48.39 25.99 48.24L30 46.71L31.68 47.35C31.99 47.47 32.34 47.32 32.46 47.01C32.57 46.7 32.42 46.35 32.11 46.23L31.68 46.07L33.16 45.5C33.51 46.25 33.77 47.05 33.97 47.92C34.45 50.1 37.54 50.1 38.03 47.92C38.23 47.01 38.5 46.22 38.83 45.5L40.31 46.07L40.12 46.14C39.81 46.26 39.65 46.61 39.77 46.92C39.89 47.23 40.24 47.38 40.55 47.26L41.99 46.71L46 48.24C46.39 48.39 46.39 48.93 46 49.08L45.45 49.29C45.14 49.41 44.98 49.76 45.1 50.07C45.22 50.38 45.57 50.53 45.88 50.42L46.43 50.2C47.85 49.66 47.85 47.66 46.43 47.12Z" fill="#141414" fill-opacity="0.900000" fill-rule="nonzero"/>
		<path id="Vector" d="M42.95 34.62C43.24 34.77 43.6 34.65 43.76 34.36C46.76 28.57 42.54 21.6 36 21.6C31.18 21.6 27.26 25.52 27.26 30.34C27.26 35.16 31.18 39.08 36 39.08C37.86 39.08 39.65 38.5 41.15 37.4C41.42 37.2 41.48 36.83 41.28 36.56C41.09 36.29 40.71 36.23 40.44 36.43C39.15 37.38 37.61 37.88 36 37.88C31.84 37.88 28.46 34.5 28.46 30.34C28.46 26.19 31.84 22.8 36 22.8C41.65 22.8 45.27 28.83 42.69 33.81C42.54 34.1 42.65 34.46 42.95 34.62Z" fill="#FF4637" fill-opacity="1.000000" fill-rule="nonzero"/>
		<path id="Vector" d="M32.05 30.24C31.72 30.24 31.45 30.51 31.45 30.84L31.45 32.62C31.45 32.83 31.57 33.03 31.75 33.14C36.07 35.63 35.73 35.44 35.83 35.47C35.99 35.52 36.16 35.49 36.3 35.42L40.24 33.14C40.42 33.03 40.54 32.83 40.54 32.62L40.54 28.07C40.54 27.85 40.42 27.65 40.24 27.55L36.3 25.27C36.11 25.16 35.88 25.16 35.69 25.27L31.75 27.55C31.35 27.78 31.35 28.35 31.75 28.59L35.39 30.69L35.39 33.85L32.65 32.27L32.65 30.84C32.65 30.51 32.38 30.24 32.05 30.24ZM36 26.48L39.34 28.41L39.34 32.27L36.6 33.85L36.6 30.69L37.77 30.01C38.06 29.84 38.16 29.48 37.99 29.19C37.83 28.9 37.46 28.8 37.17 28.97L36 29.65L33.25 28.07L36 26.48Z" fill="#FF4637" fill-opacity="1.000000" fill-rule="nonzero"/>
	</g>
	<rect id="Container" rx="35.500000" width="71.000000" height="71.000000" transform="translate(0.500000 0.500000)" stroke="#141414" stroke-opacity="1.000000" stroke-width="1.000000"/>
</svg>
