<svg width="72" height="72.000000" viewBox="0 0 72 72" fill="none" xmlns="http://www.w3.org/2000/svg" xmlns:xlink="http://www.w3.org/1999/xlink">
	<desc>
			Created with Pixso.
	</desc>
	<defs>
		<clipPath id="clip21_2631">
			<rect id="free-icon-agent-4935682" rx="0.000000" width="35.929688" height="35.929688" transform="translate(18.035156 18.035156)" fill="white" fill-opacity="0"/>
		</clipPath>
		<clipPath id="clip21_2645">
			<rect id="free-icon-document-4248628" rx="0.000000" width="35.929688" height="35.929688" transform="translate(56.847656 18.035156)" fill="white" fill-opacity="0"/>
		</clipPath>
		<clipPath id="clip21_2648">
			<rect id="free-icon-recycling-3283519" rx="0.000000" width="35.929688" height="35.929688" transform="translate(56.847656 18.035156)" fill="white" fill-opacity="0"/>
		</clipPath>
		<clipPath id="clip21_2652">
			<rect id="free-icon-online-support-4935596" rx="0.000000" width="35.929688" height="35.929688" transform="translate(56.847656 18.035156)" fill="white" fill-opacity="0"/>
		</clipPath>
		<clipPath id="clip21_2659">
			<rect id="free-icon-no-money-4935270" rx="0.000000" width="35.929688" height="35.929688" transform="translate(18.035156 18.035156)" fill="white" fill-opacity="0"/>
		</clipPath>
		<clipPath id="clip21_2665">
			<rect id="free-icon-shield-6506912" rx="0.000000" width="35.929688" height="35.929688" transform="translate(18.035156 18.035156)" fill="white" fill-opacity="0"/>
		</clipPath>
		<clipPath id="clip21_2668">
			<rect id="Frame 6" rx="0.000000" width="24.750000" height="8.625000" transform="translate(28.968506 19.312500)" fill="white" fill-opacity="0"/>
		</clipPath>
		<clipPath id="clip21_2670">
			<rect id="free-icon-wheelbarrow-4591692" rx="0.000000" width="35.929688" height="35.929688" transform="translate(18.035156 18.035156)" fill="white" fill-opacity="0"/>
		</clipPath>
		<clipPath id="clip21_2675">
			<rect id="free-icon-pin-7452980" rx="0.000000" width="35.929688" height="35.929688" transform="translate(18.035156 18.035156)" fill="white" fill-opacity="0"/>
		</clipPath>
		<clipPath id="clip21_2689">
			<rect id="free-icon-time-is-money-6775873" rx="0.000000" width="35.929688" height="35.929688" transform="translate(18.035156 18.035156)" fill="white" fill-opacity="0"/>
		</clipPath>
		<clipPath id="clip21_2697">
			<rect id="free-icon-document-6777288" rx="0.000000" width="35.929688" height="35.929688" transform="translate(18.035156 18.035156)" fill="white" fill-opacity="0"/>
		</clipPath>
		<clipPath id="clip21_2702">
			<rect id="free-icon-shield-4779724" rx="0.000000" width="35.929688" height="35.929688" transform="translate(18.035156 18.035156)" fill="white" fill-opacity="0"/>
		</clipPath>
		<clipPath id="clip21_2727">
			<rect id="free-icon-file-604695" rx="0.000000" width="35.893486" height="35.893486" transform="translate(18.053257 18.053257)" fill="white" fill-opacity="0"/>
		</clipPath>
		<clipPath id="clip21_2747">
			<rect id="free-icon-file-604695" rx="0.000000" width="35.893486" height="35.893486" transform="translate(18.053257 18.053257)" fill="white" fill-opacity="0"/>
		</clipPath>
		<clipPath id="clip21_2752">
			<rect id="free-icon-calendar-4610861" rx="0.000000" width="35.929688" height="35.929688" transform="translate(2.222656 18.035156)" fill="white" fill-opacity="0"/>
		</clipPath>
		<clipPath id="clip21_2761">
			<rect id="free-icon-tractor-10583052" rx="0.000000" width="35.929688" height="35.929688" transform="translate(41.035156 18.035156)" fill="white" fill-opacity="0"/>
		</clipPath>
		<clipPath id="clip21_2769">
			<rect id="free-icon-toy-truck-4591186" rx="0.000000" width="35.929688" height="35.929688" transform="translate(79.847656 18.035156)" fill="white" fill-opacity="0"/>
		</clipPath>
	</defs>
	<rect id="free-icon-no-money-4935270" rx="0.000000" width="35.929688" height="35.929688" transform="translate(18.035156 18.035156)" fill="#FFFFFF" fill-opacity="0"/>
	<g clip-path="url(#clip21_2659)">
		<path id="Vector" d="M48.72 23.27C43.75 18.3 36.65 16.87 30.48 18.86C30.16 18.96 29.99 19.3 30.09 19.61C30.19 19.93 30.53 20.1 30.85 20C41.68 16.52 52.79 24.64 52.79 35.99C52.79 45.26 45.25 52.79 35.99 52.79C26.73 52.79 19.2 45.26 19.2 35.99C19.2 30.07 22.37 24.52 27.49 21.51C27.77 21.34 27.87 20.97 27.7 20.69C27.53 20.4 27.16 20.31 26.88 20.47C16.77 26.42 14.91 40.37 23.27 48.72C30.3 55.75 41.68 55.75 48.72 48.72C55.75 41.69 55.75 30.3 48.72 23.27Z" fill="#141414" fill-opacity="0.900000" fill-rule="nonzero"/>
		<path id="Vector" d="M47 25.92C46.77 25.68 46.39 25.68 46.15 25.92L25.92 46.15C25.68 46.39 25.68 46.79 25.94 47.02C28.69 49.53 32.26 50.92 35.99 50.92C44.22 50.92 50.91 44.22 50.91 35.99C50.91 33.52 50.3 31.06 49.12 28.9C48.97 28.61 48.6 28.5 48.31 28.66C48.02 28.82 47.91 29.18 48.07 29.47C49.15 31.46 49.72 33.72 49.72 35.99C49.72 43.56 43.56 49.72 35.99 49.72C32.77 49.72 29.68 48.6 27.22 46.55L34.26 39.51C35.85 40.19 38.39 39.95 39.53 37.94C39.69 37.65 39.59 37.29 39.3 37.12C39.01 36.96 38.65 37.06 38.49 37.35C38.01 38.19 37.13 38.65 36.02 38.65C35.73 38.65 35.46 38.62 35.21 38.56L42.91 30.86C43.52 30.91 44.15 30.98 44.78 31.07C45.37 31.15 45.82 31.66 45.82 32.25L45.82 40.47C45.82 40.83 45.5 41.12 45.13 41.06C41.05 40.47 38.36 40.72 34.96 41.02C34.63 41.05 34.39 41.34 34.42 41.67C34.45 42 34.74 42.25 35.07 42.22C38.22 41.93 40.92 41.66 44.95 42.25C46.03 42.41 47.02 41.57 47.02 40.47L47.02 32.26C47.02 31.07 46.13 30.04 44.95 29.88C44.63 29.83 44.32 29.8 44.01 29.76L47 26.77C47.23 26.53 47.23 26.15 47 25.92Z" fill="#EC483B" fill-opacity="1.000000" fill-rule="nonzero"/>
		<path id="Vector" d="M44.53 23.75C42.02 22 39.07 21.07 35.99 21.07C27.76 21.07 21.07 27.77 21.07 35.99C21.07 39.07 22 42.02 23.75 44.53C23.87 44.7 24.05 44.79 24.24 44.79C24.72 44.79 25.02 44.24 24.74 43.84C23.12 41.54 22.27 38.82 22.27 35.99C22.27 28.43 28.43 22.27 35.99 22.27C38.58 22.27 41.07 22.98 43.24 24.34L26.84 40.74C26.46 40.53 26.22 40.14 26.22 39.69L26.22 31.47C26.22 31.1 26.56 30.82 26.93 30.88C29.63 31.36 31.79 31.33 34.19 31.13C34.52 31.11 34.77 30.82 34.74 30.49C34.71 30.16 34.42 29.91 34.09 29.94C31.78 30.12 29.71 30.16 27.14 29.7C26.03 29.51 25.02 30.35 25.02 31.47L25.02 39.69C25.02 40.8 25.77 41.75 26.85 42.02C27.05 42.07 27.27 42.01 27.41 41.86L44.61 24.67C44.87 24.41 44.83 23.97 44.53 23.75Z" fill="#EC483B" fill-opacity="1.000000" fill-rule="nonzero"/>
		<path id="Vector" d="M28.87 35.39C28.54 35.39 28.27 35.66 28.27 35.99C28.27 36.33 28.54 36.59 28.87 36.59L29.77 36.59C30.1 36.59 30.37 36.33 30.37 35.99C30.37 35.66 30.1 35.39 29.77 35.39L28.87 35.39Z" fill="#EC483B" fill-opacity="1.000000" fill-rule="nonzero"/>
		<path id="Vector" d="M43.32 36.59C43.65 36.59 43.92 36.33 43.92 35.99C43.92 35.66 43.65 35.39 43.32 35.39L42.42 35.39C42.09 35.39 41.82 35.66 41.82 35.99C41.82 36.33 42.09 36.59 42.42 36.59L43.32 36.59Z" fill="#EC483B" fill-opacity="1.000000" fill-rule="nonzero"/>
	</g>
	<rect id="Container" rx="35.500000" width="71.000000" height="71.000000" transform="translate(0.500000 0.500000)" stroke="#141414" stroke-opacity="0.900000" stroke-width="1.000000"/>
</svg>
