<svg width="72" height="72.000000" viewBox="0 0 72 72" fill="none" xmlns="http://www.w3.org/2000/svg" xmlns:xlink="http://www.w3.org/1999/xlink">
	<desc>
			Created with Pixso.
	</desc>
	<defs>
		<clipPath id="clip21_2483">
			<rect id="free-icon-agent-4935682" rx="0.000000" width="35.929688" height="35.929688" transform="translate(18.035156 18.035156)" fill="white" fill-opacity="0"/>
		</clipPath>
		<clipPath id="clip21_2497">
			<rect id="free-icon-document-4248628" rx="0.000000" width="35.929688" height="35.929688" transform="translate(56.847656 18.035156)" fill="white" fill-opacity="0"/>
		</clipPath>
		<clipPath id="clip21_2500">
			<rect id="free-icon-recycling-3283519" rx="0.000000" width="35.929688" height="35.929688" transform="translate(56.847656 18.035156)" fill="white" fill-opacity="0"/>
		</clipPath>
		<clipPath id="clip21_2504">
			<rect id="free-icon-online-support-4935596" rx="0.000000" width="35.929688" height="35.929688" transform="translate(56.847656 18.035156)" fill="white" fill-opacity="0"/>
		</clipPath>
		<clipPath id="clip21_2511">
			<rect id="free-icon-no-money-4935270" rx="0.000000" width="35.929688" height="35.929688" transform="translate(18.035156 18.035156)" fill="white" fill-opacity="0"/>
		</clipPath>
		<clipPath id="clip21_2517">
			<rect id="free-icon-shield-6506912" rx="0.000000" width="35.929688" height="35.929688" transform="translate(18.035156 18.035156)" fill="white" fill-opacity="0"/>
		</clipPath>
		<clipPath id="clip21_2520">
			<rect id="Frame 6" rx="0.000000" width="24.750000" height="8.625000" transform="translate(28.968506 19.312500)" fill="white" fill-opacity="0"/>
		</clipPath>
		<clipPath id="clip21_2522">
			<rect id="free-icon-wheelbarrow-4591692" rx="0.000000" width="35.929688" height="35.929688" transform="translate(18.035156 18.035156)" fill="white" fill-opacity="0"/>
		</clipPath>
		<clipPath id="clip21_2527">
			<rect id="free-icon-pin-7452980" rx="0.000000" width="35.929688" height="35.929688" transform="translate(18.035156 18.035156)" fill="white" fill-opacity="0"/>
		</clipPath>
		<clipPath id="clip21_2541">
			<rect id="free-icon-time-is-money-6775873" rx="0.000000" width="35.929688" height="35.929688" transform="translate(18.035156 18.035156)" fill="white" fill-opacity="0"/>
		</clipPath>
		<clipPath id="clip21_2549">
			<rect id="free-icon-document-6777288" rx="0.000000" width="35.929688" height="35.929688" transform="translate(18.035156 18.035156)" fill="white" fill-opacity="0"/>
		</clipPath>
		<clipPath id="clip21_2554">
			<rect id="free-icon-shield-4779724" rx="0.000000" width="35.929688" height="35.929688" transform="translate(18.035156 18.035156)" fill="white" fill-opacity="0"/>
		</clipPath>
		<clipPath id="clip21_2579">
			<rect id="free-icon-file-604695" rx="0.000000" width="35.893486" height="35.893486" transform="translate(18.053257 18.053257)" fill="white" fill-opacity="0"/>
		</clipPath>
		<clipPath id="clip21_2599">
			<rect id="free-icon-file-604695" rx="0.000000" width="35.893486" height="35.893486" transform="translate(18.053257 18.053257)" fill="white" fill-opacity="0"/>
		</clipPath>
		<clipPath id="clip21_2604">
			<rect id="free-icon-calendar-4610861" rx="0.000000" width="35.929688" height="35.929688" transform="translate(2.222656 18.035156)" fill="white" fill-opacity="0"/>
		</clipPath>
		<clipPath id="clip21_2613">
			<rect id="free-icon-tractor-10583052" rx="0.000000" width="35.929688" height="35.929688" transform="translate(41.035156 18.035156)" fill="white" fill-opacity="0"/>
		</clipPath>
		<clipPath id="clip21_2621">
			<rect id="free-icon-toy-truck-4591186" rx="0.000000" width="35.929688" height="35.929688" transform="translate(79.847656 18.035156)" fill="white" fill-opacity="0"/>
		</clipPath>
	</defs>
	<rect id="free-icon-time-is-money-6775873" rx="0.000000" width="35.929688" height="35.929688" transform="translate(18.035156 18.035156)" fill="#FFFFFF" fill-opacity="0"/>
	<g clip-path="url(#clip21_2541)">
		<path id="Vector" d="M49.4 42.25C49.55 42.55 49.91 42.66 50.21 42.51C50.5 42.36 50.61 41.99 50.46 41.7C49.34 39.54 47.13 38.2 44.7 38.2C41.11 38.2 38.2 41.11 38.2 44.69C38.2 48.28 41.11 51.19 44.7 51.19C47.92 51.19 50.69 48.78 51.13 45.59C51.18 45.26 50.95 44.96 50.62 44.91C50.29 44.87 49.99 45.1 49.94 45.43C49.58 48.03 47.33 49.99 44.7 49.99C41.77 49.99 39.4 47.61 39.4 44.69C39.4 41.77 41.77 39.4 44.7 39.4C46.68 39.4 48.48 40.49 49.4 42.25Z" fill="#EC483B" fill-opacity="1.000000" fill-rule="nonzero"/>
		<path id="Vector" d="M51.27 38.12C51.04 37.88 50.66 37.88 50.42 38.12C50.19 38.35 50.19 38.73 50.42 38.97C51.95 40.5 52.79 42.53 52.79 44.69C52.79 49.16 49.16 52.79 44.7 52.79C40.23 52.79 36.59 49.16 36.59 44.69C36.59 40.23 40.23 36.6 44.7 36.6C45.94 36.6 47.14 36.87 48.25 37.41C48.5 37.54 48.81 37.47 48.98 37.24C52.36 32.91 51.65 26.74 47.52 23.25C45.63 21.66 43.26 20.83 40.83 20.87L41.19 20.47C41.41 20.23 41.4 19.85 41.15 19.62C40.9 19.4 40.52 19.42 40.3 19.67C39.09 21 38.93 21.18 38.91 21.21C38.72 21.42 38.7 21.74 38.88 21.97C38.95 22.06 38.85 21.97 40.74 23.41C41 23.62 41.38 23.57 41.58 23.3C41.78 23.04 41.73 22.66 41.47 22.46L40.95 22.07C45.89 22.05 49.92 26.05 49.92 31.01C49.92 32.86 49.37 34.62 48.32 36.13C47.17 35.64 45.96 35.39 44.7 35.39C39.57 35.39 35.39 39.57 35.39 44.69C35.39 49.82 39.57 54 44.7 54C49.82 54 54 49.82 54 44.69C54 42.21 53.03 39.88 51.27 38.12Z" fill="#EC483B" fill-opacity="1.000000" fill-rule="nonzero"/>
		<path id="Vector" d="M26.66 36.57C32.05 36.93 36.6 32.65 36.6 27.29C36.6 22.17 32.42 18 27.3 18C22.17 18 18 22.17 18 27.29C18 30.68 19.82 33.69 22.59 35.32C19.71 39.58 20.5 45.39 24.47 48.74C26.31 50.28 28.66 51.16 31.16 51.12L30.8 51.52C30.58 51.76 30.59 52.14 30.84 52.37C31.09 52.59 31.47 52.57 31.69 52.32C33.19 50.67 33.08 50.79 33.1 50.76C33.29 50.52 33.27 50.2 33.08 49.99C33.02 49.92 33.13 50.01 31.25 48.58C30.99 48.37 30.61 48.42 30.41 48.69C30.21 48.95 30.26 49.33 30.53 49.53L31.04 49.92C28.94 49.93 26.88 49.2 25.25 47.82C21.59 44.73 20.99 39.29 23.95 35.49C24.19 35.19 24.09 34.74 23.74 34.58C20.94 33.21 19.2 30.42 19.2 27.29C19.2 22.83 22.83 19.2 27.3 19.2C31.76 19.2 35.39 22.83 35.39 27.29C35.39 31.95 31.45 35.69 26.74 35.38C26.41 35.35 26.13 35.6 26.1 35.93C26.08 36.27 26.33 36.55 26.66 36.57Z" fill="#141414" fill-opacity="0.900000" fill-rule="nonzero"/>
		<path id="Vector" d="M44.69 49.05C45.03 49.05 45.29 48.78 45.29 48.45L45.29 47.95C46.3 47.73 47.05 46.96 47.05 46.05C47.05 44.56 45.71 44.29 44.82 44.11C43.75 43.89 43.54 43.76 43.54 43.34C43.54 42.93 44.08 42.58 44.69 42.58C45.12 42.58 45.53 42.75 45.73 43.01C45.93 43.28 46.31 43.33 46.57 43.13C46.84 42.93 46.89 42.55 46.69 42.29C46.36 41.86 45.87 41.56 45.29 41.44L45.29 40.95C45.29 40.61 45.03 40.35 44.69 40.35C44.36 40.35 44.09 40.61 44.09 40.95L44.09 41.44C43.09 41.66 42.34 42.43 42.34 43.34C42.34 44.83 43.68 45.1 44.57 45.28C45.64 45.5 45.85 45.63 45.85 46.05C45.85 46.46 45.31 46.81 44.69 46.81C44.27 46.81 43.86 46.64 43.66 46.38C43.46 46.11 43.08 46.06 42.82 46.26C42.55 46.46 42.5 46.84 42.7 47.1C43.03 47.53 43.52 47.83 44.09 47.95L44.09 48.45C44.09 48.78 44.36 49.05 44.69 49.05Z" fill="#EC483B" fill-opacity="1.000000" fill-rule="nonzero"/>
		<path id="Vector" d="M27.78 27.64C27.83 27.58 27.86 27.5 27.88 27.43C27.9 27.33 27.89 27.65 27.89 22.22C27.89 21.89 27.63 21.62 27.29 21.62C26.96 21.62 26.7 21.89 26.7 22.22L26.7 27.06L25.12 28.76C24.77 29.15 25.05 29.77 25.56 29.77C25.73 29.77 25.89 29.71 26.01 29.58C27.88 27.55 27.75 27.69 27.78 27.64Z" fill="#141414" fill-opacity="0.900000" fill-rule="nonzero"/>
		<path id="Vector" d="M30.34 31.19L31.11 31.96C31.23 32.08 31.38 32.14 31.54 32.14C32.07 32.14 32.34 31.49 31.96 31.11L31.19 30.34C30.95 30.1 30.57 30.1 30.34 30.34C30.1 30.57 30.1 30.95 30.34 31.19Z" fill="#141414" fill-opacity="0.900000" fill-rule="nonzero"/>
		<path id="Vector" d="M24.25 23.4L23.48 22.63C23.24 22.39 22.86 22.39 22.63 22.63C22.39 22.86 22.39 23.24 22.63 23.48L23.4 24.25C23.64 24.49 24.02 24.49 24.25 24.25C24.49 24.02 24.49 23.64 24.25 23.4Z" fill="#141414" fill-opacity="0.900000" fill-rule="nonzero"/>
		<path id="Vector" d="M31.11 22.63L30.34 23.4C30.1 23.64 30.1 24.02 30.34 24.25C30.57 24.49 30.95 24.49 31.19 24.25L31.96 23.48C32.2 23.24 32.2 22.86 31.96 22.63C31.73 22.39 31.35 22.39 31.11 22.63Z" fill="#141414" fill-opacity="0.900000" fill-rule="nonzero"/>
		<path id="Vector" d="M23.05 32.14C23.21 32.14 23.36 32.08 23.48 31.96L24.25 31.19C24.49 30.95 24.49 30.57 24.25 30.34C24.02 30.1 23.64 30.1 23.4 30.34L22.63 31.11C22.25 31.49 22.52 32.14 23.05 32.14Z" fill="#141414" fill-opacity="0.900000" fill-rule="nonzero"/>
		<path id="Vector" d="M27.3 31.6C26.96 31.6 26.7 31.87 26.7 32.2L26.7 33.29C26.7 33.63 26.96 33.89 27.3 33.89C27.63 33.89 27.89 33.63 27.89 33.29L27.89 32.2C27.89 31.87 27.63 31.6 27.3 31.6Z" fill="#141414" fill-opacity="0.900000" fill-rule="nonzero"/>
		<path id="Vector" d="M31.6 27.3C31.6 27.63 31.87 27.9 32.2 27.9L33.3 27.9C33.63 27.9 33.89 27.63 33.89 27.3C33.89 26.96 33.63 26.7 33.3 26.7L32.2 26.7C31.87 26.7 31.6 26.96 31.6 27.3Z" fill="#141414" fill-opacity="0.900000" fill-rule="nonzero"/>
		<path id="Vector" d="M22.99 27.3C22.99 26.96 22.72 26.7 22.39 26.7L21.3 26.7C20.96 26.7 20.7 26.96 20.7 27.3C20.7 27.63 20.96 27.9 21.3 27.9L22.39 27.9C22.72 27.9 22.99 27.63 22.99 27.3Z" fill="#141414" fill-opacity="0.900000" fill-rule="nonzero"/>
	</g>
	<rect id="Container" rx="35.500000" width="71.000000" height="71.000000" transform="translate(0.500000 0.500000)" stroke="#141414" stroke-opacity="1.000000" stroke-width="1.000000"/>
</svg>
