<svg width="72" height="72.000000" viewBox="0 0 72 72" fill="none" xmlns="http://www.w3.org/2000/svg" xmlns:xlink="http://www.w3.org/1999/xlink">
	<desc>
			Created with Pixso.
	</desc>
	<defs>
		<clipPath id="clip21_2779">
			<rect id="free-icon-agent-4935682" rx="0.000000" width="35.929688" height="35.929688" transform="translate(18.035156 18.035156)" fill="white" fill-opacity="0"/>
		</clipPath>
		<clipPath id="clip21_2793">
			<rect id="free-icon-document-4248628" rx="0.000000" width="35.929688" height="35.929688" transform="translate(56.847656 18.035156)" fill="white" fill-opacity="0"/>
		</clipPath>
		<clipPath id="clip21_2796">
			<rect id="free-icon-recycling-3283519" rx="0.000000" width="35.929688" height="35.929688" transform="translate(56.847656 18.035156)" fill="white" fill-opacity="0"/>
		</clipPath>
		<clipPath id="clip21_2800">
			<rect id="free-icon-online-support-4935596" rx="0.000000" width="35.929688" height="35.929688" transform="translate(56.847656 18.035156)" fill="white" fill-opacity="0"/>
		</clipPath>
		<clipPath id="clip21_2807">
			<rect id="free-icon-no-money-4935270" rx="0.000000" width="35.929688" height="35.929688" transform="translate(18.035156 18.035156)" fill="white" fill-opacity="0"/>
		</clipPath>
		<clipPath id="clip21_2813">
			<rect id="free-icon-shield-6506912" rx="0.000000" width="35.929688" height="35.929688" transform="translate(18.035156 18.035156)" fill="white" fill-opacity="0"/>
		</clipPath>
		<clipPath id="clip21_2816">
			<rect id="Frame 6" rx="0.000000" width="24.750000" height="8.625000" transform="translate(28.968506 19.312500)" fill="white" fill-opacity="0"/>
		</clipPath>
		<clipPath id="clip21_2818">
			<rect id="free-icon-wheelbarrow-4591692" rx="0.000000" width="35.929688" height="35.929688" transform="translate(18.035156 18.035156)" fill="white" fill-opacity="0"/>
		</clipPath>
		<clipPath id="clip21_2823">
			<rect id="free-icon-pin-7452980" rx="0.000000" width="35.929688" height="35.929688" transform="translate(18.035156 18.035156)" fill="white" fill-opacity="0"/>
		</clipPath>
		<clipPath id="clip21_2837">
			<rect id="free-icon-time-is-money-6775873" rx="0.000000" width="35.929688" height="35.929688" transform="translate(18.035156 18.035156)" fill="white" fill-opacity="0"/>
		</clipPath>
		<clipPath id="clip21_2845">
			<rect id="free-icon-document-6777288" rx="0.000000" width="35.929688" height="35.929688" transform="translate(18.035156 18.035156)" fill="white" fill-opacity="0"/>
		</clipPath>
		<clipPath id="clip21_2850">
			<rect id="free-icon-shield-4779724" rx="0.000000" width="35.929688" height="35.929688" transform="translate(18.035156 18.035156)" fill="white" fill-opacity="0"/>
		</clipPath>
		<clipPath id="clip21_2875">
			<rect id="free-icon-file-604695" rx="0.000000" width="35.893486" height="35.893486" transform="translate(18.053257 18.053257)" fill="white" fill-opacity="0"/>
		</clipPath>
		<clipPath id="clip21_2895">
			<rect id="free-icon-file-604695" rx="0.000000" width="35.893486" height="35.893486" transform="translate(18.053257 18.053257)" fill="white" fill-opacity="0"/>
		</clipPath>
		<clipPath id="clip21_2900">
			<rect id="free-icon-calendar-4610861" rx="0.000000" width="35.929688" height="35.929688" transform="translate(2.222656 18.035156)" fill="white" fill-opacity="0"/>
		</clipPath>
		<clipPath id="clip21_2909">
			<rect id="free-icon-tractor-10583052" rx="0.000000" width="35.929688" height="35.929688" transform="translate(41.035156 18.035156)" fill="white" fill-opacity="0"/>
		</clipPath>
		<clipPath id="clip21_2917">
			<rect id="free-icon-toy-truck-4591186" rx="0.000000" width="35.929688" height="35.929688" transform="translate(79.847656 18.035156)" fill="white" fill-opacity="0"/>
		</clipPath>
	</defs>
	<rect id="free-icon-shield-6506912" rx="0.000000" width="35.929688" height="35.929688" transform="translate(18.035156 18.035156)" fill="#FFFFFF" fill-opacity="0"/>
	<g clip-path="url(#clip21_2813)">
		<path id="Vector" d="M32.68 51.56C30.71 50.58 28.94 49.32 27.4 47.83C27.41 47.6 27.3 47.38 27.09 47.27C26.8 47.11 26.44 47.22 26.28 47.51L25.84 48.3C25.64 48.66 25.12 48.67 24.92 48.3L24.49 47.51C24.43 47.41 24.35 47.32 24.25 47.27L23.46 46.84C23.09 46.64 23.09 46.11 23.46 45.91L24.25 45.48C24.35 45.42 24.43 45.34 24.49 45.24L24.92 44.45C25.12 44.08 25.64 44.08 25.84 44.45L26.28 45.24C26.33 45.34 26.41 45.42 26.52 45.48L27.31 45.91C27.42 45.97 27.5 46.06 27.54 46.17C27.67 46.48 28.01 46.63 28.32 46.51C28.63 46.39 28.78 46.04 28.66 45.73C28.51 45.36 28.24 45.05 27.88 44.86L27.25 44.51L26.9 43.87C26.31 42.81 24.84 42.66 24.06 43.59C21.05 38.59 19.93 32.2 20.9 25.48C21 24.77 21.68 24.32 22.38 24.47C25.32 25.13 28.26 23.33 28.63 20.24C28.7 19.64 29.22 19.2 29.83 19.2L35.4 19.2L35.4 22.99C35.4 23.32 35.66 23.59 36 23.59C36.33 23.59 36.6 23.32 36.6 22.99L36.6 19.2L42.16 19.2C42.78 19.2 43.29 19.64 43.36 20.24C43.51 21.51 44.1 22.61 45.04 23.4C44.49 24.24 44.76 25.38 45.66 25.87L46.29 26.22L46.64 26.85C47.3 28.05 49.02 28.05 49.67 26.85L50.02 26.22L50.66 25.87C51.86 25.21 51.86 23.49 50.66 22.84L50.02 22.49C49.64 21.79 49.56 21.61 49.28 21.37C49.03 21.15 48.65 21.18 48.44 21.43C48.22 21.68 48.25 22.06 48.5 22.28C48.61 22.37 48.63 22.44 49.05 23.22C49.11 23.32 49.19 23.4 49.29 23.46L50.08 23.89C50.45 24.09 50.45 24.61 50.08 24.81L49.29 25.25C49.19 25.3 49.11 25.38 49.05 25.49L48.62 26.28C48.42 26.64 47.9 26.64 47.7 26.28L47.26 25.49C47.21 25.38 47.12 25.3 47.02 25.25L46.23 24.81C45.87 24.61 45.87 24.09 46.23 23.89L47.02 23.46C47.31 23.3 47.42 22.93 47.26 22.64C47.1 22.35 46.74 22.24 46.45 22.4L46.01 22.64C45.19 22.04 44.68 21.14 44.55 20.09C44.41 18.9 43.38 18 42.16 18L29.83 18C28.61 18 27.58 18.9 27.44 20.09C27.16 22.45 24.92 23.81 22.64 23.3C21.29 23 19.91 23.88 19.71 25.31C18.68 32.49 19.95 39.33 23.29 44.63L22.88 44.86C21.68 45.51 21.68 47.23 22.88 47.89L23.52 48.24L23.87 48.87C24.5 50.03 26.15 50.08 26.85 48.96C28.41 50.42 30.19 51.66 32.15 52.63C32.44 52.78 32.8 52.66 32.95 52.36C33.1 52.06 32.98 51.7 32.68 51.56Z" fill="#141414" fill-opacity="0.900000" fill-rule="nonzero"/>
		<path id="Vector" d="M40.2 45.29C43.84 43.64 46.19 39.99 46.19 36C46.19 30.37 41.62 25.8 36 25.8C30.37 25.8 25.8 30.37 25.8 36C25.8 41.74 30.53 46.34 36.28 46.19C36.61 46.18 36.87 45.9 36.86 45.57C36.86 45.24 36.58 44.98 36.25 44.99C31.18 45.13 27 41.07 27 36C27 31.03 31.03 27 36 27C40.96 27 44.99 31.03 44.99 36C44.99 39.52 42.92 42.74 39.71 44.19C39.4 44.33 39.27 44.69 39.41 44.99C39.54 45.29 39.9 45.42 40.2 45.29Z" fill="#EC483B" fill-opacity="1.000000" fill-rule="nonzero"/>
		<path id="Vector" d="M34.05 41.82L36 40.8L37.94 41.82C39.37 42.57 41.04 41.36 40.77 39.77L40.35 37.29C40.29 36.96 39.98 36.74 39.65 36.8C39.33 36.85 39.11 37.16 39.16 37.49L39.59 39.97C39.69 40.58 39.05 41.05 38.5 40.76L36.27 39.59C36.1 39.5 35.89 39.5 35.72 39.59L33.49 40.76C32.94 41.05 32.3 40.58 32.4 39.97L32.83 37.49C32.86 37.3 32.8 37.1 32.65 36.96L30.85 35.21C30.41 34.77 30.65 34.02 31.27 33.93L33.76 33.56C33.95 33.54 34.12 33.41 34.21 33.24L35.32 30.98C35.6 30.43 36.39 30.42 36.67 30.98L37.78 33.24C37.87 33.41 38.04 33.54 38.23 33.56L40.72 33.93C41.24 34 41.49 34.54 41.3 34.96C41.17 35.27 41.31 35.62 41.62 35.75C41.92 35.89 42.27 35.75 42.41 35.44C42.9 34.3 42.19 32.93 40.89 32.74L38.72 32.42L37.74 30.45C37.03 29 34.96 29 34.25 30.45L33.27 32.42L31.1 32.74C29.5 32.97 28.86 34.94 30.02 36.06L31.59 37.6L31.22 39.77C30.95 41.36 32.62 42.57 34.05 41.82Z" fill="#EC483B" fill-opacity="1.000000" fill-rule="nonzero"/>
		<path id="Vector" d="M52.56 27.9C52.53 27.57 52.25 27.32 51.92 27.34C51.59 27.37 51.34 27.65 51.36 27.98C52.15 39.8 46.49 49.27 36.59 52.69L36.59 49.17C36.59 48.84 36.33 48.57 36 48.57C35.66 48.57 35.39 48.84 35.39 49.17L35.39 53.4C35.39 53.73 35.66 54 36 54C36.33 54 36.66 53.94 36.98 53.83C47.99 50.02 53.34 39.58 52.56 27.9Z" fill="#141414" fill-opacity="0.900000" fill-rule="nonzero"/>
	</g>
	<rect id="Container" rx="35.500000" width="71.000000" height="71.000000" transform="translate(0.500000 0.500000)" stroke="#141414" stroke-opacity="0.900000" stroke-width="1.000000"/>
</svg>
