<svg width="72" height="72.000000" viewBox="0 0 72 72" fill="none" xmlns="http://www.w3.org/2000/svg" xmlns:xlink="http://www.w3.org/1999/xlink">
	<desc>
			Created with Pixso.
	</desc>
	<defs>
		<clipPath id="clip2316_6968">
			<rect id="free-icon-agent-4935682" rx="0.000000" width="35.929688" height="35.929688" transform="translate(18.035156 18.035156)" fill="white" fill-opacity="0"/>
		</clipPath>
		<clipPath id="clip2316_6973">
			<rect id="free-icon-document-4248628" rx="0.000000" width="35.929688" height="35.929688" transform="translate(56.847656 18.035156)" fill="white" fill-opacity="0"/>
		</clipPath>
		<clipPath id="clip2316_6987">
			<rect id="free-icon-recycling-3283519" rx="0.000000" width="35.929688" height="35.929688" transform="translate(56.847656 18.035156)" fill="white" fill-opacity="0"/>
		</clipPath>
		<clipPath id="clip2316_6990">
			<rect id="free-icon-online-support-4935596" rx="0.000000" width="35.929688" height="35.929688" transform="translate(56.847656 18.035156)" fill="white" fill-opacity="0"/>
		</clipPath>
		<clipPath id="clip2316_1266">
			<rect id="free-icon-no-money-4935270" rx="0.000000" width="35.929688" height="35.929688" transform="translate(18.035156 18.035156)" fill="white" fill-opacity="0"/>
		</clipPath>
		<clipPath id="clip2316_1273">
			<rect id="free-icon-shield-6506912" rx="0.000000" width="35.929688" height="35.929688" transform="translate(18.035156 18.035156)" fill="white" fill-opacity="0"/>
		</clipPath>
		<clipPath id="clip2316_1282">
			<rect id="Frame 6" rx="0.000000" width="24.750000" height="8.625000" transform="translate(28.968506 19.312500)" fill="white" fill-opacity="0"/>
		</clipPath>
		<clipPath id="clip2316_1279">
			<rect id="free-icon-wheelbarrow-4591692" rx="0.000000" width="35.929688" height="35.929688" transform="translate(18.035156 18.035156)" fill="white" fill-opacity="0"/>
		</clipPath>
		<clipPath id="clip2316_1284">
			<rect id="free-icon-pin-7452980" rx="0.000000" width="35.929688" height="35.929688" transform="translate(18.035156 18.035156)" fill="white" fill-opacity="0"/>
		</clipPath>
		<clipPath id="clip2316_1289">
			<rect id="free-icon-time-is-money-6775873" rx="0.000000" width="35.929688" height="35.929688" transform="translate(18.035156 18.035156)" fill="white" fill-opacity="0"/>
		</clipPath>
		<clipPath id="clip2316_3458">
			<rect id="free-icon-document-6777288" rx="0.000000" width="35.929688" height="35.929688" transform="translate(18.035156 18.035156)" fill="white" fill-opacity="0"/>
		</clipPath>
		<clipPath id="clip2316_3466">
			<rect id="free-icon-shield-4779724" rx="0.000000" width="35.929688" height="35.929688" transform="translate(18.035156 18.035156)" fill="white" fill-opacity="0"/>
		</clipPath>
		<clipPath id="clip2316_3471">
			<rect id="free-icon-file-604695" rx="0.000000" width="35.893486" height="35.893486" transform="translate(18.053257 18.053257)" fill="white" fill-opacity="0"/>
		</clipPath>
		<clipPath id="clip2316_3496">
			<rect id="free-icon-file-604695" rx="0.000000" width="35.893486" height="35.893486" transform="translate(18.053257 18.053257)" fill="white" fill-opacity="0"/>
		</clipPath>
		<clipPath id="clip2316_11294">
			<rect id="free-icon-calendar-4610861" rx="0.000000" width="35.929688" height="35.929688" transform="translate(2.222656 18.035156)" fill="white" fill-opacity="0"/>
		</clipPath>
		<clipPath id="clip2316_11298">
			<rect id="free-icon-tractor-10583052" rx="0.000000" width="35.929688" height="35.929688" transform="translate(41.035156 18.035156)" fill="white" fill-opacity="0"/>
		</clipPath>
		<clipPath id="clip2316_11307">
			<rect id="free-icon-toy-truck-4591186" rx="0.000000" width="35.929688" height="35.929688" transform="translate(79.847656 18.035156)" fill="white" fill-opacity="0"/>
		</clipPath>
	</defs>
	<rect id="free-icon-agent-4935682" rx="0.000000" width="35.929688" height="35.929688" transform="translate(18.035156 18.035156)" fill="#FFFFFF" fill-opacity="0"/>
	<g clip-path="url(#clip2316_6968)">
		<path id="Vector" d="M52.81 34.23L51.75 33.85C51.56 33.78 51.41 33.61 51.37 33.41C50.67 30.27 49.04 27.45 46.65 25.26C46.5 25.12 46.44 24.92 46.47 24.71L46.67 23.6C46.8 22.85 46.45 22.1 45.8 21.73C45.51 21.56 45.14 21.66 44.98 21.94C44.81 22.23 44.91 22.6 45.2 22.76C45.42 22.89 45.53 23.14 45.49 23.39L45.29 24.5C45.18 25.11 45.39 25.72 45.84 26.14C48.04 28.17 49.55 30.77 50.2 33.67C50.33 34.28 50.76 34.76 51.34 34.97L52.4 35.36C52.64 35.44 52.79 35.67 52.79 35.92L52.79 37.78C52.79 38.03 52.64 38.26 52.4 38.34L51.34 38.73C50.76 38.94 50.33 39.42 50.2 40.02C49.55 42.93 48.04 45.53 45.84 47.56C45.39 47.98 45.18 48.59 45.29 49.2L45.49 50.31C45.53 50.56 45.42 50.81 45.2 50.93L43.59 51.86C43.37 51.99 43.1 51.96 42.91 51.8L42.04 51.08C41.57 50.68 40.94 50.55 40.35 50.74C37.56 51.61 34.5 51.63 31.64 50.74C31.05 50.55 30.42 50.68 29.95 51.08L29.08 51.8C28.89 51.96 28.62 51.99 28.4 51.86L26.79 50.93C26.57 50.81 26.46 50.56 26.5 50.31L26.7 49.2C26.81 48.59 26.6 47.98 26.15 47.56C23.95 45.53 22.44 42.93 21.79 40.03C21.66 39.42 21.23 38.94 20.65 38.73L19.59 38.34C19.35 38.26 19.2 38.03 19.2 37.78L19.2 35.92C19.2 35.67 19.35 35.44 19.59 35.36L20.65 34.97C21.23 34.76 21.66 34.28 21.79 33.67C22.44 30.77 23.95 28.17 26.15 26.14C26.6 25.72 26.81 25.11 26.7 24.5L26.5 23.39C26.46 23.14 26.57 22.89 26.79 22.76L27.3 22.47C27.58 22.31 27.68 21.94 27.51 21.65C27.35 21.37 26.98 21.27 26.7 21.43L26.19 21.73C25.54 22.1 25.19 22.85 25.32 23.6L25.52 24.71C25.55 24.92 25.49 25.12 25.34 25.26C22.95 27.45 21.32 30.27 20.62 33.41C20.58 33.61 20.43 33.78 20.24 33.85L19.18 34.23C18.47 34.49 18 35.17 18 35.92L18 37.78C18 38.53 18.47 39.21 19.18 39.47L20.24 39.85C20.43 39.92 20.58 40.09 20.62 40.29C21.32 43.43 22.95 46.25 25.34 48.44C25.49 48.58 25.55 48.78 25.52 48.99L25.32 50.1C25.19 50.84 25.54 51.6 26.19 51.97L27.8 52.9C28.45 53.28 29.28 53.21 29.86 52.72L30.72 52C30.88 51.86 31.09 51.82 31.28 51.88C34.29 52.83 37.61 52.85 40.71 51.88C40.9 51.82 41.11 51.86 41.27 52L42.13 52.72C42.71 53.21 43.54 53.28 44.19 52.9L45.8 51.97C46.45 51.6 46.8 50.84 46.67 50.1L46.47 48.99C46.44 48.78 46.5 48.58 46.65 48.44C49.04 46.25 50.67 43.43 51.37 40.29C51.41 40.09 51.56 39.92 51.75 39.85L52.81 39.47C53.52 39.21 54 38.53 54 37.78L54 35.92C54 35.17 53.52 34.49 52.81 34.23Z" fill="#141414" fill-opacity="0.900000" fill-rule="nonzero"/>
		<path id="Vector" d="M43.28 40.66L40.68 39.76C40.15 39.58 39.69 39.24 39.37 38.79C39.18 38.52 38.8 38.46 38.53 38.65C38.26 38.84 38.2 39.21 38.39 39.48C38.46 39.58 38.54 39.68 38.62 39.77C37.99 41.47 36.04 41.99 34.62 41.22C34.33 41.07 33.96 41.18 33.81 41.47C33.65 41.76 33.76 42.12 34.05 42.28C35.98 43.32 38.56 42.67 39.58 40.57C40.02 40.83 40.05 40.82 42.89 41.79C43.86 42.13 44.56 43.01 44.68 44.02C41.52 47.82 36.2 49.18 31.55 47.19C25.51 44.61 22.71 37.04 26.39 30.99L26.39 31.71C26.39 32.48 26.85 33.17 27.57 33.47C27.87 33.6 28.22 33.46 28.35 33.15C28.48 32.85 28.34 32.5 28.03 32.37C27.77 32.26 27.6 32 27.6 31.71L27.6 29.47C27.6 29.07 27.92 28.75 28.31 28.75L29.39 28.75L29.39 31.62C29.39 33.31 30.02 34.91 31.15 36.15C31.38 36.4 31.76 36.42 32 36.19C32.25 35.97 32.26 35.59 32.04 35.34C31.11 34.33 30.59 33.01 30.59 31.62L30.59 28.6C31.54 28.23 32.35 27.54 32.9 26.59C34.61 27.76 36.56 28.5 38.6 28.77C38.93 28.81 39.23 28.58 39.27 28.25C39.31 27.92 39.08 27.62 38.75 27.58C36.69 27.31 34.72 26.51 33.03 25.21C32.71 24.96 32.24 25.1 32.1 25.47C31.73 26.44 30.99 27.21 29.97 27.55L28.31 27.55C27.5 27.55 26.81 28.05 26.53 28.76C20.99 35.25 23.53 45.07 31.08 48.3C37.65 51.1 45.25 47.82 47.68 41.16C48.62 38.59 48.69 35.73 47.88 33.12C47.78 32.8 47.45 32.62 47.13 32.72C46.81 32.82 46.64 33.16 46.74 33.47C47.74 36.7 47.25 40.07 45.57 42.78C45.14 41.8 44.32 41.02 43.28 40.66Z" fill="#EC483B" fill-opacity="1.000000" fill-rule="nonzero"/>
		<path id="Vector" d="M28.41 26.76C28.74 26.76 29.01 26.49 29.01 26.16L29.01 24.12C29.01 23.55 29.47 23.08 30.06 23.08C30.3 23.08 30.52 22.93 30.62 22.7C31.27 21.09 32.82 20.05 34.58 20.05L38.71 20.05C41.07 20.05 42.97 21.94 42.97 24.28L42.97 27.55L42 27.55C41.66 27.55 41.4 27.82 41.4 28.15L41.4 31.69C41.4 35.54 37.47 38.15 33.95 36.69C33.56 36.52 33.12 36.82 33.12 37.24C33.12 38.38 32.39 39.39 31.31 39.76C28.51 40.73 28.43 40.73 27.95 41.02C27.67 41.19 27.58 41.56 27.75 41.84C27.93 42.12 28.3 42.21 28.58 42.04C28.91 41.84 28.9 41.87 31.71 40.9C33 40.45 33.95 39.36 34.23 38.05C38.45 39.23 42.6 36.03 42.6 31.69L42.6 28.75L43.68 28.75C44.07 28.75 44.4 29.07 44.4 29.47L44.4 31.71C44.4 32.09 44.09 32.41 43.71 32.42C43.44 32.44 43.21 32.63 43.15 32.9C42.81 34.54 42.02 36.05 40.86 37.25C40.49 37.64 40.77 38.27 41.29 38.27C41.45 38.27 41.61 38.21 41.72 38.09C42.95 36.81 43.81 35.25 44.24 33.54C45.03 33.3 45.6 32.57 45.6 31.71L45.6 29.47C45.6 28.58 44.99 27.83 44.17 27.61L44.17 24.28C44.17 21.28 41.73 18.85 38.71 18.85L34.57 18.85C32.45 18.85 30.56 20.04 29.65 21.92C28.6 22.11 27.81 23.02 27.81 24.12L27.81 26.16C27.81 26.49 28.07 26.76 28.41 26.76Z" fill="#EC483B" fill-opacity="1.000000" fill-rule="nonzero"/>
	</g>
	<rect id="Container" rx="35.500000" width="71.000000" height="71.000000" transform="translate(0.500000 0.500000)" stroke="#141414" stroke-opacity="0.900000" stroke-width="1.000000"/>
</svg>
