<svg width="72" height="72.000000" viewBox="0 0 72 72" fill="none" xmlns="http://www.w3.org/2000/svg" xmlns:xlink="http://www.w3.org/1999/xlink">
	<desc>
			Created with Pixso.
	</desc>
	<defs>
		<clipPath id="clip21_1091">
			<rect id="free-icon-agent-4935682" rx="0.000000" width="35.929688" height="35.929688" transform="translate(18.035156 18.035156)" fill="white" fill-opacity="0"/>
		</clipPath>
		<clipPath id="clip21_1105">
			<rect id="free-icon-document-4248628" rx="0.000000" width="35.929688" height="35.929688" transform="translate(56.847656 18.035156)" fill="white" fill-opacity="0"/>
		</clipPath>
		<clipPath id="clip21_1108">
			<rect id="free-icon-recycling-3283519" rx="0.000000" width="35.929688" height="35.929688" transform="translate(18.035156 18.035156)" fill="white" fill-opacity="0"/>
		</clipPath>
		<clipPath id="clip21_1112">
			<rect id="free-icon-online-support-4935596" rx="0.000000" width="35.929688" height="35.929688" transform="translate(56.847656 18.035156)" fill="white" fill-opacity="0"/>
		</clipPath>
		<clipPath id="clip21_1119">
			<rect id="free-icon-no-money-4935270" rx="0.000000" width="35.929688" height="35.929688" transform="translate(18.035156 18.035156)" fill="white" fill-opacity="0"/>
		</clipPath>
		<clipPath id="clip21_1125">
			<rect id="free-icon-shield-6506912" rx="0.000000" width="35.929688" height="35.929688" transform="translate(18.035156 18.035156)" fill="white" fill-opacity="0"/>
		</clipPath>
		<clipPath id="clip21_1128">
			<rect id="Frame 6" rx="0.000000" width="24.750000" height="8.625000" transform="translate(28.968506 19.312500)" fill="white" fill-opacity="0"/>
		</clipPath>
		<clipPath id="clip21_1130">
			<rect id="free-icon-wheelbarrow-4591692" rx="0.000000" width="35.929688" height="35.929688" transform="translate(18.035156 18.035156)" fill="white" fill-opacity="0"/>
		</clipPath>
		<clipPath id="clip21_1135">
			<rect id="free-icon-pin-7452980" rx="0.000000" width="35.929688" height="35.929688" transform="translate(18.035156 18.035156)" fill="white" fill-opacity="0"/>
		</clipPath>
		<clipPath id="clip21_1149">
			<rect id="free-icon-time-is-money-6775873" rx="0.000000" width="35.929688" height="35.929688" transform="translate(18.035156 18.035156)" fill="white" fill-opacity="0"/>
		</clipPath>
		<clipPath id="clip21_1157">
			<rect id="free-icon-document-6777288" rx="0.000000" width="35.929688" height="35.929688" transform="translate(18.035156 18.035156)" fill="white" fill-opacity="0"/>
		</clipPath>
		<clipPath id="clip21_1162">
			<rect id="free-icon-shield-4779724" rx="0.000000" width="35.929688" height="35.929688" transform="translate(18.035156 18.035156)" fill="white" fill-opacity="0"/>
		</clipPath>
		<clipPath id="clip21_1187">
			<rect id="free-icon-file-604695" rx="0.000000" width="35.893486" height="35.893486" transform="translate(18.053257 18.053257)" fill="white" fill-opacity="0"/>
		</clipPath>
		<clipPath id="clip21_1207">
			<rect id="free-icon-file-604695" rx="0.000000" width="35.893486" height="35.893486" transform="translate(18.053257 18.053257)" fill="white" fill-opacity="0"/>
		</clipPath>
		<clipPath id="clip21_1212">
			<rect id="free-icon-calendar-4610861" rx="0.000000" width="35.929688" height="35.929688" transform="translate(2.222656 18.035156)" fill="white" fill-opacity="0"/>
		</clipPath>
		<clipPath id="clip21_1221">
			<rect id="free-icon-tractor-10583052" rx="0.000000" width="35.929688" height="35.929688" transform="translate(41.035156 18.035156)" fill="white" fill-opacity="0"/>
		</clipPath>
		<clipPath id="clip21_1229">
			<rect id="free-icon-toy-truck-4591186" rx="0.000000" width="35.929688" height="35.929688" transform="translate(79.847656 18.035156)" fill="white" fill-opacity="0"/>
		</clipPath>
	</defs>
	<rect id="free-icon-recycling-3283519" rx="0.000000" width="35.929688" height="35.929688" transform="translate(18.035156 18.035156)" fill="#FFFFFF" fill-opacity="0"/>
	<g clip-path="url(#clip21_1108)">
		<path id="Vector" d="M34.12 44.94L34.12 48.73C34.12 50.06 33.03 51.15 31.7 51.15L26.63 51.15C25.79 51.15 25.03 50.72 24.58 50.02C22.19 46.23 22.34 46.5 22.31 46.36C22.23 46.05 22.08 46.52 25.65 39.17C25.86 38.75 26.29 38.85 26.99 38.65L25.37 33.31L20.33 34.69C20.51 35.75 20.56 35.83 20.45 36.06L19.31 38.42C19.14 38.77 19.16 39.18 19.37 39.51L21.15 42.32C21.32 42.6 21.24 42.98 20.96 43.15C20.68 43.33 20.31 43.24 20.13 42.96L18.36 40.15C17.92 39.46 17.88 38.62 18.23 37.89L19.29 35.71L19.06 34.35C19.01 34.05 19.19 33.76 19.49 33.67L25.62 32C25.93 31.91 26.26 32.09 26.35 32.4L28.33 38.93C28.43 39.27 28.23 39.62 27.88 39.69L26.61 39.96L23.58 46.18L25.59 49.38C25.82 49.73 26.21 49.95 26.63 49.95L31.7 49.95C32.37 49.95 32.92 49.4 32.92 48.73L32.92 44.94C32.92 44.27 32.37 43.72 31.7 43.72L28.82 43.72C28.49 43.72 28.22 43.45 28.22 43.12C28.22 42.79 28.49 42.52 28.82 42.52L31.7 42.52C33.03 42.52 34.12 43.61 34.12 44.94ZM37.47 28.82C44.5 30.77 44.1 30.67 44.22 30.67C44.48 30.67 44.72 30.5 44.79 30.24L46.66 24.15C46.75 23.85 46.61 23.54 46.32 23.42L45.05 22.89L43.79 20.86C43.35 20.14 42.58 19.72 41.74 19.71C41.73 19.71 38.69 19.71 38.69 19.71C38.36 19.71 38.09 19.98 38.09 20.31C38.09 20.64 38.36 20.91 38.69 20.91L41.74 20.91C42.16 20.91 42.55 21.13 42.77 21.49C44.27 23.9 44.17 23.82 44.41 23.92L45.36 24.32L43.82 29.33L38.42 27.84C38.63 27.13 38.94 26.82 38.7 26.42L34.72 19.98C34.6 19.79 34.39 19.68 34.17 19.7L30.08 19.7C29.23 19.7 28.47 20.13 28.03 20.82L25.31 25.12C24.59 26.25 24.93 27.75 26.06 28.46L29.27 30.5C30.4 31.21 31.9 30.88 32.61 29.75L34.02 27.52C34.2 27.24 34.12 26.87 33.84 26.69C33.56 26.52 33.19 26.6 33.01 26.88L31.6 29.11C31.24 29.68 30.49 29.84 29.92 29.48L26.7 27.45C26.13 27.09 25.96 26.33 26.32 25.76L29.05 21.46C29.27 21.1 29.66 20.89 30.08 20.89C30.32 20.89 29 20.89 33.88 20.9L37.52 26.8L37.07 28.03C36.94 28.36 37.13 28.73 37.47 28.82ZM53.7 37.48L51.28 33C50.65 31.83 49.18 31.39 48 32.02L44.65 33.83C43.48 34.47 43.04 35.94 43.67 37.11L44.71 39.04C44.87 39.33 45.23 39.44 45.53 39.29C45.82 39.13 45.93 38.76 45.77 38.47L44.73 36.54C44.41 35.95 44.63 35.21 45.22 34.89L48.57 33.08C49.17 32.76 49.91 32.98 50.23 33.57L52.65 38.05C52.85 38.43 52.84 38.87 52.63 39.24L50.78 42.54L43.84 42.84L42.99 41.84C42.77 41.57 42.36 41.55 42.11 41.8L37.29 46.66C37.06 46.89 37.06 47.26 37.29 47.5L41.69 52.11C41.8 52.23 41.96 52.29 42.12 52.29C42.4 52.29 42.42 52.22 43.58 51.32L45.96 51.21C46.8 51.17 47.55 50.71 47.96 49.98L49.9 46.54C50.06 46.25 49.96 45.89 49.67 45.73C49.38 45.56 49.01 45.67 48.85 45.96L46.92 49.39C46.71 49.76 46.33 49.99 45.91 50.01L43.33 50.13C43.07 50.14 42.98 50.26 42.18 50.89L38.56 47.09L42.5 43.11C43.01 43.64 43.13 44.07 43.6 44.05C51.85 43.69 51.28 43.77 51.49 43.61C51.65 43.5 51.49 43.73 53.68 39.83C54.09 39.1 54.1 38.22 53.7 37.48Z" fill="#141414" fill-opacity="0.900000" fill-rule="nonzero"/>
		<path id="Vector" d="M53.7 37.48L51.28 33C50.65 31.83 49.18 31.39 48 32.02L44.65 33.84C43.48 34.47 43.04 35.94 43.67 37.11L44.71 39.04C44.87 39.33 45.23 39.44 45.53 39.29C45.82 39.13 45.93 38.76 45.77 38.47L44.73 36.54C44.41 35.95 44.63 35.21 45.22 34.89L48.57 33.08C49.17 32.76 49.91 32.98 50.23 33.57L52.65 38.05C52.85 38.43 52.84 38.87 52.63 39.24L50.78 42.54L43.84 42.84L42.99 41.84C42.77 41.57 42.36 41.55 42.11 41.8L37.29 46.66C37.06 46.89 37.06 47.26 37.29 47.5L41.69 52.11C41.8 52.23 41.96 52.29 42.12 52.29C42.4 52.29 42.42 52.22 43.58 51.32L45.96 51.21C46.8 51.17 47.55 50.71 47.96 49.98L49.9 46.54C50.06 46.26 49.96 45.89 49.67 45.73C49.38 45.56 49.01 45.67 48.85 45.96L46.92 49.39C46.71 49.76 46.33 49.99 45.91 50.01L43.33 50.13C43.07 50.14 42.98 50.26 42.18 50.89L38.56 47.09L42.5 43.11C43.01 43.64 43.13 44.07 43.6 44.05C51.85 43.69 51.28 43.77 51.49 43.61C51.65 43.5 51.49 43.73 53.68 39.83C54.09 39.1 54.1 38.22 53.7 37.48Z" fill="#EC483B" fill-opacity="1.000000" fill-rule="nonzero"/>
	</g>
	<rect id="Container" rx="35.500000" width="71.000000" height="71.000000" transform="translate(0.500000 0.500000)" stroke="#141414" stroke-opacity="0.900000" stroke-width="1.000000"/>
</svg>
