<svg width="72" height="72.000000" viewBox="0 0 72 72" fill="none" xmlns="http://www.w3.org/2000/svg" xmlns:xlink="http://www.w3.org/1999/xlink">
	<desc>
			Created with Pixso.
	</desc>
	<defs>
		<clipPath id="clip21_943">
			<rect id="free-icon-agent-4935682" rx="0.000000" width="35.929688" height="35.929688" transform="translate(18.035156 18.035156)" fill="white" fill-opacity="0"/>
		</clipPath>
		<clipPath id="clip21_957">
			<rect id="free-icon-document-4248628" rx="0.000000" width="35.929688" height="35.929688" transform="translate(56.847656 18.035156)" fill="white" fill-opacity="0"/>
		</clipPath>
		<clipPath id="clip21_960">
			<rect id="free-icon-recycling-3283519" rx="0.000000" width="35.929688" height="35.929688" transform="translate(56.847656 18.035156)" fill="white" fill-opacity="0"/>
		</clipPath>
		<clipPath id="clip21_964">
			<rect id="free-icon-online-support-4935596" rx="0.000000" width="35.929688" height="35.929688" transform="translate(18.035156 18.035156)" fill="white" fill-opacity="0"/>
		</clipPath>
		<clipPath id="clip21_971">
			<rect id="free-icon-no-money-4935270" rx="0.000000" width="35.929688" height="35.929688" transform="translate(18.035156 18.035156)" fill="white" fill-opacity="0"/>
		</clipPath>
		<clipPath id="clip21_977">
			<rect id="free-icon-shield-6506912" rx="0.000000" width="35.929688" height="35.929688" transform="translate(18.035156 18.035156)" fill="white" fill-opacity="0"/>
		</clipPath>
		<clipPath id="clip21_980">
			<rect id="Frame 6" rx="0.000000" width="24.750000" height="8.625000" transform="translate(28.968506 19.312500)" fill="white" fill-opacity="0"/>
		</clipPath>
		<clipPath id="clip21_982">
			<rect id="free-icon-wheelbarrow-4591692" rx="0.000000" width="35.929688" height="35.929688" transform="translate(18.035156 18.035156)" fill="white" fill-opacity="0"/>
		</clipPath>
		<clipPath id="clip21_987">
			<rect id="free-icon-pin-7452980" rx="0.000000" width="35.929688" height="35.929688" transform="translate(18.035156 18.035156)" fill="white" fill-opacity="0"/>
		</clipPath>
		<clipPath id="clip21_1001">
			<rect id="free-icon-time-is-money-6775873" rx="0.000000" width="35.929688" height="35.929688" transform="translate(18.035156 18.035156)" fill="white" fill-opacity="0"/>
		</clipPath>
		<clipPath id="clip21_1009">
			<rect id="free-icon-document-6777288" rx="0.000000" width="35.929688" height="35.929688" transform="translate(18.035156 18.035156)" fill="white" fill-opacity="0"/>
		</clipPath>
		<clipPath id="clip21_1014">
			<rect id="free-icon-shield-4779724" rx="0.000000" width="35.929688" height="35.929688" transform="translate(18.035156 18.035156)" fill="white" fill-opacity="0"/>
		</clipPath>
		<clipPath id="clip21_1039">
			<rect id="free-icon-file-604695" rx="0.000000" width="35.893486" height="35.893486" transform="translate(18.053257 18.053257)" fill="white" fill-opacity="0"/>
		</clipPath>
		<clipPath id="clip21_1059">
			<rect id="free-icon-file-604695" rx="0.000000" width="35.893486" height="35.893486" transform="translate(18.053257 18.053257)" fill="white" fill-opacity="0"/>
		</clipPath>
		<clipPath id="clip21_1064">
			<rect id="free-icon-calendar-4610861" rx="0.000000" width="35.929688" height="35.929688" transform="translate(2.222656 18.035156)" fill="white" fill-opacity="0"/>
		</clipPath>
		<clipPath id="clip21_1073">
			<rect id="free-icon-tractor-10583052" rx="0.000000" width="35.929688" height="35.929688" transform="translate(41.035156 18.035156)" fill="white" fill-opacity="0"/>
		</clipPath>
		<clipPath id="clip21_1081">
			<rect id="free-icon-toy-truck-4591186" rx="0.000000" width="35.929688" height="35.929688" transform="translate(79.847656 18.035156)" fill="white" fill-opacity="0"/>
		</clipPath>
	</defs>
	<rect id="free-icon-online-support-4935596" rx="0.000000" width="35.929688" height="35.929688" transform="translate(18.035156 18.035156)" fill="#FFFFFF" fill-opacity="0"/>
	<g clip-path="url(#clip21_964)">
		<path id="Vector" d="M51.59 47.54L20.4 47.54C19.73 47.54 19.2 47.01 19.2 46.35L19.2 22.27C19.2 21.61 19.73 21.07 20.4 21.07L27 21.07C27.33 21.07 27.6 20.8 27.6 20.47C27.6 20.14 27.33 19.87 27 19.87L20.4 19.87C19.07 19.87 18 20.95 18 22.27L18 46.35C18 47.67 19.07 48.75 20.4 48.75L30.85 48.75L30.02 51.71C29.7 52.86 30.56 54 31.75 54L40.24 54C41.43 54 42.29 52.86 41.97 51.71C41.88 51.39 41.55 51.2 41.23 51.29C40.91 51.38 40.73 51.71 40.82 52.03C40.92 52.42 40.63 52.79 40.24 52.79L31.75 52.79C31.36 52.79 31.07 52.41 31.17 52.03L32.1 48.75L51.59 48.75C51.93 48.75 52.19 48.48 52.19 48.14C52.19 47.81 51.93 47.54 51.59 47.54Z" fill="#141414" fill-opacity="0.900000" fill-rule="nonzero"/>
		<path id="Vector" d="M51.59 19.87L45.67 19.87C45.34 19.87 45.07 20.14 45.07 20.47C45.07 20.8 45.34 21.07 45.67 21.07L51.59 21.07C52.26 21.07 52.79 21.61 52.79 22.27L52.79 43.8L45.89 43.8L45.89 43.47C45.89 41.82 44.84 40.35 43.28 39.81L40.68 38.91C39.72 38.58 39.04 37.75 38.9 36.77C41.18 35.64 42.59 33.32 42.59 30.84L42.59 27.9L43.68 27.9C44.07 27.9 44.39 28.22 44.39 28.61L44.39 30.85C44.39 31.24 44.09 31.55 43.71 31.57C43.44 31.58 43.21 31.78 43.15 32.05C42.81 33.69 42.02 35.19 40.86 36.4C40.49 36.78 40.77 37.42 41.29 37.42C41.45 37.42 41.6 37.35 41.72 37.23C42.95 35.96 43.81 34.4 44.24 32.69C45.03 32.45 45.59 31.72 45.59 30.85L45.59 28.61C45.59 27.73 44.99 26.98 44.17 26.76L44.17 23.43C44.17 20.43 41.73 18 38.71 18L34.57 18C32.45 18 30.56 19.19 29.65 21.06C28.6 21.25 27.81 22.17 27.81 23.26L27.81 25C27.81 25.33 28.07 25.6 28.41 25.6C28.74 25.6 29.01 25.33 29.01 25L29.01 23.26C29.01 22.69 29.48 22.23 30.06 22.23C30.31 22.23 30.53 22.07 30.62 21.85C31.27 20.24 32.82 19.2 34.58 19.2L38.71 19.2C41.07 19.2 42.97 21.09 42.97 23.43L42.97 26.7C41.95 26.7 41.92 26.68 41.78 26.74C38.65 27.12 35.53 26.28 33.03 24.35C32.71 24.11 32.24 24.24 32.1 24.62C31.73 25.59 30.99 26.36 29.97 26.7L28.31 26.7C27.26 26.7 26.4 27.56 26.4 28.61L26.4 30.85C26.4 31.55 26.78 32.2 27.39 32.53C27.68 32.69 28.04 32.59 28.2 32.3C28.36 32.01 28.26 31.64 27.97 31.48C27.74 31.36 27.6 31.12 27.6 30.85L27.6 28.61C27.6 28.22 27.92 27.9 28.31 27.9L29.4 27.9L29.4 30.77C29.4 32.12 29.79 33.42 30.55 34.53C30.73 34.81 31.11 34.88 31.38 34.69C31.66 34.51 31.73 34.14 31.54 33.86C30.92 32.95 30.6 31.88 30.6 30.77L30.6 27.75C31.54 27.37 32.35 26.69 32.9 25.74C35.46 27.49 38.45 28.22 41.39 27.98L41.39 30.84C41.39 34.67 37.49 37.3 33.95 35.83C33.56 35.67 33.13 35.95 33.12 36.38C33.09 37.63 32.32 38.56 31.31 38.91L28.7 39.81C27.85 40.1 27.13 40.69 26.66 41.46C26.42 41.86 26.71 42.37 27.17 42.37C27.37 42.37 27.57 42.27 27.69 42.08C28.01 41.55 28.51 41.14 29.1 40.94C31.92 39.97 31.97 39.98 32.41 39.72C33.45 41.85 36.11 42.49 38.05 41.36C38.34 41.2 38.44 40.83 38.27 40.54C38.1 40.26 37.74 40.16 37.45 40.33C36.03 41.15 34.01 40.65 33.37 38.91C33.79 38.43 34.09 37.84 34.23 37.2C35.37 37.52 36.6 37.52 37.76 37.2C38.04 38.5 38.99 39.6 40.28 40.04L42.89 40.94C43.97 41.31 44.7 42.33 44.7 43.47L44.7 43.8L22.94 43.8C22.61 43.8 22.34 44.06 22.34 44.4C22.34 44.73 22.61 45 22.94 45L53.39 45C53.73 45 53.99 44.73 53.99 44.4L53.99 22.27C53.99 20.95 52.92 19.87 51.59 19.87Z" fill="#EC483B" fill-opacity="1.000000" fill-rule="nonzero"/>
	</g>
	<rect id="Container" rx="35.500000" width="71.000000" height="71.000000" transform="translate(0.500000 0.500000)" stroke="#141414" stroke-opacity="0.900000" stroke-width="1.000000"/>
</svg>
