<svg width="72" height="72.000000" viewBox="0 0 72 72" fill="none" xmlns="http://www.w3.org/2000/svg" xmlns:xlink="http://www.w3.org/1999/xlink">
	<desc>
			Created with Pixso.
	</desc>
	<defs>
		<clipPath id="clip21_1239">
			<rect id="free-icon-agent-4935682" rx="0.000000" width="35.929688" height="35.929688" transform="translate(18.035156 18.035156)" fill="white" fill-opacity="0"/>
		</clipPath>
		<clipPath id="clip21_1253">
			<rect id="free-icon-document-4248628" rx="0.000000" width="35.929688" height="35.929688" transform="translate(18.035156 18.035156)" fill="white" fill-opacity="0"/>
		</clipPath>
		<clipPath id="clip21_1256">
			<rect id="free-icon-recycling-3283519" rx="0.000000" width="35.929688" height="35.929688" transform="translate(56.847656 18.035156)" fill="white" fill-opacity="0"/>
		</clipPath>
		<clipPath id="clip21_1260">
			<rect id="free-icon-online-support-4935596" rx="0.000000" width="35.929688" height="35.929688" transform="translate(56.847656 18.035156)" fill="white" fill-opacity="0"/>
		</clipPath>
		<clipPath id="clip21_1267">
			<rect id="free-icon-no-money-4935270" rx="0.000000" width="35.929688" height="35.929688" transform="translate(18.035156 18.035156)" fill="white" fill-opacity="0"/>
		</clipPath>
		<clipPath id="clip21_1273">
			<rect id="free-icon-shield-6506912" rx="0.000000" width="35.929688" height="35.929688" transform="translate(18.035156 18.035156)" fill="white" fill-opacity="0"/>
		</clipPath>
		<clipPath id="clip21_1276">
			<rect id="Frame 6" rx="0.000000" width="24.750000" height="8.625000" transform="translate(28.968506 19.312500)" fill="white" fill-opacity="0"/>
		</clipPath>
		<clipPath id="clip21_1278">
			<rect id="free-icon-wheelbarrow-4591692" rx="0.000000" width="35.929688" height="35.929688" transform="translate(18.035156 18.035156)" fill="white" fill-opacity="0"/>
		</clipPath>
		<clipPath id="clip21_1283">
			<rect id="free-icon-pin-7452980" rx="0.000000" width="35.929688" height="35.929688" transform="translate(18.035156 18.035156)" fill="white" fill-opacity="0"/>
		</clipPath>
		<clipPath id="clip21_1297">
			<rect id="free-icon-time-is-money-6775873" rx="0.000000" width="35.929688" height="35.929688" transform="translate(18.035156 18.035156)" fill="white" fill-opacity="0"/>
		</clipPath>
		<clipPath id="clip21_1305">
			<rect id="free-icon-document-6777288" rx="0.000000" width="35.929688" height="35.929688" transform="translate(18.035156 18.035156)" fill="white" fill-opacity="0"/>
		</clipPath>
		<clipPath id="clip21_1310">
			<rect id="free-icon-shield-4779724" rx="0.000000" width="35.929688" height="35.929688" transform="translate(18.035156 18.035156)" fill="white" fill-opacity="0"/>
		</clipPath>
		<clipPath id="clip21_1335">
			<rect id="free-icon-file-604695" rx="0.000000" width="35.893486" height="35.893486" transform="translate(18.053257 18.053257)" fill="white" fill-opacity="0"/>
		</clipPath>
		<clipPath id="clip21_1355">
			<rect id="free-icon-file-604695" rx="0.000000" width="35.893486" height="35.893486" transform="translate(18.053257 18.053257)" fill="white" fill-opacity="0"/>
		</clipPath>
		<clipPath id="clip21_1360">
			<rect id="free-icon-calendar-4610861" rx="0.000000" width="35.929688" height="35.929688" transform="translate(2.222656 18.035156)" fill="white" fill-opacity="0"/>
		</clipPath>
		<clipPath id="clip21_1369">
			<rect id="free-icon-tractor-10583052" rx="0.000000" width="35.929688" height="35.929688" transform="translate(41.035156 18.035156)" fill="white" fill-opacity="0"/>
		</clipPath>
		<clipPath id="clip21_1377">
			<rect id="free-icon-toy-truck-4591186" rx="0.000000" width="35.929688" height="35.929688" transform="translate(79.847656 18.035156)" fill="white" fill-opacity="0"/>
		</clipPath>
	</defs>
	<rect id="free-icon-document-4248628" rx="0.000000" width="35.929688" height="35.929688" transform="translate(18.035156 18.035156)" fill="#FFFFFF" fill-opacity="0"/>
	<g clip-path="url(#clip21_1253)">
		<path id="Vector" d="M27.38 45.68C27.71 45.68 27.98 45.41 27.98 45.08L27.98 44.02L34.35 44.02C34.68 44.02 34.95 43.75 34.95 43.42C34.95 43.09 34.68 42.82 34.35 42.82L27.98 42.82L27.98 38.77L34.35 38.77C34.68 38.77 34.95 38.5 34.95 38.17C34.95 37.84 34.68 37.57 34.35 37.57L27.98 37.57L27.98 33.52L35.03 33.52C35.36 33.52 35.63 33.25 35.63 32.92C35.63 32.59 35.36 32.32 35.03 32.32L27.98 32.32L27.98 28.95L40.12 28.95C40.53 28.95 40.87 29.29 40.87 29.7L40.87 31.2C40.87 31.53 41.14 31.8 41.47 31.8C41.8 31.8 42.07 31.53 42.07 31.2L42.07 29.7C42.07 28.62 41.2 27.75 40.12 27.75L23.93 27.75C22.86 27.75 21.98 28.62 21.98 29.7L21.98 43.42C21.98 43.75 22.25 44.02 22.58 44.02L26.78 44.02L26.78 45.08C26.78 45.41 27.05 45.68 27.38 45.68ZM26.78 37.57L23.18 37.57L23.18 33.52L26.78 33.52L26.78 37.57ZM23.93 28.95L26.78 28.95L26.78 32.32L23.18 32.32L23.18 29.7C23.18 29.29 23.52 28.95 23.93 28.95ZM23.18 42.82L23.18 38.77L26.78 38.77L26.78 42.82L23.18 42.82Z" fill="#EC483B" fill-opacity="1.000000" fill-rule="nonzero"/>
		<path id="Vector" d="M38.7 24.15C39.03 24.15 39.3 23.88 39.3 23.55C39.3 23.22 39.03 22.95 38.7 22.95L29.64 22.95C29.3 22.95 29.04 23.22 29.04 23.55C29.04 23.88 29.3 24.15 29.64 24.15L38.7 24.15Z" fill="#EC483B" fill-opacity="1.000000" fill-rule="nonzero"/>
		<path id="Vector" d="M26.81 24.15C27.14 24.15 27.41 23.88 27.41 23.55C27.41 23.22 27.14 22.95 26.81 22.95L25.5 22.95C25.17 22.95 24.9 23.22 24.9 23.55C24.9 23.88 25.17 24.15 25.5 24.15L26.81 24.15Z" fill="#EC483B" fill-opacity="1.000000" fill-rule="nonzero"/>
		<path id="Vector" d="M52.2 33.59L49.7 33.59C49.37 33.59 49.1 33.86 49.1 34.19C49.1 34.53 49.37 34.79 49.7 34.79L52.2 34.79C52.53 34.79 52.8 35.06 52.8 35.39L52.8 52.19C52.8 52.52 52.53 52.79 52.2 52.79L38.7 52.79C38.37 52.79 38.1 52.52 38.1 52.19L38.1 35.39C38.1 35.06 38.37 34.79 38.7 34.79L45.52 34.79C45.85 34.79 46.12 34.53 46.12 34.19L46.12 20.4C46.12 19.07 45.05 18 43.72 18L20.4 18C19.08 18 18 19.07 18 20.4C18 47.68 17.95 46.6 18.11 46.83C18.17 46.91 25.09 53.83 25.12 53.85C25.18 53.9 25.25 53.94 25.33 53.96C25.46 54 24.95 53.99 34.17 53.99C34.5 53.99 34.77 53.72 34.77 53.39C34.77 53.06 34.5 52.79 34.17 52.79L26.1 52.79L26.1 47.94C26.1 46.81 25.18 45.89 24.05 45.89L22.65 45.89C22.32 45.89 22.05 46.16 22.05 46.49C22.05 46.82 22.32 47.09 22.65 47.09L24.05 47.09C24.52 47.09 24.9 47.47 24.9 47.94L24.9 51.94L19.2 46.24L19.2 20.4C19.2 19.74 19.74 19.2 20.4 19.2L43.72 19.2C44.38 19.2 44.92 19.74 44.92 20.4L44.92 33.59L38.7 33.59C37.71 33.59 36.9 34.4 36.9 35.39L36.9 47.32L28.8 47.32C28.47 47.32 28.2 47.58 28.2 47.92C28.2 48.25 28.47 48.52 28.8 48.52L36.9 48.52L36.9 52.19C36.9 53.18 37.71 53.99 38.7 53.99L52.2 53.99C53.19 53.99 54 53.18 54 52.19L54 35.39C54 34.4 53.19 33.59 52.2 33.59Z" fill="#141414" fill-opacity="0.900000" fill-rule="nonzero"/>
		<path id="Vector" d="M50.7 40.64L50.7 37.04C50.7 36.71 50.43 36.44 50.1 36.44L40.8 36.44C40.47 36.44 40.2 36.71 40.2 37.04L40.2 40.64C40.2 40.97 40.47 41.24 40.8 41.24L47.26 41.24C47.59 41.24 47.86 40.97 47.86 40.64C47.86 40.31 47.59 40.04 47.26 40.04L41.4 40.04L41.4 37.64L49.5 37.64L49.5 40.64C49.5 40.97 49.76 41.24 50.1 41.24C50.43 41.24 50.7 40.97 50.7 40.64Z" fill="#141414" fill-opacity="0.900000" fill-rule="nonzero"/>
		<path id="Vector" d="M48.75 43.94L48.75 49.94C48.75 50.27 49.01 50.54 49.35 50.54C49.68 50.54 49.95 50.27 49.95 49.94L49.95 43.94C49.95 43.61 49.68 43.34 49.35 43.34C49.01 43.34 48.75 43.61 48.75 43.94Z" fill="#141414" fill-opacity="0.900000" fill-rule="nonzero"/>
		<path id="Vector" d="M42.52 49.34L41.55 49.34C41.22 49.34 40.95 49.61 40.95 49.94C40.95 50.27 41.22 50.54 41.55 50.54L42.52 50.54C42.85 50.54 43.12 50.27 43.12 49.94C43.12 49.61 42.85 49.34 42.52 49.34Z" fill="#141414" fill-opacity="0.900000" fill-rule="nonzero"/>
		<path id="Vector" d="M46.27 49.34L45.3 49.34C44.97 49.34 44.7 49.61 44.7 49.94C44.7 50.27 44.97 50.54 45.3 50.54L46.27 50.54C46.6 50.54 46.87 50.27 46.87 49.94C46.87 49.61 46.6 49.34 46.27 49.34Z" fill="#141414" fill-opacity="0.900000" fill-rule="nonzero"/>
		<path id="Vector" d="M42.52 46.34L41.55 46.34C41.22 46.34 40.95 46.61 40.95 46.94C40.95 47.27 41.22 47.54 41.55 47.54L42.52 47.54C42.85 47.54 43.12 47.27 43.12 46.94C43.12 46.61 42.85 46.34 42.52 46.34Z" fill="#141414" fill-opacity="0.900000" fill-rule="nonzero"/>
		<path id="Vector" d="M46.27 46.34L45.3 46.34C44.97 46.34 44.7 46.61 44.7 46.94C44.7 47.27 44.97 47.54 45.3 47.54L46.27 47.54C46.6 47.54 46.87 47.27 46.87 46.94C46.87 46.61 46.6 46.34 46.27 46.34Z" fill="#141414" fill-opacity="0.900000" fill-rule="nonzero"/>
		<path id="Vector" d="M42.52 43.34L41.55 43.34C41.22 43.34 40.95 43.61 40.95 43.94C40.95 44.27 41.22 44.54 41.55 44.54L42.52 44.54C42.85 44.54 43.12 44.27 43.12 43.94C43.12 43.61 42.85 43.34 42.52 43.34Z" fill="#141414" fill-opacity="0.900000" fill-rule="nonzero"/>
		<path id="Vector" d="M46.27 43.34L45.3 43.34C44.97 43.34 44.7 43.61 44.7 43.94C44.7 44.27 44.97 44.54 45.3 44.54L46.27 44.54C46.6 44.54 46.87 44.27 46.87 43.94C46.87 43.61 46.6 43.34 46.27 43.34Z" fill="#141414" fill-opacity="0.900000" fill-rule="nonzero"/>
	</g>
	<rect id="Container" rx="35.500000" width="71.000000" height="71.000000" transform="translate(0.500000 0.500000)" stroke="#141414" stroke-opacity="0.900000" stroke-width="1.000000"/>
</svg>
