<svg width="96.000000" height="96.000000" viewBox="0 0 96 96" fill="none" xmlns="http://www.w3.org/2000/svg" xmlns:xlink="http://www.w3.org/1999/xlink">
	<desc>
			Created with Pixso.
	</desc>
	<defs>
		<clipPath id="clip2315_991">
			<rect id="free-icon-timer-3279146 1" rx="0.000000" width="95.812500" height="95.812500" transform="translate(0.093750 0.093750)" fill="white" fill-opacity="0"/>
		</clipPath>
	</defs>
	<rect id="free-icon-timer-3279146 1" rx="0.000000" width="95.812500" height="95.812500" transform="translate(0.093750 0.093750)" fill="#FFFFFF" fill-opacity="0"/>
	<g clip-path="url(#clip2315_991)">
		<path id="Vector" d="M47.97 96C26.36 96 8.77 78.41 8.77 56.8C8.77 40.49 18.8 25.99 33.9 20.2C30.28 10.35 37.61 0 47.97 0C58.33 0 65.67 10.34 62.05 20.19C66.62 21.94 70.85 24.57 74.54 27.97L77.01 25.49L76.23 24.71C75.61 24.09 75.61 23.07 76.23 22.45C76.86 21.83 77.87 21.83 78.5 22.45C82.2 26.15 78.67 22.63 82.32 26.27C82.94 26.9 82.94 27.91 82.32 28.54C81.69 29.16 80.68 29.16 80.06 28.54L79.28 27.76C75.41 31.62 75.43 31.81 74.56 31.81C74.15 31.81 73.74 31.65 73.43 31.34C66.54 24.45 57.44 20.8 47.97 20.8C47.09 20.8 46.37 20.08 46.37 19.2L46.37 13L43.57 13C42.69 13 41.97 12.28 41.97 11.4C41.97 10.51 42.69 9.8 43.57 9.8L52.37 9.8C53.26 9.8 53.97 10.51 53.97 11.4C53.97 12.28 53.26 13 52.37 13L49.57 13L49.57 17.63C52.81 17.76 55.97 18.28 59.02 19.17C61.93 11.49 56.22 3.19 47.97 3.19C41.47 3.19 36.17 8.49 36.17 15C36.17 18.11 37.36 20.05 37.56 20.58C37.86 21.43 37.41 22.36 36.56 22.64C21.85 27.55 11.97 41.28 11.97 56.8C11.97 76.65 28.12 92.8 47.97 92.8C74.69 92.8 92.18 64.5 80.14 40.62C79.75 39.83 80.06 38.87 80.85 38.47C81.64 38.07 82.6 38.39 83 39.18C96.09 65.15 77.1 96 47.97 96ZM77.97 56.8C77.97 73.34 64.52 86.8 47.97 86.8C31.43 86.8 17.97 73.34 17.97 56.8C17.97 40.25 31.43 26.8 47.97 26.8C64.52 26.8 77.97 40.25 77.97 56.8ZM74.77 56.8C74.77 42.02 62.75 30 47.97 30C33.2 30 21.17 42.02 21.17 56.8C21.17 71.57 33.2 83.6 47.97 83.6C62.75 83.6 74.77 71.57 74.77 56.8ZM52.97 55.2C52.09 55.2 51.37 55.91 51.37 56.8C51.37 58.67 49.85 60.2 47.97 60.2C46.1 60.2 44.57 58.67 44.57 56.8C44.57 54.92 46.1 53.4 47.97 53.4C48.86 53.4 49.57 52.68 49.57 51.8L49.57 38.8C49.57 37.91 48.86 37.2 47.97 37.2C47.09 37.2 46.37 37.91 46.37 38.8L46.37 50.39C43.51 51.11 41.37 53.71 41.37 56.8C41.37 60.43 44.33 63.4 47.97 63.4C54.23 63.4 56.38 55.2 52.97 55.2Z" fill="#141414" fill-opacity="0.900000" fill-rule="nonzero"/>
		<path id="Vector" d="M77.97 56.8C77.97 73.34 64.52 86.8 47.97 86.8C31.43 86.8 17.97 73.34 17.97 56.8C17.97 40.25 31.43 26.8 47.97 26.8C64.52 26.8 77.97 40.25 77.97 56.8ZM74.77 56.8C74.77 42.02 62.75 30 47.97 30C33.2 30 21.17 42.02 21.17 56.8C21.17 71.57 33.2 83.6 47.97 83.6C62.75 83.6 74.77 71.57 74.77 56.8ZM52.97 55.2C52.09 55.2 51.37 55.91 51.37 56.8C51.37 58.67 49.85 60.2 47.97 60.2C46.1 60.2 44.57 58.67 44.57 56.8C44.57 54.92 46.1 53.4 47.97 53.4C48.86 53.4 49.57 52.68 49.57 51.8L49.57 38.8C49.57 37.91 48.86 37.2 47.97 37.2C47.09 37.2 46.37 37.91 46.37 38.8L46.37 50.39C43.51 51.11 41.37 53.71 41.37 56.8C41.37 60.43 44.33 63.4 47.97 63.4C54.23 63.4 56.38 55.2 52.97 55.2Z" fill="#EC483B" fill-opacity="1.000000" fill-rule="nonzero"/>
	</g>
</svg>
