<svg width="96.000000" height="96.000000" viewBox="0 0 96 96" fill="none" xmlns="http://www.w3.org/2000/svg" xmlns:xlink="http://www.w3.org/1999/xlink">
	<desc>
			Created with Pixso.
	</desc>
	<defs>
		<clipPath id="clip10_1390">
			<rect id="free-icon-guarantee-1011736" rx="0.000000" width="95.739151" height="95.739151" transform="translate(0.130425 0.130425)" fill="white" fill-opacity="0"/>
		</clipPath>
	</defs>
	<rect id="free-icon-guarantee-1011736" rx="0.000000" width="95.739151" height="95.739151" transform="translate(0.130425 0.130425)" fill="#FFFFFF" fill-opacity="0"/>
	<g clip-path="url(#clip10_1390)">
		<path id="Vector" d="M94.83 53.45C94.29 51.51 93.79 49.67 93.79 47.99C93.79 46.32 94.29 44.48 94.83 42.54C95.68 39.45 96.57 36.25 95.51 33.14C94.42 29.9 91.69 27.79 89.06 25.75C87.48 24.52 85.99 23.37 85.02 22.1C84.03 20.8 83.34 19.07 82.6 17.23C81.39 14.22 80.14 11.1 77.33 9.14C74.57 7.21 71.13 7.03 67.81 6.85C65.73 6.74 63.77 6.63 62.13 6.12C60.59 5.65 59 4.65 57.32 3.6C54.61 1.91 51.54 0 47.99 0C44.44 0 41.37 1.91 38.67 3.61C36.99 4.66 35.4 5.65 33.86 6.13C32.22 6.64 30.26 6.74 28.18 6.85C24.85 7.03 21.42 7.22 18.65 9.15C15.85 11.1 14.6 14.22 13.39 17.23C12.65 19.07 11.95 20.8 10.97 22.1C10 23.37 8.5 24.53 6.93 25.76C4.29 27.8 1.57 29.91 0.48 33.14C-0.58 36.25 0.3 39.45 1.16 42.54C1.69 44.49 2.2 46.32 2.2 48C2.2 49.67 1.69 51.51 1.16 53.45C0.3 56.54 -0.58 59.74 0.48 62.86C1.57 66.09 4.29 68.2 6.93 70.24C8.51 71.47 10 72.62 10.97 73.9C11.95 75.19 12.65 76.93 13.39 78.76C14.6 81.78 15.85 84.89 18.66 86.86C21.42 88.78 24.86 88.96 28.18 89.14C30.26 89.25 32.22 89.36 33.86 89.87C35.4 90.35 36.98 91.34 38.66 92.39C41.37 94.07 44.44 95.99 47.99 95.99C51.54 95.99 54.62 94.07 57.33 92.38C59.01 91.34 60.59 90.34 62.13 89.87C63.77 89.36 65.74 89.25 67.81 89.14C71.14 88.96 74.57 88.78 77.33 86.85C80.14 84.89 81.39 81.77 82.61 78.75C83.34 76.92 84.04 75.19 85.02 73.9C85.99 72.62 87.48 71.47 89.06 70.24C91.69 68.2 94.42 66.09 95.51 62.85C96.57 59.74 95.68 56.54 94.83 53.45ZM91.56 61.52C90.87 63.56 88.75 65.2 86.5 66.94C84.78 68.28 83 69.66 81.69 71.37C80.37 73.12 79.54 75.19 78.73 77.2C77.7 79.76 76.73 82.18 74.94 83.43C73.16 84.67 70.45 84.82 67.59 84.97C65.35 85.09 63.03 85.21 60.89 85.88C58.84 86.52 56.95 87.7 55.12 88.84C52.66 90.37 50.35 91.82 47.99 91.82C45.64 91.82 43.32 90.37 40.87 88.84C39.04 87.7 37.15 86.52 35.1 85.88C32.96 85.21 30.64 85.09 28.4 84.97C25.54 84.82 22.83 84.67 21.05 83.43C19.26 82.18 18.29 79.76 17.26 77.2C16.45 75.19 15.61 73.12 14.29 71.37C12.99 69.66 11.21 68.28 9.49 66.94C7.24 65.2 5.12 63.56 4.43 61.52C3.79 59.62 4.46 57.16 5.18 54.56C5.76 52.43 6.37 50.24 6.37 47.99C6.37 45.75 5.76 43.56 5.18 41.43C4.46 38.83 3.79 36.37 4.43 34.47C5.12 32.43 7.24 30.79 9.48 29.05C11.21 27.71 12.99 26.33 14.29 24.61C15.62 22.87 16.45 20.79 17.26 18.78C18.29 16.22 19.26 13.8 21.04 12.56C22.83 11.32 25.54 11.17 28.41 11.02C30.64 10.9 32.96 10.77 35.1 10.11C37.15 9.47 39.05 8.29 40.88 7.14C43.33 5.62 45.64 4.17 47.99 4.17C50.35 4.17 52.66 5.62 55.11 7.15C56.94 8.29 58.84 9.47 60.89 10.11C63.03 10.78 65.34 10.9 67.58 11.02C70.45 11.17 73.16 11.32 74.94 12.57C76.73 13.81 77.7 16.23 78.73 18.79C79.54 20.8 80.37 22.87 81.7 24.62C83 26.33 84.78 27.71 86.5 29.05C88.75 30.79 90.87 32.43 91.56 34.48C92.2 36.38 91.52 38.83 90.81 41.43C90.22 43.56 89.62 45.75 89.62 48C89.62 50.24 90.22 52.44 90.81 54.56C91.53 57.16 92.2 59.62 91.56 61.52Z" fill="#EC483B" fill-opacity="1.000000" fill-rule="nonzero"/>
		<path id="Vector" d="M47.99 16.69C30.73 16.69 16.69 30.74 16.69 47.99C16.69 65.25 30.73 79.3 47.99 79.3C65.25 79.3 79.3 65.25 79.3 47.99C79.3 30.74 65.25 16.69 47.99 16.69ZM47.99 75.12C33.04 75.12 20.86 62.95 20.86 47.99C20.86 33.04 33.04 20.87 47.99 20.87C55.71 20.87 62.66 24.12 67.61 29.31L47.72 57.29L36.95 46.52C36.13 45.7 34.81 45.7 34 46.52C33.18 47.34 33.18 48.65 34 49.47L46.52 61.99C46.91 62.39 47.44 62.6 47.99 62.6C48.05 62.6 48.11 62.6 48.17 62.59C48.78 62.54 49.34 62.22 49.69 61.72L70.35 32.66C73.35 37.02 75.12 42.3 75.12 47.99C75.12 62.95 62.95 75.12 47.99 75.12Z" fill="#141414" fill-opacity="0.900000" fill-rule="nonzero"/>
	</g>
</svg>
