<svg width="96.000000" height="96.000000" viewBox="0 0 96 96" fill="none" xmlns="http://www.w3.org/2000/svg" xmlns:xlink="http://www.w3.org/1999/xlink">
	<desc>
			Created with Pixso.
	</desc>
	<defs>
		<clipPath id="clip10_1497">
			<rect id="free-icon-invoices-2922982" rx="0.000000" width="95.812500" height="95.812500" transform="translate(0.093750 0.093750)" fill="white" fill-opacity="0"/>
		</clipPath>
	</defs>
	<rect id="free-icon-invoices-2922982" rx="0.000000" width="95.812500" height="95.812500" transform="translate(0.093750 0.093750)" fill="#FFFFFF" fill-opacity="0"/>
	<g clip-path="url(#clip10_1497)">
		<path id="Vector" d="M43 32.8C43 44.37 52.42 53.8 64 53.8C75.57 53.8 85 44.37 85 32.8C85 21.22 75.57 11.8 64 11.8C52.42 11.8 43 21.22 43 32.8ZM81.8 32.8C81.8 42.61 73.81 50.6 64 50.6C54.18 50.6 46.2 42.61 46.2 32.8C46.2 22.98 54.18 15 64 15C73.81 15 81.8 22.98 81.8 32.8ZM64 22C64.88 22 65.6 22.71 65.6 23.6L65.6 24.27C67.46 24.93 68.8 26.71 68.8 28.8C68.8 29.68 68.08 30.4 67.19 30.4C66.31 30.4 65.6 29.68 65.6 28.8C65.6 27.91 64.88 27.2 64 27.2C63.11 27.2 62.39 27.91 62.39 28.8L62.39 29.44C62.39 30.15 62.85 30.76 63.52 30.97L65.43 31.57C67.44 32.2 68.8 34.04 68.8 36.15L68.8 36.8C68.8 39.1 67.16 41.03 65 41.49L65 42C65 42.88 64.28 43.6 63.39 43.6C62.51 43.6 61.8 42.88 61.8 42L61.8 41.06C60.25 40.26 59.2 38.65 59.2 36.8C59.2 35.91 59.91 35.2 60.8 35.2C61.68 35.2 62.39 35.91 62.39 36.8C62.39 37.68 63.11 38.4 64 38.4C64.88 38.4 65.6 37.68 65.6 36.8L65.6 36.15C65.6 35.44 65.14 34.83 64.47 34.62L62.56 34.02C60.55 33.39 59.2 31.55 59.2 29.44L59.2 28.8C59.2 26.71 60.53 24.93 62.39 24.27L62.39 23.6C62.39 22.71 63.11 22 64 22ZM90 64.4L90 84.8C90 90.97 84.97 96 78.8 96L17.2 96C11.02 96 6 90.97 6 84.8L6 6.4C6 2.87 8.87 0 12.39 0L64.39 0C67.92 0 70.8 2.87 70.8 6.4C70.8 7.28 70.08 8 69.19 8C68.31 8 67.6 7.28 67.6 6.4C67.6 4.63 66.16 3.19 64.39 3.19L12.39 3.19C10.63 3.19 9.19 4.63 9.19 6.4L9.19 84.8C9.19 89.21 12.78 92.8 17.2 92.8L70.97 92.8C68.89 90.76 67.6 87.93 67.6 84.8L67.6 59.8C67.6 58.91 68.31 58.2 69.19 58.2C70.08 58.2 70.8 58.91 70.8 59.8L70.8 84.8C70.8 89.21 74.38 92.8 78.8 92.8C83.21 92.8 86.8 89.21 86.8 84.8L86.8 64.4C86.8 62.63 85.36 61.2 83.6 61.2L76.8 61.2C75.91 61.2 75.19 60.48 75.19 59.6C75.19 58.71 75.91 58 76.8 58L83.6 58C87.12 58 90 60.87 90 64.4ZM20 43C20 42.11 20.71 41.4 21.6 41.4L35.2 41.4C36.08 41.4 36.8 42.11 36.8 43C36.8 43.88 36.08 44.6 35.2 44.6L21.6 44.6C20.71 44.6 20 43.88 20 43ZM20 25C20 24.11 20.71 23.4 21.6 23.4L35.2 23.4C36.08 23.4 36.8 24.11 36.8 25C36.8 25.88 36.08 26.6 35.2 26.6L21.6 26.6C20.71 26.6 20 25.88 20 25ZM56.8 61C56.8 61.88 56.08 62.6 55.2 62.6L21.6 62.6C20.71 62.6 20 61.88 20 61C20 60.11 20.71 59.4 21.6 59.4L55.2 59.4C56.08 59.4 56.8 60.11 56.8 61ZM56.8 77.8C56.8 78.68 56.08 79.4 55.2 79.4L21.6 79.4C20.71 79.4 20 78.68 20 77.8C20 76.91 20.71 76.19 21.6 76.19L55.2 76.19C56.08 76.19 56.8 76.91 56.8 77.8Z" fill="#141414" fill-opacity="0.900000" fill-rule="nonzero"/>
		<path id="Vector" d="M43 32.8C43 44.37 52.42 53.8 64 53.8C75.57 53.8 85 44.37 85 32.8C85 21.22 75.57 11.8 64 11.8C52.42 11.8 43 21.22 43 32.8ZM81.8 32.8C81.8 42.61 73.81 50.6 64 50.6C54.18 50.6 46.2 42.61 46.2 32.8C46.2 22.98 54.18 15 64 15C73.81 15 81.8 22.98 81.8 32.8ZM64 22C64.88 22 65.6 22.71 65.6 23.6L65.6 24.27C67.46 24.93 68.8 26.71 68.8 28.8C68.8 29.68 68.08 30.4 67.19 30.4C66.31 30.4 65.6 29.68 65.6 28.8C65.6 27.91 64.88 27.2 64 27.2C63.11 27.2 62.39 27.91 62.39 28.8L62.39 29.44C62.39 30.15 62.85 30.76 63.52 30.97L65.43 31.57C67.44 32.2 68.8 34.04 68.8 36.15L68.8 36.8C68.8 39.1 67.16 41.03 65 41.49L65 42C65 42.88 64.28 43.6 63.39 43.6C62.51 43.6 61.8 42.88 61.8 42L61.8 41.06C60.25 40.26 59.2 38.65 59.2 36.8C59.2 35.91 59.91 35.2 60.8 35.2C61.68 35.2 62.39 35.91 62.39 36.8C62.39 37.68 63.11 38.4 64 38.4C64.88 38.4 65.6 37.68 65.6 36.8L65.6 36.15C65.6 35.44 65.14 34.83 64.47 34.62L62.56 34.02C60.55 33.39 59.2 31.55 59.2 29.44L59.2 28.8C59.2 26.71 60.53 24.93 62.39 24.27L62.39 23.6C62.39 22.71 63.11 22 64 22Z" fill="#EC483B" fill-opacity="1.000000" fill-rule="nonzero"/>
	</g>
</svg>
