<svg width="24.000000" height="22.245300" viewBox="0 0 24 22.2453" fill="none" xmlns="http://www.w3.org/2000/svg" xmlns:xlink="http://www.w3.org/1999/xlink">
	<desc>
			Created with Pixso.
	</desc>
	<defs/>
	<path id="Vector" d="M23.64 1.92C23.17 1.45 22.4 1.45 21.93 1.92L11.09 12.76L6.09 7.77C5.62 7.3 4.86 7.3 4.38 7.77C3.91 8.24 3.91 9.01 4.38 9.48L10.23 15.33C10.46 15.55 10.77 15.68 11.09 15.68C11.41 15.68 11.72 15.55 11.94 15.33L23.64 3.63C24.11 3.15 24.11 2.39 23.64 1.92Z" fill="#EC483B" fill-opacity="1.000000" fill-rule="nonzero"/>
	<path id="Vector" d="M21.03 9.66C20.36 9.66 19.82 10.2 19.82 10.87L19.82 19.82L2.41 19.82L2.41 2.41L16.2 2.41C16.87 2.41 17.41 1.87 17.41 1.2C17.41 0.54 16.87 0 16.2 0L1.2 0C0.54 0 0 0.54 0 1.2L0 21.03C0 21.7 0.54 22.24 1.2 22.24L21.03 22.24C21.7 22.24 22.24 21.7 22.24 21.03L22.24 10.87C22.24 10.2 21.7 9.66 21.03 9.66Z" fill="#EC483B" fill-opacity="1.000000" fill-rule="nonzero"/>
</svg>
