<svg width="147.000000" height="106.000000" viewBox="0 0 147 106" fill="none" xmlns="http://www.w3.org/2000/svg" xmlns:xlink="http://www.w3.org/1999/xlink">
	<desc>
			Created with Pixso.
	</desc>
	<defs/>
	<path id="Rectangle 123" d="M0 0L147 0L147 106L73.5 75.54L0 106L0 0Z" fill="#EC483B" fill-opacity="1.000000" fill-rule="nonzero"/>
	<path id="Text" d="M31.02 26.12L31.02 35.41L37.92 35.41L37.92 37.24L39.94 37.24L39.94 33.48L38.79 33.48L38.79 26.12L36.52 26.12L36.52 33.48L33.3 33.48L33.3 26.12L31.02 26.12ZM41.33 26.12L41.33 35.41L47.33 35.41L47.33 33.47L43.6 33.47L43.6 31.71L46.44 31.71L46.44 29.76L43.6 29.76L43.6 28.07L47.15 28.07L47.15 26.12L41.33 26.12ZM48.82 26.12L48.82 35.41L51.09 35.41L51.09 31.78L54.47 31.78L54.47 35.41L56.75 35.41L56.75 26.12L54.47 26.12L54.47 29.84L51.09 29.84L51.09 26.12L48.82 26.12ZM58.7 26.12L58.7 35.41L62.43 35.41C63.33 35.41 64.06 35.12 64.61 34.52C65.17 33.92 65.46 33.15 65.46 32.22C65.46 31.27 65.17 30.5 64.61 29.9C64.06 29.3 63.33 28.99 62.43 28.99L60.97 28.99L60.97 26.12L58.7 26.12ZM66.5 26.12L66.5 35.41L68.77 35.41L68.77 26.12L66.5 26.12ZM73.97 26.12L73.97 35.41L76.24 35.41L76.24 31.78L79.62 31.78L79.62 35.41L81.9 35.41L81.9 26.12L79.62 26.12L79.62 29.84L76.24 29.84L76.24 26.12L73.97 26.12ZM83.85 26.12L83.85 35.41L86.13 35.41L88.72 31.09C88.96 30.68 89.22 30.15 89.5 29.5L89.53 29.5L89.42 31.09L89.42 35.41L91.7 35.41L91.7 26.12L89.4 26.12L86.82 30.46Q86.46 31.07 86.04 32.05L86.02 32.05L86.12 30.46L86.12 26.12L83.85 26.12ZM95.25 30.59L92.75 35.41L95.3 35.41L97.1 31.65L97.99 31.65L97.99 35.41L100.26 35.41L100.26 31.65L101.15 31.65L102.95 35.41L105.5 35.41L103.01 30.59L103.01 30.57L105.31 26.12L102.86 26.12L101.15 29.71L100.26 29.71L100.26 26.12L97.99 26.12L97.99 29.71L97.1 29.71L95.39 26.12L92.94 26.12L95.25 30.57L95.25 30.59ZM106.56 26.12L106.56 35.41L112.56 35.41L112.56 33.47L108.83 33.47L108.83 31.71L111.67 31.71L111.67 29.76L108.83 29.76L108.83 28.07L112.38 28.07L112.38 26.12L106.56 26.12ZM62 33.47L60.97 33.47L60.97 30.94L61.96 30.94C62.34 30.94 62.63 31.06 62.83 31.29Q62.87 31.34 62.91 31.39Q63.14 31.72 63.14 32.22Q63.14 32.75 62.88 33.08Q62.86 33.1 62.84 33.13C62.64 33.35 62.36 33.47 62 33.47ZM114.19 33.26L113.22 36.86L114.87 36.86L116.34 33.26L114.19 33.26ZM15.27 47.36C15.77 47.87 16.49 48.13 17.46 48.13Q18.59 48.13 19.74 47.63L19.77 47.63L19.74 48.05L19.74 51.42L22.07 51.42L22.07 42.12L19.74 42.12L19.74 45.63C19.27 45.92 18.72 46.06 18.11 46.06C17.28 46.06 16.87 45.6 16.87 44.68L16.87 42.12L14.54 42.12L14.54 45.21Q14.54 46.5 15.18 47.25Q15.22 47.31 15.27 47.36ZM24.03 42.12L24.03 51.42L30.03 51.42L30.03 49.47L26.3 49.47L26.3 47.71L29.13 47.71L29.13 45.76L26.3 45.76L26.3 44.07L29.85 44.07L29.85 42.12L24.03 42.12ZM31.92 42.12L31.15 51.42L33.44 51.42L33.73 47.23C33.76 46.76 33.76 46.24 33.73 45.67L33.75 45.67L34.27 47.23L35.25 49.92L37.2 49.92L38.17 47.23C38.31 46.84 38.48 46.32 38.69 45.67L38.72 45.67L38.7 45.9C38.7 46.06 38.69 46.27 38.69 46.53C38.69 46.79 38.7 47.02 38.72 47.23L39 51.42L41.28 51.42L40.52 42.12L38.05 42.12L36.7 46.05C36.56 46.44 36.41 46.96 36.23 47.58L36.21 47.58L35.74 46.05L34.39 42.12L31.92 42.12ZM46.13 42.12L46.13 51.42L48.4 51.42L48.4 47.78L51.78 47.78L51.78 51.42L54.06 51.42L54.06 42.12L51.78 42.12L51.78 45.84L48.4 45.84L48.4 42.12L46.13 42.12ZM58.15 42.12L54.99 51.42L57.33 51.42L57.89 49.47L60.79 49.47L61.36 51.42L63.7 51.42L60.54 42.12L58.15 42.12ZM67.89 42.12L67.89 51.42L70.16 51.42L70.16 47.65L71.1 47.65L73.06 51.42L75.61 51.42L72.96 46.59L72.96 46.57L75.47 42.12L73.02 42.12L71.1 45.71L70.16 45.71L70.16 42.12L67.89 42.12ZM78.8 42.12L75.65 51.42L77.99 51.42L78.54 49.47L81.44 49.47L82.02 51.42L84.36 51.42L81.2 42.12L78.8 42.12ZM85.29 42.12L85.29 51.42L87.57 51.42L87.57 48.54L89.15 48.54C90.06 48.54 90.78 48.24 91.34 47.65C91.9 47.04 92.18 46.26 92.18 45.32C92.18 44.38 91.9 43.62 91.34 43.02C90.78 42.42 90.06 42.12 89.15 42.12L85.29 42.12ZM93.42 42.12L93.42 51.42L97.28 51.42C98.18 51.42 98.91 51.12 99.46 50.52C100.03 49.92 100.31 49.15 100.31 48.22C100.31 47.27 100.03 46.5 99.46 45.9C98.91 45.3 98.18 44.99 97.28 44.99L95.69 44.99L95.69 42.12L93.42 42.12ZM101.54 42.12L101.54 51.42L107.55 51.42L107.55 49.47L103.82 49.47L103.82 47.71L106.65 47.71L106.65 45.76L103.82 45.76L103.82 44.07L107.37 44.07L107.37 42.12L101.54 42.12ZM109.03 42.12L109.03 51.42L111.31 51.42L111.31 48.54L112.89 48.54C113.8 48.54 114.52 48.24 115.08 47.65C115.64 47.04 115.92 46.26 115.92 45.32C115.92 44.38 115.64 43.62 115.08 43.02C114.52 42.42 113.8 42.12 112.89 42.12L109.03 42.12ZM118.86 42.12L115.7 51.42L118.04 51.42L118.6 49.47L121.5 49.47L122.07 51.42L124.41 51.42L121.25 42.12L118.86 42.12ZM127.3 46.8L124.48 51.42L127 51.42L128.06 49.47C128.28 49.08 128.47 48.69 128.64 48.31L128.66 48.31L129.23 49.47L130.3 51.42L132.83 51.42L130 46.8L132.85 42.12L130.26 42.12L129.23 44.03C129.02 44.43 128.83 44.83 128.66 45.23L128.64 45.23L128.06 44.03L127.05 42.12L124.46 42.12L127.3 46.8ZM88.69 46.59L87.57 46.59L87.57 44.07L88.72 44.07C89.09 44.07 89.37 44.18 89.57 44.41C89.77 44.63 89.87 44.94 89.87 45.32C89.87 45.7 89.76 46.01 89.56 46.24C89.36 46.48 89.07 46.59 88.69 46.59ZM112.43 46.59L111.31 46.59L111.31 44.07L112.47 44.07C112.83 44.07 113.11 44.18 113.31 44.41C113.51 44.63 113.61 44.94 113.61 45.32C113.61 45.7 113.51 46.01 113.3 46.24C113.1 46.48 112.81 46.59 112.43 46.59ZM60.26 47.65L58.42 47.65L58.96 45.84C59.07 45.45 59.19 44.92 59.33 44.24L59.36 44.24L59.74 45.84L60.26 47.65ZM80.91 47.65L79.08 47.65L79.61 45.84C79.72 45.45 79.85 44.92 79.99 44.24L80.01 44.24L80.39 45.84L80.91 47.65ZM120.97 47.65L119.13 47.65L119.67 45.84C119.78 45.45 119.9 44.92 120.04 44.24L120.07 44.24L120.45 45.84L120.97 47.65ZM96.85 49.47L95.69 49.47L95.69 46.94L96.81 46.94C97.19 46.94 97.48 47.06 97.68 47.29C97.89 47.53 97.99 47.84 97.99 48.22C97.99 48.6 97.89 48.9 97.69 49.13C97.5 49.35 97.21 49.47 96.85 49.47Z" fill="#FFFFFF" fill-opacity="1.000000" fill-rule="evenodd"/>
</svg>
