<svg width="14.193604" height="23.999954" viewBox="0 0 14.1936 24" fill="none" xmlns="http://www.w3.org/2000/svg" xmlns:xlink="http://www.w3.org/1999/xlink">
	<desc>
			Created with Pixso.
	</desc>
	<defs/>
	<path id="Vector" d="M11.98 0L2.2 0C0.98 0 0 0.98 0 2.2L0 21.79C0 23.01 0.98 24 2.2 24L11.98 24C13.2 24 14.19 23.01 14.19 21.79L14.19 2.2C14.19 0.98 13.2 0 11.98 0ZM9.25 1.4L8.92 2.62L5.26 2.62L4.93 1.4L9.25 1.4ZM12.78 21.79C12.78 22.23 12.42 22.59 11.98 22.59L2.2 22.59C1.76 22.59 1.4 22.23 1.4 21.79L1.4 2.2C1.4 1.76 1.76 1.4 2.2 1.4L3.48 1.4L4.18 4.03L10 4.03L10.71 1.4L11.98 1.4C12.42 1.4 12.78 1.76 12.78 2.2L12.78 21.79Z" fill="#EC483B" fill-opacity="1.000000" fill-rule="nonzero"/>
	<path id="Vector" d="M5.26 19.78L8.92 19.78L8.92 21.18L5.26 21.18L5.26 19.78Z" fill="#EC483B" fill-opacity="1.000000" fill-rule="nonzero"/>
</svg>
