<svg width="28.387207" height="48.000000" viewBox="0 0 28.3872 48" fill="none" xmlns="http://www.w3.org/2000/svg" xmlns:xlink="http://www.w3.org/1999/xlink">
	<desc>
			Created with Pixso.
	</desc>
	<defs/>
	<path id="Vector" d="M23.97 0L4.41 0C1.97 0 0 1.97 0 4.41L0 43.58C0 46.02 1.97 48 4.41 48L23.97 48C26.4 48 28.38 46.02 28.38 43.58L28.38 4.41C28.38 1.97 26.4 0 23.97 0ZM18.5 2.81L17.85 5.25L10.53 5.25L9.87 2.81L18.5 2.81ZM25.57 43.58C25.57 44.46 24.85 45.18 23.97 45.18L4.41 45.18C3.53 45.18 2.81 44.46 2.81 43.58L2.81 4.41C2.81 3.53 3.53 2.81 4.41 2.81L6.96 2.81L8.37 8.06L20.01 8.06L21.42 2.81L23.97 2.81C24.85 2.81 25.57 3.53 25.57 4.41L25.57 43.58Z" fill="#FFFFFF" fill-opacity="1.000000" fill-rule="nonzero"/>
	<path id="Vector" d="M10.53 39.56L17.84 39.56L17.84 42.37L10.53 42.37L10.53 39.56Z" fill="#FFFFFF" fill-opacity="1.000000" fill-rule="nonzero"/>
</svg>
