<svg width="72" height="72.000000" viewBox="0 0 72 72" fill="none" xmlns="http://www.w3.org/2000/svg" xmlns:xlink="http://www.w3.org/1999/xlink">
	<desc>
			Created with Pixso.
	</desc>
	<defs>
		<clipPath id="clip10_1596">
			<rect id="free-icon-agent-4935682" rx="0.000000" width="35.929688" height="35.929688" transform="translate(18.035156 18.035156)" fill="white" fill-opacity="0"/>
		</clipPath>
		<clipPath id="clip10_1610">
			<rect id="free-icon-document-4248628" rx="0.000000" width="35.929688" height="35.929688" transform="translate(56.847656 18.035156)" fill="white" fill-opacity="0"/>
		</clipPath>
		<clipPath id="clip10_1613">
			<rect id="free-icon-recycling-3283519" rx="0.000000" width="35.929688" height="35.929688" transform="translate(56.847656 18.035156)" fill="white" fill-opacity="0"/>
		</clipPath>
		<clipPath id="clip10_1617">
			<rect id="free-icon-online-support-4935596" rx="0.000000" width="35.929688" height="35.929688" transform="translate(56.847656 18.035156)" fill="white" fill-opacity="0"/>
		</clipPath>
		<clipPath id="clip10_1624">
			<rect id="free-icon-no-money-4935270" rx="0.000000" width="35.929688" height="35.929688" transform="translate(18.035156 18.035156)" fill="white" fill-opacity="0"/>
		</clipPath>
		<clipPath id="clip10_1630">
			<rect id="free-icon-shield-6506912" rx="0.000000" width="35.929688" height="35.929688" transform="translate(18.035156 18.035156)" fill="white" fill-opacity="0"/>
		</clipPath>
		<clipPath id="clip10_1633">
			<rect id="Frame 6" rx="0.000000" width="24.750000" height="8.625000" transform="translate(28.968506 19.312500)" fill="white" fill-opacity="0"/>
		</clipPath>
		<clipPath id="clip10_1635">
			<rect id="free-icon-wheelbarrow-4591692" rx="0.000000" width="35.929688" height="35.929688" transform="translate(18.035156 18.035156)" fill="white" fill-opacity="0"/>
		</clipPath>
		<clipPath id="clip10_1640">
			<rect id="free-icon-pin-7452980" rx="0.000000" width="35.929688" height="35.929688" transform="translate(18.035156 18.035156)" fill="white" fill-opacity="0"/>
		</clipPath>
		<clipPath id="clip10_1654">
			<rect id="free-icon-time-is-money-6775873" rx="0.000000" width="35.929688" height="35.929688" transform="translate(18.035156 18.035156)" fill="white" fill-opacity="0"/>
		</clipPath>
		<clipPath id="clip10_1662">
			<rect id="free-icon-document-6777288" rx="0.000000" width="35.929688" height="35.929688" transform="translate(18.035156 18.035156)" fill="white" fill-opacity="0"/>
		</clipPath>
		<clipPath id="clip10_1667">
			<rect id="free-icon-shield-4779724" rx="0.000000" width="35.929688" height="35.929688" transform="translate(18.035156 18.035156)" fill="white" fill-opacity="0"/>
		</clipPath>
		<clipPath id="clip10_1692">
			<rect id="free-icon-file-604695" rx="0.000000" width="35.893486" height="35.893486" transform="translate(18.053257 18.053257)" fill="white" fill-opacity="0"/>
		</clipPath>
		<clipPath id="clip10_1712">
			<rect id="free-icon-file-604695" rx="0.000000" width="35.893486" height="35.893486" transform="translate(18.053257 18.053257)" fill="white" fill-opacity="0"/>
		</clipPath>
		<clipPath id="clip10_1717">
			<rect id="free-icon-calendar-4610861" rx="0.000000" width="35.929688" height="35.929688" transform="translate(18.035156 18.035156)" fill="white" fill-opacity="0"/>
		</clipPath>
		<clipPath id="clip10_1726">
			<rect id="free-icon-tractor-10583052" rx="0.000000" width="35.929688" height="35.929688" transform="translate(56.847656 18.035156)" fill="white" fill-opacity="0"/>
		</clipPath>
		<clipPath id="clip10_1734">
			<rect id="free-icon-toy-truck-4591186" rx="0.000000" width="35.929688" height="35.929688" transform="translate(18.035156 18.035156)" fill="white" fill-opacity="0"/>
		</clipPath>
	</defs>
	<rect id="free-icon-toy-truck-4591186" rx="0.000000" width="35.929688" height="35.929688" transform="translate(18.035156 18.035156)" fill="#FFFFFF" fill-opacity="0"/>
	<g clip-path="url(#clip10_1734)">
		<path id="Vector" d="M52.57 42.9L52.57 34.1C52.57 33.71 52.45 33.35 52.22 33.04L48.54 28C48.2 27.53 47.66 27.26 47.09 27.26L40.8 27.26C40.47 27.26 40.2 27.53 40.2 27.86C40.2 28.19 40.47 28.46 40.8 28.46L47.09 28.46C47.28 28.46 47.46 28.55 47.57 28.7L48.46 29.92L42.3 29.92C41.3 29.92 40.5 30.73 40.5 31.72L40.5 35.66C40.5 36.65 41.3 37.46 42.3 37.46L46.2 37.46C46.68 37.46 47.11 37.74 47.3 38.19C47.58 38.84 48.22 39.26 48.94 39.26L49.37 39.26C49.7 39.26 49.97 38.99 49.97 38.66C49.97 38.33 49.7 38.06 49.37 38.06L48.94 38.06C48.71 38.06 48.49 37.92 48.4 37.72C48.03 36.83 47.16 36.26 46.2 36.26L42.3 36.26C41.96 36.26 41.7 35.99 41.7 35.66L41.7 31.72C41.7 31.39 41.96 31.12 42.3 31.12L49.34 31.12L51.25 33.75C51.33 33.85 51.37 33.97 51.37 34.1L51.37 42.99C50.93 43.34 51.18 44.06 51.75 44.06L52.2 44.06C52.53 44.06 52.8 44.33 52.8 44.66L52.8 45.86C52.8 46.19 52.53 46.46 52.2 46.46L50.18 46.46C50.96 43.05 48.35 39.86 44.92 39.86C42.8 39.86 40.97 41.08 40.08 42.86L38.55 42.86L38.55 26.06C38.55 25.73 38.82 25.46 39.15 25.46L40.31 25.46C41.44 25.46 42.37 24.53 42.37 23.39C42.37 22.26 41.44 21.33 40.31 21.33L36.28 21.33C35.63 21.33 35.01 21.64 34.63 22.16L33.15 24.12C33.02 24.29 32.84 24.41 32.63 24.45L21.6 26.59C20.63 26.78 19.93 27.63 19.93 28.61L19.93 42.86L19.79 42.86C18.8 42.86 18 43.66 18 44.66L18 45.86C18 46.85 18.8 47.66 19.79 47.66C20.13 47.66 20.39 47.39 20.39 47.06C20.39 46.73 20.13 46.46 19.79 46.46C19.46 46.46 19.2 46.19 19.2 45.86L19.2 44.66C19.2 44.33 19.46 44.06 19.79 44.06L21.81 44.06C21.03 47.45 23.63 50.66 27.07 50.66C28 50.66 28.92 50.42 29.73 49.96C30.02 49.79 30.12 49.43 29.96 49.14C29.79 48.85 29.43 48.75 29.14 48.91C26.35 50.49 22.87 48.47 22.87 45.26C22.87 42.94 24.75 41.06 27.07 41.06C29.88 41.06 32.12 43.86 30.97 46.83C30.85 47.12 30.97 47.44 31.24 47.59C31.43 47.69 31.08 47.66 37.95 47.66C38.28 47.66 38.55 47.39 38.55 47.06C38.55 46.73 38.28 46.46 37.95 46.46L32.33 46.46C33.11 43.05 30.5 39.86 27.07 39.86C24.95 39.86 23.12 41.08 22.23 42.86L21.13 42.86L21.13 28.61C21.13 28.2 21.42 27.85 21.83 27.77L32.86 25.63C33.36 25.53 33.81 25.25 34.11 24.84L35.59 22.88C35.75 22.66 36.01 22.53 36.28 22.53L40.31 22.53C40.78 22.53 41.17 22.92 41.17 23.39C41.17 23.87 40.78 24.26 40.31 24.26L39.15 24.26C38.15 24.26 37.35 25.06 37.35 26.06L37.35 42.86L33.88 42.86C33.55 42.86 33.28 43.13 33.28 43.46C33.28 43.79 33.55 44.06 33.88 44.06L39.66 44.06C38.88 47.45 41.48 50.66 44.92 50.66C45.84 50.66 46.75 50.42 47.55 49.97C47.84 49.81 47.95 49.45 47.78 49.16C47.62 48.87 47.26 48.76 46.97 48.93C44.2 50.47 40.72 48.48 40.72 45.26C40.72 42.94 42.6 41.06 44.92 41.06C47.24 41.06 49.12 42.94 49.12 45.26C49.12 46.17 48.83 46.76 48.79 46.89C48.71 47.18 48.86 47.5 49.15 47.61C49.31 47.68 49.19 47.66 52.2 47.66C53.19 47.66 54 46.85 54 45.86L54 44.66C54 43.79 53.38 43.07 52.57 42.9Z" fill="#FFFFFF" fill-opacity="1.000000" fill-rule="nonzero"/>
		<path id="Vector" d="M27.07 44.06C27.73 44.06 28.27 44.6 28.27 45.26C28.27 45.59 28.54 45.86 28.87 45.86C29.2 45.86 29.47 45.59 29.47 45.26C29.47 43.93 28.39 42.86 27.07 42.86C25.75 42.86 24.67 43.93 24.67 45.26C24.67 46.58 25.75 47.66 27.07 47.66C27.4 47.66 27.67 47.39 27.67 47.06C27.67 46.73 27.4 46.46 27.07 46.46C26.41 46.46 25.87 45.92 25.87 45.26C25.87 44.6 26.41 44.06 27.07 44.06Z" fill="#FFFFFF" fill-opacity="1.000000" fill-rule="nonzero"/>
		<path id="Vector" d="M44.92 46.46C44.26 46.46 43.72 45.92 43.72 45.26C43.72 44.93 43.45 44.66 43.12 44.66C42.79 44.66 42.52 44.93 42.52 45.26C42.52 46.58 43.6 47.66 44.92 47.66C46.24 47.66 47.32 46.58 47.32 45.26C47.32 43.93 46.24 42.86 44.92 42.86C44.59 42.86 44.32 43.13 44.32 43.46C44.32 43.79 44.59 44.06 44.92 44.06C45.58 44.06 46.12 44.6 46.12 45.26C46.12 45.92 45.58 46.46 44.92 46.46Z" fill="#FFFFFF" fill-opacity="1.000000" fill-rule="nonzero"/>
		<path id="Vector" d="M28.57 30.63L28.57 37.08C28.57 37.41 28.84 37.68 29.17 37.68C29.5 37.68 29.77 37.41 29.77 37.08L29.77 30.63C29.77 30.3 29.5 30.03 29.17 30.03C28.84 30.03 28.57 30.3 28.57 30.63Z" fill="#FFFFFF" fill-opacity="1.000000" fill-rule="nonzero"/>
		<path id="Vector" d="M34.05 36.33L34.05 31.38C34.05 31.05 33.78 30.78 33.45 30.78C33.11 30.78 32.85 31.05 32.85 31.38L32.85 36.33C32.85 36.66 33.11 36.93 33.45 36.93C33.78 36.93 34.05 36.66 34.05 36.33Z" fill="#FFFFFF" fill-opacity="1.000000" fill-rule="nonzero"/>
		<path id="Vector" d="M24.3 31.38L24.3 36.33C24.3 36.66 24.56 36.93 24.9 36.93C25.23 36.93 25.5 36.66 25.5 36.33L25.5 31.38C25.5 31.05 25.23 30.78 24.9 30.78C24.56 30.78 24.3 31.05 24.3 31.38Z" fill="#FFFFFF" fill-opacity="1.000000" fill-rule="nonzero"/>
	</g>
	<rect id="Container" rx="35.500000" width="71.000000" height="71.000000" transform="translate(0.500000 0.500000)" stroke="#FFFFFF" stroke-opacity="1.000000" stroke-width="1.000000"/>
</svg>
