<svg width="72" height="72.000000" viewBox="0 0 72 72" fill="none" xmlns="http://www.w3.org/2000/svg" xmlns:xlink="http://www.w3.org/1999/xlink">
	<desc>
			Created with Pixso.
	</desc>
	<defs>
		<clipPath id="clip10_116">
			<rect id="free-icon-agent-4935682" rx="0.000000" width="35.929688" height="35.929688" transform="translate(18.035156 18.035156)" fill="white" fill-opacity="0"/>
		</clipPath>
		<clipPath id="clip10_130">
			<rect id="free-icon-document-4248628" rx="0.000000" width="35.929688" height="35.929688" transform="translate(56.847656 18.035156)" fill="white" fill-opacity="0"/>
		</clipPath>
		<clipPath id="clip10_133">
			<rect id="free-icon-recycling-3283519" rx="0.000000" width="35.929688" height="35.929688" transform="translate(56.847656 18.035156)" fill="white" fill-opacity="0"/>
		</clipPath>
		<clipPath id="clip10_137">
			<rect id="free-icon-online-support-4935596" rx="0.000000" width="35.929688" height="35.929688" transform="translate(56.847656 18.035156)" fill="white" fill-opacity="0"/>
		</clipPath>
		<clipPath id="clip10_144">
			<rect id="free-icon-no-money-4935270" rx="0.000000" width="35.929688" height="35.929688" transform="translate(18.035156 18.035156)" fill="white" fill-opacity="0"/>
		</clipPath>
		<clipPath id="clip10_150">
			<rect id="free-icon-shield-6506912" rx="0.000000" width="35.929688" height="35.929688" transform="translate(18.035156 18.035156)" fill="white" fill-opacity="0"/>
		</clipPath>
		<clipPath id="clip10_153">
			<rect id="Frame 6" rx="0.000000" width="24.750000" height="8.625000" transform="translate(28.968506 19.312500)" fill="white" fill-opacity="0"/>
		</clipPath>
		<clipPath id="clip10_155">
			<rect id="free-icon-wheelbarrow-4591692" rx="0.000000" width="35.929688" height="35.929688" transform="translate(18.035156 18.035156)" fill="white" fill-opacity="0"/>
		</clipPath>
		<clipPath id="clip10_160">
			<rect id="free-icon-pin-7452980" rx="0.000000" width="35.929688" height="35.929688" transform="translate(18.035156 18.035156)" fill="white" fill-opacity="0"/>
		</clipPath>
		<clipPath id="clip10_174">
			<rect id="free-icon-time-is-money-6775873" rx="0.000000" width="35.929688" height="35.929688" transform="translate(18.035156 18.035156)" fill="white" fill-opacity="0"/>
		</clipPath>
		<clipPath id="clip10_182">
			<rect id="free-icon-document-6777288" rx="0.000000" width="35.929688" height="35.929688" transform="translate(18.035156 18.035156)" fill="white" fill-opacity="0"/>
		</clipPath>
		<clipPath id="clip10_187">
			<rect id="free-icon-shield-4779724" rx="0.000000" width="35.929688" height="35.929688" transform="translate(18.035156 18.035156)" fill="white" fill-opacity="0"/>
		</clipPath>
		<clipPath id="clip10_212">
			<rect id="free-icon-file-604695" rx="0.000000" width="35.893486" height="35.893486" transform="translate(18.053257 18.053257)" fill="white" fill-opacity="0"/>
		</clipPath>
		<clipPath id="clip10_232">
			<rect id="free-icon-file-604695" rx="0.000000" width="35.893486" height="35.893486" transform="translate(18.053257 18.053257)" fill="white" fill-opacity="0"/>
		</clipPath>
		<clipPath id="clip10_237">
			<rect id="free-icon-calendar-4610861" rx="0.000000" width="35.929688" height="35.929688" transform="translate(18.035156 18.035156)" fill="white" fill-opacity="0"/>
		</clipPath>
		<clipPath id="clip10_246">
			<rect id="free-icon-tractor-10583052" rx="0.000000" width="35.929688" height="35.929688" transform="translate(56.847656 18.035156)" fill="white" fill-opacity="0"/>
		</clipPath>
		<clipPath id="clip10_254">
			<rect id="free-icon-toy-truck-4591186" rx="0.000000" width="35.929688" height="35.929688" transform="translate(95.660156 18.035156)" fill="white" fill-opacity="0"/>
		</clipPath>
	</defs>
	<rect id="free-icon-calendar-4610861" rx="0.000000" width="35.929688" height="35.929688" transform="translate(18.035156 18.035156)" fill="#FFFFFF" fill-opacity="0"/>
	<g clip-path="url(#clip10_237)">
		<path id="Vector" d="M45.14 24.41L53.39 24.41C53.73 24.41 54 24.14 54 23.81L54 21.26C54 19.93 52.92 18.86 51.6 18.86L20.39 18.86C19.07 18.86 18 19.93 18 21.26L18 39.79C18 40.12 18.26 40.38 18.6 40.38C18.93 40.38 19.2 40.12 19.2 39.79L19.2 36.86L34.8 36.86L34.8 42.33L32.68 42.33C32.35 42.33 32.08 42.6 32.08 42.93C32.08 43.26 32.35 43.53 32.68 43.53L34.8 43.53L34.8 45.65C34.8 45.98 35.06 46.25 35.39 46.25C35.73 46.25 36 45.98 36 45.65L36 43.53L43.95 43.53L43.95 48.26L31.03 48.26C32.19 44.06 29.03 39.86 24.63 39.86C20.97 39.86 18 42.84 18 46.5C18 50.15 20.97 53.13 24.63 53.13C26.02 53.13 27.36 52.71 28.48 51.9C28.75 51.71 28.82 51.33 28.62 51.06C28.43 50.79 28.06 50.73 27.79 50.92C26.86 51.58 25.77 51.93 24.63 51.93C21.63 51.93 19.2 49.49 19.2 46.5C19.2 43.5 21.63 41.06 24.63 41.06C28.62 41.06 31.12 45.13 29.64 48.62C29.48 48.99 29.73 49.41 30.13 49.45C30.18 49.46 29.22 49.46 51.6 49.46C52.92 49.46 54 48.38 54 47.06L54 26.97C54 26.64 53.73 26.37 53.39 26.37C53.06 26.37 52.8 26.64 52.8 26.97L52.8 28.91L45.14 28.91L45.14 24.41ZM43.95 35.66L36 35.66L36 30.11L40.93 30.11C41.26 30.11 41.53 29.84 41.53 29.51C41.53 29.18 41.26 28.91 40.93 28.91L36 28.91L36 24.41L43.95 24.41L43.95 35.66ZM20.39 20.06L51.6 20.06C52.26 20.06 52.8 20.6 52.8 21.26L52.8 23.21L22.67 23.21C22.34 23.21 22.07 23.48 22.07 23.81C22.07 24.14 22.34 24.41 22.67 24.41L34.8 24.41L34.8 28.91L19.2 28.91L19.2 21.26C19.2 20.6 19.73 20.06 20.39 20.06ZM19.2 35.66L19.2 30.11L34.8 30.11L34.8 35.66L19.2 35.66ZM51.6 48.26L45.14 48.26L45.14 43.53L52.8 43.53L52.8 47.06C52.8 47.72 52.26 48.26 51.6 48.26ZM52.8 30.11L52.8 42.33L45.14 42.33L45.14 38.94C45.14 38.61 44.88 38.34 44.55 38.34C44.21 38.34 43.95 38.61 43.95 38.94L43.95 42.33L36 42.33L36 36.86L50.6 36.86C50.93 36.86 51.2 36.59 51.2 36.26C51.2 35.93 50.93 35.66 50.6 35.66L45.14 35.66L45.14 30.11L52.8 30.11Z" fill="#FFFFFF" fill-opacity="1.000000" fill-rule="nonzero"/>
		<path id="Vector" d="M26.57 44.54L23.64 47.47L22.73 46.57C22.5 46.33 22.12 46.33 21.88 46.57C21.65 46.8 21.65 47.18 21.88 47.41L23.22 48.75C23.45 48.98 23.83 48.98 24.06 48.75L27.42 45.39C27.65 45.16 27.65 44.78 27.42 44.54C27.18 44.31 26.81 44.31 26.57 44.54Z" fill="#FFFFFF" fill-opacity="1.000000" fill-rule="nonzero"/>
	</g>
	<rect id="Container" rx="35.500000" width="71.000000" height="71.000000" transform="translate(0.500000 0.500000)" stroke="#FFFFFF" stroke-opacity="1.000000" stroke-width="1.000000"/>
</svg>
