<svg width="72" height="72.000000" viewBox="0 0 72 72" fill="none" xmlns="http://www.w3.org/2000/svg" xmlns:xlink="http://www.w3.org/1999/xlink">
	<desc>
			Created with Pixso.
	</desc>
	<defs>
		<clipPath id="clip10_1744">
			<rect id="free-icon-agent-4935682" rx="0.000000" width="35.929688" height="35.929688" transform="translate(18.035156 18.035156)" fill="white" fill-opacity="0"/>
		</clipPath>
		<clipPath id="clip10_1758">
			<rect id="free-icon-document-4248628" rx="0.000000" width="35.929688" height="35.929688" transform="translate(56.847656 18.035156)" fill="white" fill-opacity="0"/>
		</clipPath>
		<clipPath id="clip10_1761">
			<rect id="free-icon-recycling-3283519" rx="0.000000" width="35.929688" height="35.929688" transform="translate(56.847656 18.035156)" fill="white" fill-opacity="0"/>
		</clipPath>
		<clipPath id="clip10_1765">
			<rect id="free-icon-online-support-4935596" rx="0.000000" width="35.929688" height="35.929688" transform="translate(56.847656 18.035156)" fill="white" fill-opacity="0"/>
		</clipPath>
		<clipPath id="clip10_1772">
			<rect id="free-icon-no-money-4935270" rx="0.000000" width="35.929688" height="35.929688" transform="translate(18.035156 18.035156)" fill="white" fill-opacity="0"/>
		</clipPath>
		<clipPath id="clip10_1778">
			<rect id="free-icon-shield-6506912" rx="0.000000" width="35.929688" height="35.929688" transform="translate(18.035156 18.035156)" fill="white" fill-opacity="0"/>
		</clipPath>
		<clipPath id="clip10_1781">
			<rect id="Frame 6" rx="0.000000" width="24.750000" height="8.625000" transform="translate(28.968506 19.312500)" fill="white" fill-opacity="0"/>
		</clipPath>
		<clipPath id="clip10_1783">
			<rect id="free-icon-wheelbarrow-4591692" rx="0.000000" width="35.929688" height="35.929688" transform="translate(18.035156 18.035156)" fill="white" fill-opacity="0"/>
		</clipPath>
		<clipPath id="clip10_1788">
			<rect id="free-icon-pin-7452980" rx="0.000000" width="35.929688" height="35.929688" transform="translate(18.035156 18.035156)" fill="white" fill-opacity="0"/>
		</clipPath>
		<clipPath id="clip10_1802">
			<rect id="free-icon-time-is-money-6775873" rx="0.000000" width="35.929688" height="35.929688" transform="translate(18.035156 18.035156)" fill="white" fill-opacity="0"/>
		</clipPath>
		<clipPath id="clip10_1810">
			<rect id="free-icon-document-6777288" rx="0.000000" width="35.929688" height="35.929688" transform="translate(18.035156 18.035156)" fill="white" fill-opacity="0"/>
		</clipPath>
		<clipPath id="clip10_1815">
			<rect id="free-icon-shield-4779724" rx="0.000000" width="35.929688" height="35.929688" transform="translate(18.035156 18.035156)" fill="white" fill-opacity="0"/>
		</clipPath>
		<clipPath id="clip10_1840">
			<rect id="free-icon-file-604695" rx="0.000000" width="35.893486" height="35.893486" transform="translate(18.053257 18.053257)" fill="white" fill-opacity="0"/>
		</clipPath>
		<clipPath id="clip10_1860">
			<rect id="free-icon-file-604695" rx="0.000000" width="35.893486" height="35.893486" transform="translate(18.053257 18.053257)" fill="white" fill-opacity="0"/>
		</clipPath>
		<clipPath id="clip10_1865">
			<rect id="free-icon-calendar-4610861" rx="0.000000" width="35.929688" height="35.929688" transform="translate(18.035156 18.035156)" fill="white" fill-opacity="0"/>
		</clipPath>
		<clipPath id="clip10_1874">
			<rect id="free-icon-tractor-10583052" rx="0.000000" width="35.929688" height="35.929688" transform="translate(18.035156 18.035156)" fill="white" fill-opacity="0"/>
		</clipPath>
		<clipPath id="clip10_1882">
			<rect id="free-icon-toy-truck-4591186" rx="0.000000" width="35.929688" height="35.929688" transform="translate(95.660156 18.035156)" fill="white" fill-opacity="0"/>
		</clipPath>
	</defs>
	<rect id="free-icon-tractor-10583052" rx="0.000000" width="35.929688" height="35.929688" transform="translate(18.035156 18.035156)" fill="#FFFFFF" fill-opacity="0"/>
	<g clip-path="url(#clip10_1874)">
		<path id="Vector" d="M45.65 45.43C44.28 45.43 43.17 46.54 43.17 47.91C43.17 49.27 44.28 50.38 45.65 50.38C47.01 50.38 48.12 49.27 48.12 47.91C48.12 46.54 47.01 45.43 45.65 45.43ZM45.65 49.18C44.95 49.18 44.37 48.61 44.37 47.91C44.37 47.21 44.95 46.63 45.65 46.63C46.35 46.63 46.92 47.21 46.92 47.91C46.92 48.61 46.35 49.18 45.65 49.18Z" fill="#FFFFFF" fill-opacity="1.000000" fill-rule="nonzero"/>
		<path id="Vector" d="M52.06 34.26L41.8 32.25L39.57 22.62L39.72 22.62C42.21 22.62 42.21 18.86 39.72 18.86L22.43 18.86C20.06 18.86 19.92 22.32 22.15 22.6L21.55 33.85C20.26 34.56 19.1 35.5 18.15 36.63C17.63 37.23 18.55 38.01 19.06 37.41C19.28 37.14 19.52 36.9 19.76 36.66L19.96 37.02C20.35 37.71 21.4 37.12 21.01 36.43L20.68 35.86C28.12 30.08 38.67 35.76 38.31 44.91C38.27 45.7 39.47 45.75 39.5 44.96C39.63 41.8 38.48 38.66 36.33 36.31L39.06 33.16C39.18 33.02 39.23 32.82 39.19 32.63L36.87 22.62L38.34 22.62L40.72 32.9C40.77 33.13 40.96 33.31 41.19 33.35L51.83 35.44C52.39 35.55 52.8 36.05 52.8 36.62L52.8 46.11C52.8 46.77 52.26 47.31 51.6 47.31L50.83 47.31C50.53 44.71 48.32 42.69 45.65 42.69C42.98 42.69 40.77 44.71 40.47 47.31L35.39 47.31C35.44 47.15 35.5 47 35.54 46.84C36.27 46.52 36.76 45.8 36.76 44.98L36.76 43.99C36.76 43.16 36.27 42.44 35.54 42.13C35.16 40.8 34.46 39.6 33.5 38.6C33.6 37.81 33.21 37.02 32.5 36.61L31.64 36.11C30.93 35.7 30.06 35.76 29.42 36.24C28.08 35.91 26.68 35.91 25.34 36.24C24.7 35.76 23.84 35.7 23.12 36.11L22.26 36.61C21.55 37.02 21.17 37.81 21.26 38.6C20.3 39.6 19.6 40.8 19.22 42.13C18.49 42.44 18 43.16 18 43.99L18 44.98C18 45.8 18.49 46.52 19.22 46.84C19.6 48.16 20.3 49.37 21.26 50.37C21.17 51.16 21.55 51.94 22.26 52.36L23.12 52.85C23.83 53.26 24.7 53.21 25.34 52.73C26.68 53.06 28.08 53.06 29.42 52.73C30.06 53.2 30.93 53.26 31.64 52.85L32.5 52.36C33.22 51.94 33.6 51.16 33.5 50.37C34.04 49.81 34.5 49.18 34.86 48.51L40.47 48.51C40.77 51.1 42.98 53.12 45.65 53.12C48.32 53.12 50.53 51.1 50.83 48.51L51.6 48.51C52.92 48.51 54 47.43 54 46.11L54 36.62C54 35.47 53.18 34.48 52.06 34.26ZM22.43 20.06L39.72 20.06C40.62 20.06 40.62 21.42 39.72 21.42L22.43 21.42C21.53 21.42 21.53 20.06 22.43 20.06ZM22.79 33.26L23.35 22.62L25.15 22.62L24.73 30.6C24.71 30.93 24.96 31.21 25.29 31.23C25.62 31.24 25.91 30.99 25.92 30.66L26.16 26.25L27.07 26.25C27.75 26.25 28.32 26.8 28.34 27.49L28.41 30.69C28.42 30.98 28.64 31.25 28.97 31.28C29.13 31.29 30.47 31.42 31.15 32.25C31.34 32.49 31.47 32.76 31.53 33.08C28.78 32.09 25.64 32.1 22.79 33.26ZM37.65 31.32L35.73 29.9L36 29.52C36.47 28.88 35.5 28.18 35.03 28.82L33.71 30.64C33.25 31.28 34.22 31.99 34.68 31.34L35.03 30.87L37.73 32.86L35.48 35.46C34.65 34.71 33.74 34.09 32.76 33.61C32.81 31.7 31.5 30.51 29.6 30.15L29.54 27.46C29.51 26.13 28.4 25.05 27.07 25.05L26.22 25.05L26.35 22.62L35.64 22.62L37.65 31.32ZM32.44 49.74C32.27 49.9 32.21 50.13 32.28 50.35C32.39 50.72 32.24 51.12 31.9 51.32L31.04 51.81C30.7 52.01 30.28 51.95 30.01 51.66C29.86 51.49 29.63 51.43 29.41 51.49C28.08 51.87 26.68 51.87 25.36 51.49C25.14 51.43 24.9 51.49 24.75 51.66C24.48 51.95 24.06 52.01 23.72 51.81L22.86 51.32C22.53 51.12 22.37 50.72 22.49 50.34C22.55 50.13 22.49 49.9 22.33 49.74C21.33 48.78 20.63 47.57 20.3 46.23C20.25 46.01 20.07 45.84 19.85 45.79C19.47 45.7 19.2 45.37 19.2 44.98L19.2 43.99C19.2 43.6 19.47 43.27 19.85 43.18C20.07 43.13 20.25 42.96 20.3 42.74C20.63 41.4 21.33 40.19 22.33 39.23C22.49 39.07 22.55 38.83 22.49 38.62C22.37 38.24 22.53 37.84 22.86 37.65L23.72 37.15C24.06 36.96 24.48 37.02 24.75 37.31C24.9 37.48 25.14 37.54 25.36 37.48C26.68 37.1 28.08 37.1 29.41 37.48C29.63 37.54 29.86 37.48 30.01 37.31C30.28 37.02 30.7 36.96 31.04 37.15L31.9 37.65C32.24 37.84 32.39 38.24 32.28 38.61C32.21 38.83 32.27 39.07 32.44 39.23C33.43 40.19 34.13 41.4 34.46 42.74C34.52 42.96 34.69 43.13 34.92 43.18C35.3 43.27 35.56 43.6 35.56 43.99L35.56 44.98C35.56 45.37 35.3 45.7 34.92 45.79C34.69 45.84 34.52 46.01 34.46 46.23C34.13 47.57 33.43 48.78 32.44 49.74ZM45.65 51.92C43.43 51.92 41.63 50.12 41.63 47.91C41.63 45.7 43.43 43.89 45.65 43.89C47.86 43.89 49.67 45.69 49.67 47.91C49.67 50.12 47.86 51.92 45.65 51.92Z" fill="#FFFFFF" fill-opacity="1.000000" fill-rule="nonzero"/>
		<path id="Vector" d="M30.53 39.59C30.25 39.41 29.88 39.49 29.7 39.77C29.52 40.05 29.6 40.42 29.88 40.6C31.21 41.45 32 42.91 32 44.48C32 47.03 29.93 49.1 27.38 49.1C24.84 49.1 22.77 47.03 22.77 44.48C22.77 41.94 24.84 39.87 27.38 39.87C27.71 39.87 27.98 39.6 27.98 39.27C27.98 38.94 27.71 38.67 27.38 38.67C24.17 38.67 21.57 41.28 21.57 44.48C21.57 47.69 24.17 50.3 27.38 50.3C30.59 50.3 33.2 47.69 33.2 44.48C33.2 42.5 32.2 40.67 30.53 39.59Z" fill="#FFFFFF" fill-opacity="1.000000" fill-rule="nonzero"/>
		<path id="Vector" d="M24.48 44.73C24.51 45.06 24.8 45.31 25.13 45.28C25.46 45.25 25.7 44.96 25.67 44.63C25.59 43.63 26.38 42.77 27.38 42.77C28.33 42.77 29.1 43.54 29.1 44.48C29.1 45.46 28.27 46.26 27.26 46.19C26.93 46.17 26.65 46.42 26.62 46.75C26.6 47.08 26.85 47.37 27.18 47.39C28.87 47.51 30.3 46.16 30.3 44.48C30.3 42.88 28.99 41.57 27.38 41.57C25.68 41.57 24.33 43.03 24.48 44.73Z" fill="#FFFFFF" fill-opacity="1.000000" fill-rule="nonzero"/>
		<path id="Vector" d="M44.25 36.05C43.97 35.88 43.6 35.97 43.43 36.25L42.24 38.23C41.99 38.63 42.29 39.14 42.75 39.14C42.95 39.14 43.15 39.03 43.26 38.85L44.46 36.87C44.63 36.59 44.54 36.22 44.25 36.05Z" fill="#FFFFFF" fill-opacity="1.000000" fill-rule="nonzero"/>
		<path id="Vector" d="M48.82 41.54C49.02 41.54 49.22 41.43 49.33 41.25L50.53 39.27C50.7 38.99 50.61 38.62 50.32 38.45C50.04 38.28 49.67 38.37 49.5 38.65L48.3 40.62C48.06 41.03 48.36 41.54 48.82 41.54Z" fill="#FFFFFF" fill-opacity="1.000000" fill-rule="nonzero"/>
		<path id="Vector" d="M44.75 41.4C45.03 41.57 45.4 41.48 45.57 41.2L47.94 37.29C48.11 37.01 48.02 36.64 47.74 36.47C47.45 36.3 47.08 36.39 46.91 36.67L44.55 40.58C44.37 40.86 44.46 41.23 44.75 41.4Z" fill="#FFFFFF" fill-opacity="1.000000" fill-rule="nonzero"/>
	</g>
	<rect id="Container" rx="35.500000" width="71.000000" height="71.000000" transform="translate(0.500000 0.500000)" stroke="#FFFFFF" stroke-opacity="1.000000" stroke-width="1.000000"/>
</svg>
