<svg width="16.000000" height="16.000000" viewBox="0 0 16 16" fill="none" xmlns="http://www.w3.org/2000/svg" xmlns:xlink="http://www.w3.org/1999/xlink">
	<desc>
			Created with Pixso.
	</desc>
	<defs/>
	<path id="Vector" d="M8 0C3.57 0 0 3.57 0 8C0 12.42 3.57 16 8 16C12.42 16 16 12.42 16 8C16 3.57 12.42 0 8 0ZM8.62 14.72L8.62 14.14C8.62 13.8 8.34 13.52 8 13.52C7.65 13.52 7.37 13.8 7.37 14.14L7.37 14.72C4.14 14.42 1.57 11.85 1.27 8.62L1.85 8.62C2.19 8.62 2.47 8.34 2.47 8C2.47 7.65 2.19 7.37 1.85 7.37L1.27 7.37C1.57 4.14 4.14 1.57 7.37 1.27L7.37 1.85C7.37 2.19 7.65 2.47 8 2.47C8.34 2.47 8.62 2.19 8.62 1.85L8.62 1.27C11.85 1.57 14.42 4.14 14.72 7.37L14.14 7.37C13.8 7.37 13.52 7.65 13.52 8C13.52 8.34 13.8 8.62 14.14 8.62L14.72 8.62C14.42 11.85 11.85 14.42 8.62 14.72ZM10.9 10.01C11.14 10.26 11.14 10.65 10.9 10.9C10.65 11.14 10.26 11.14 10.01 10.9L7.55 8.44C7.44 8.32 7.37 8.16 7.37 8L7.37 4.31C7.37 3.96 7.65 3.68 8 3.68C8.34 3.68 8.62 3.96 8.62 4.31L8.62 7.74L10.9 10.01Z" fill="#EC483B" fill-opacity="1.000000" fill-rule="nonzero"/>
</svg>
